<?xml version="1.0" encoding="utf-8"?>
<!-- Generator: Adobe Illustrator 17.1.0, SVG Export Plug-In . SVG Version: 6.00 Build 0)  -->
<!DOCTYPE svg PUBLIC "-//W3C//DTD SVG 1.1//EN" "http://www.w3.org/Graphics/SVG/1.1/DTD/svg11.dtd">
<svg version="1.1" id="Calque_1" xmlns="http://www.w3.org/2000/svg" xmlns:xlink="http://www.w3.org/1999/xlink" x="0px" y="0px"
	 viewBox="0 0 68 72" enable-background="new 0 0 68 72" xml:space="preserve">
<g>
	<polygon fill="#F4F4F4" points="59.3,32.6 50.2,4.6 32.5,17.2 36.2,24.7 5.7,18.1 7,30.2 9.4,46.1 20.1,61.5 29.7,60.3 40.1,68.3 
		58.4,62.9 55.2,53.2 64.9,43.9 	"/>
	<path fill="#E8E8E8" d="M30.2,23.7l-1.6,14.6l9.4,8.2l-6.2,15.5l-11.6-0.4c0,0-10.6-14.4-10.8-15.4S5.1,18,5.7,18.1
		S30.2,23.7,30.2,23.7z"/>
	<path fill="#E9EDED" d="M52.4,46.5l-9-10.3l8.9-7.6l-19.2,1.2c0,0-3.1,9.1,1,9.7s10.5,11.5,10.5,11.5L52.4,46.5z"/>
	<polygon fill="#E0E0E0" points="28.3,29.1 25.5,33.8 20,36.2 17.5,43.6 12.9,37.5 18.1,33.1 22.4,33.2 	"/>
	<path fill="#E9EDED" d="M59.2,37.3c0.2,0.7,4.2,6.9,3.7,6.7s-5.8-0.5-5.8-0.5s-4,3.1-4,3.2c0,0.1,5.1-5.8,5.1-5.8l1.8,0.6
		L59.2,37.3z"/>
	<path fill="#E9EDED" d="M37.2,18l9.4-7.8l-0.2,5.4l-5.1,2.9c0,0-4.3,7.9-4.2,7.5C37.1,25.6,37.2,18,37.2,18z"/>
	<path fill="#E0E0E0" d="M14.8,22.1c0,0,7.4,2.4,6.8,2.3s-3.5,3.4-3.5,3.4L13.5,29l-3.6,4.9L14.8,22.1z"/>
	<path fill="#E0E0E0" d="M33.2,41.6C32.7,42,35,48.5,35,48.5s-4.2,4.3-4.4,4.8s-1.8,3.5-1.8,3.1s0.8-5.4,1.3-5.6
		c0.4-0.2,3-1.8,2.9-2.5S33.2,41.6,33.2,41.6z"/>
</g>
</svg>
