<?xml version="1.0" encoding="utf-8"?>
<!-- Generator: Adobe Illustrator 18.1.0, SVG Export Plug-In . SVG Version: 6.00 Build 0)  -->
<!DOCTYPE svg PUBLIC "-//W3C//DTD SVG 1.1//EN" "http://www.w3.org/Graphics/SVG/1.1/DTD/svg11.dtd">
<svg version="1.1" id="Calque_1" xmlns="http://www.w3.org/2000/svg" xmlns:xlink="http://www.w3.org/1999/xlink" x="0px" y="0px"
	 viewBox="-221.5 -166 643 532" enable-background="new -221.5 -166 643 532" xml:space="preserve">
<g>
	<g>
		<g>
			<path fill="#0E263A" d="M421.2,262.7c0,4.4-3.6,8-8.1,8h-626.4c-4.4,0-8.1-3.6-8.1-8V-158c0-4.4,3.6-8,8.1-8h626.4
				c4.4,0,8.1,3.6,8.1,8L421.2,262.7L421.2,262.7z"/>
			<g>
				<g>
					<path id="SVGID_13_" fill="#BFC6C9" d="M421.7,268c0,4.4-3.6,8.1-8.1,8.1h-625.9c-4.4,0-8.1-3.6-8.1-8.1v-28.2
						c0-4.4,637.6-3.1,642-3.1L421.7,268L421.7,268z"/>
				</g>
				<g>
					<defs>
						<path id="SVGID_1_" d="M421.7,268c0,4.4-3.6,8.1-8.1,8.1h-625.9c-4.4,0-8.1-3.6-8.1-8.1v-28.2c0-4.4,637.6-3.1,642-3.1
							L421.7,268L421.7,268z"/>
					</defs>
					<clipPath id="SVGID_2_">
						<use xlink:href="#SVGID_1_"  overflow="visible"/>
					</clipPath>
					<rect x="-239.2" y="220.2" clip-path="url(#SVGID_2_)" fill="#BFC6C9" width="725.3" height="60.6"/>
				</g>
			</g>
			<g>
				<g>
					<defs>
						<path id="SVGID_3_" d="M421.7,261.3c0,4.4-3.7,11.1-9.1,11.1h-625.9c-4.4,0-8.1-3.6-8.1-8.1V-157c0-4.4,3.6-8,8.1-8h625.9
							c4.4,0,8.1,3.6,8.1,8L421.7,261.3z"/>
					</defs>
					<clipPath id="SVGID_4_">
						<use xlink:href="#SVGID_3_"  overflow="visible"/>
					</clipPath>
					<rect x="-240.2" y="216.6" clip-path="url(#SVGID_4_)" fill="#E9EDED" width="725.3" height="60.6"/>
				</g>
			</g>
			<rect x="-196.7" y="-138.1" fill="#FFFEFD" width="593.3" height="337.9"/>
			<g>
				<path fill="#BFC6C9" d="M194.8,359c-2.8-1.9-21.3-10.3-23.5-17c-1.7-5.1-7-68.3-7-68.3l-64.1,0.2l-64.1-0.2c0,0-5.2,63-7,68.3
					c-2.2,6.8-20.7,15.1-23.5,17c-1.2,0.8-0.4,2.3,0.6,3.5h187.9C195.2,361.3,196,359.8,194.8,359z"/>
			</g>
			<rect x="6.3" y="359" fill="#E9EDED" width="188.5" height="3.5"/>
			<polygon fill="#E9EDED" points="35.8,277.7 164.8,277.7 171.3,342 29.1,342 			"/>
		</g>
		<path fill="#0E263A" d="M112.8,248.2c-0.5,0.2-1,0.3-1.6,0.4c-0.6,0.1-1.2,0.2-1.8,0.2c-1.2,0-2-0.3-2.4-1
			c-0.4-0.7-0.6-1.5-0.6-2.6v-6.7h6.5v-4.4h-6.5l0,0v-4.7l-5.3,2.4l0,0v9.4c-0.5-0.6-1.1-1.2-1.6-1.8c-0.6-0.6-1.1-1.2-1.6-1.8
			c-0.5-0.6-1-1.2-1.5-1.7c-0.4-0.5-0.8-1-1.1-1.3l-4.5,2.1c0.6,0.7,1.2,1.3,1.8,2c1.2,1.3,2.5,2.7,3.9,4.1
			c-0.7,0.6-1.4,1.4-2.2,2.3c-0.8,0.9-1.5,1.8-2.2,2.8c-0.7,0.9-1.4,1.9-2,2.8c-0.6,0.9-1.1,1.8-1.5,2.6h6.1c0.4-0.6,0.8-1.3,1.3-2
			c0.5-0.7,1-1.5,1.5-2.2c0.5-0.7,1.1-1.5,1.7-2.2c0.6-0.7,1.2-1.3,1.8-1.7v0.2l0,0c0,1.2,0.1,2.3,0.3,3.3c0.2,1,0.6,1.8,1.2,2.5
			s1.3,1.2,2.3,1.6c0.4,0.2,0.9,0.3,1.5,0.4c0.6,0.1,1.3,0.2,2.1,0.2c1.1,0,2.1-0.1,2.9-0.3s1.5-0.4,2.1-0.7L112.8,248.2z"/>
	</g>
	<rect x="-196.7" y="-147.5" fill="#35383A" width="593.3" height="21.2"/>
	<rect x="-164.9" y="-139.4" fill="#BABEBF" width="25.7" height="5"/>
	<rect x="-132.8" y="-139.4" opacity="0.55" fill="#BABEBF" enable-background="new    " width="25.7" height="5"/>
	<rect x="-30.3" y="-139.4" fill="#BABEBF" width="17.4" height="5"/>
	<rect x="-4.9" y="-139.4" fill="#BABEBF" width="17.4" height="5"/>
	<rect x="20.2" y="-139.4" fill="#BABEBF" width="17.4" height="5"/>
	<rect x="44.5" y="-139.4" fill="#BABEBF" width="17.4" height="5"/>
	<rect x="362.6" y="-141.1" fill="#BABEBF" width="28.9" height="2.7"/>
	
		<text transform="matrix(1 0 0 1 -190.8822 -67.7964)" opacity="0.39" fill="#FFFFFF" enable-background="new    " font-family="'Georgia'" font-size="11.2941">T</text>
	
		<line opacity="0.5" fill="none" stroke="#FFFFFF" stroke-width="0.25" stroke-miterlimit="10" enable-background="new    " x1="-191" y1="-49.5" x2="-183.8" y2="-56.7"/>
	<rect x="-189.2" y="19.1" fill="none" stroke="#FFFFFF" stroke-width="0.25" stroke-miterlimit="10" width="5.2" height="5.2"/>
	<rect x="-192.5" y="30.6" fill="#76CAC8" width="3.3" height="3.3"/>
	<rect x="-189.1" y="30.6" opacity="0.5" fill="#FFFFFF" enable-background="new    " width="3.3" height="3.3"/>
	<g>
		
			<circle opacity="0.5" fill="none" stroke="#FFFFFF" stroke-width="0.12" stroke-miterlimit="10" enable-background="new    " cx="-185.3" cy="-17.6" r="2.5"/>
		
			<circle opacity="0.5" fill="none" stroke="#FFFFFF" stroke-width="0.12" stroke-miterlimit="10" enable-background="new    " cx="-189.4" cy="-17.6" r="2.5"/>
	</g>
	
		<polygon opacity="0.5" fill="none" stroke="#FFFFFF" stroke-width="0.12" stroke-miterlimit="10" enable-background="new    " points="
		-187.4,-3.3 -186.3,-1 -183.7,-0.7 -185.6,1.1 -185.1,3.7 -187.4,2.4 -189.6,3.7 -189.2,1.1 -191,-0.7 -188.5,-1 	"/>
	
		<rect x="-190.4" y="-91.6" opacity="0.46" fill="none" stroke="#FFFFFF" stroke-width="0.12" stroke-miterlimit="10" enable-background="new    " width="6.1" height="6"/>
	
		<rect x="385.1" y="15" opacity="0.46" fill="none" stroke="#FFFFFF" stroke-width="0.12" stroke-miterlimit="10" enable-background="new    " width="6.1" height="6"/>
	<g>
		
			<rect x="-190" y="-38.4" opacity="0.46" fill="none" stroke="#FFFFFF" stroke-width="0.12" stroke-miterlimit="10" enable-background="new    " width="3.1" height="6"/>
		
			<rect x="-186.3" y="-38.4" opacity="0.46" fill="none" stroke="#FFFFFF" stroke-width="0.12" stroke-miterlimit="10" enable-background="new    " width="1.6" height="3"/>
	</g>
	
		<polygon opacity="0.46" fill="none" stroke="#FFFFFF" stroke-width="0.12" stroke-miterlimit="10" enable-background="new    " points="
		-190.3,-110.5 -188.4,-104 -188,-105.2 -186.2,-102.3 -184.4,-103.5 -186.4,-106.3 -184.8,-106.8 	"/>
	<g opacity="0.5">
		<rect x="385.1" y="1.3" fill="none" stroke="#FFFFFF" stroke-width="0.12" stroke-miterlimit="10" width="6" height="0.6"/>
		<rect x="385.1" y="-2.6" fill="none" stroke="#FFFFFF" stroke-width="0.12" stroke-miterlimit="10" width="6" height="0.6"/>
		<rect x="385.1" y="-0.6" fill="none" stroke="#FFFFFF" stroke-width="0.12" stroke-miterlimit="10" width="6" height="0.6"/>
	</g>
	<g>
		<g>
			
				<circle opacity="0.5" fill="none" stroke="#FFFFFF" stroke-width="0.12" stroke-miterlimit="10" enable-background="new    " cx="390.3" cy="-15.6" r="2.5"/>
			
				<circle opacity="0.5" fill="none" stroke="#FFFFFF" stroke-width="0.12" stroke-miterlimit="10" enable-background="new    " cx="386.1" cy="-15.6" r="2.5"/>
		</g>
		<path opacity="0.5" fill="none" stroke="#FFFFFF" stroke-width="0.12" stroke-miterlimit="10" enable-background="new    " d="
			M385.6-18.1c0-1.4,1.1-2.5,2.5-2.5s2.5,1.1,2.5,2.5"/>
	</g>
	<g opacity="0.6">
		<rect x="386.6" y="-38.5" fill="#FFFFFF" width="4.2" height="5.8"/>
		<rect x="388.3" y="-42.5" fill="#FFFFFF" width="0.6" height="5.8"/>
		
			<rect x="387.1" y="-40.8" transform="matrix(-0.9608 0.2774 -0.2774 -0.9608 749.3744 -182.7543)" fill="#FFFFFF" width="1.1" height="4.9"/>
		
			<rect x="389.8" y="-42.3" transform="matrix(-0.985 -0.1727 0.1727 -0.985 781.0674 -10.3619)" fill="#FFFFFF" width="0.6" height="6.4"/>
	</g>
	<g>
		
			<polygon opacity="0.46" fill="none" stroke="#FFFFFF" stroke-width="0.12" stroke-miterlimit="10" enable-background="new    " points="
			385.2,-56.7 385.2,-62.9 388.7,-65.5 388.7,-59.4 		"/>
		
			<rect x="390.1" y="-67.2" opacity="0.5" fill="none" stroke="#FFFFFF" stroke-width="0.12" stroke-miterlimit="10" enable-background="new    " width="1.2" height="10.4"/>
	</g>
	<path opacity="0.46" fill="#FFFFFF" enable-background="new    " d="M384.5-76.8h6.5h1.1c0,0,0.7-1.1-0.5-3.9
		c-1.2-2.8-4.7-3.9-4.7-3.9L384.5-76.8l6.1-3.9c0,0,0,0.9,0.3,1.7C391.2-78.2,384.5-76.8,384.5-76.8z"/>
	
		<text transform="matrix(1 0 0 1 384.0318 -93.1343)" opacity="0.5" fill="#FFFFFF" enable-background="new    " font-family="'Georgia-Italic'" font-size="11.2941">O</text>
	<g>
		
			<text transform="matrix(1 0 0 1 384.0318 -108.7886)" opacity="0.5" fill="#FFFFFF" enable-background="new    " font-family="'Georgia'" font-size="11.2941">A</text>
		<g>
			<rect x="389.5" y="-117.4" fill="#717273" width="1.8" height="8.7"/>
			<polyline fill="#717273" points="389.5,-117.4 393.2,-117.4 393.2,-116.6 			"/>
		</g>
	</g>
</g>
<g>
	<rect x="-98.9" y="-68.9" fill="#F7D892" width="410.2" height="99.5"/>
	<rect x="-98.9" y="82.8" fill="#F7D892" width="126.5" height="62.3"/>
	<rect x="43" y="82.8" fill="#F7D892" width="126.5" height="62.3"/>
	<rect x="184.8" y="82.8" fill="#F7D892" width="126.5" height="62.3"/>
	<rect x="-98.9" y="156.8" fill="#929193" width="126.5" height="4.8"/>
	<rect x="43" y="156.8" fill="#929193" width="126.5" height="4.8"/>
	<rect x="184.8" y="156.8" fill="#929193" width="126.5" height="4.8"/>
	<rect x="-98.9" y="168" fill="#929193" width="126.5" height="4.8"/>
	<rect x="43" y="168" fill="#929193" width="126.5" height="4.8"/>
	<rect x="184.8" y="168" fill="#929193" width="126.5" height="4.8"/>
	<rect x="-98.9" y="179.5" fill="#929193" width="108.2" height="4.8"/>
	<rect x="43" y="179.5" fill="#929193" width="58.3" height="4.8"/>
	<rect x="184.8" y="179.5" fill="#929193" width="100" height="4.8"/>
	<rect x="-98.9" y="-118.7" fill="#F9B035" width="172.7" height="36.4"/>
	<rect x="222" y="-118.7" fill="#D45B38" width="89.2" height="15.9"/>
	<rect x="-9.7" y="44.5" fill="#D45B38" width="231.7" height="7.7"/>
	<rect x="21.6" y="59.1" fill="#D45B38" width="169.2" height="7.7"/>
</g>
</svg>
