<?xml version="1.0" encoding="utf-8"?>
<!-- Generator: Adobe Illustrator 18.1.0, SVG Export Plug-In . SVG Version: 6.00 Build 0)  -->
<!DOCTYPE svg PUBLIC "-//W3C//DTD SVG 1.1//EN" "http://www.w3.org/Graphics/SVG/1.1/DTD/svg11.dtd">
<svg version="1.1" id="Calque_1" xmlns="http://www.w3.org/2000/svg" xmlns:xlink="http://www.w3.org/1999/xlink" x="0px" y="0px"
	 viewBox="-219 -164 638 528" enable-background="new -219 -164 638 528" xml:space="preserve">
<g>
	<g>
		<g>
			<g>
				<path fill="#0E263A" d="M418.7,262.7c0,4.4-3.6,7.9-8,7.9h-621.5c-4.4,0-8-3.6-8-7.9v-417.3c0-4.4,3.6-7.9,8-7.9h621.5
					c4.4,0,8,3.6,8,7.9L418.7,262.7L418.7,262.7z"/>
				<g>
					<g>
						<path id="SVGID_1_" fill="#BFC6C9" d="M419.2,268c0,4.4-3.6,8-8,8h-621c-4.4,0-8-3.6-8-8v-28c0-4.4,632.6-3.1,637-3.1
							L419.2,268L419.2,268z"/>
					</g>
					<g>
						<defs>
							<path id="SVGID_2_" d="M419.2,268c0,4.4-3.6,8-8,8h-621c-4.4,0-8-3.6-8-8v-28c0-4.4,632.6-3.1,637-3.1L419.2,268L419.2,268z"
								/>
						</defs>
						<clipPath id="SVGID_3_">
							<use xlink:href="#SVGID_2_"  overflow="visible"/>
						</clipPath>
						<rect x="-236.6" y="220.5" clip-path="url(#SVGID_3_)" fill="#BFC6C9" width="719.6" height="60.1"/>
					</g>
				</g>
				<g>
					<g>
						<defs>
							<path id="SVGID_4_" d="M419.2,261.4c0,4.4-3.7,11-9,11h-621c-4.4,0-8-3.6-8-8v-418.1c0-4.4,3.6-7.9,8-7.9h621
								c4.4,0,8,3.6,8,7.9L419.2,261.4z"/>
						</defs>
						<clipPath id="SVGID_5_">
							<use xlink:href="#SVGID_4_"  overflow="visible"/>
						</clipPath>
						<rect x="-237.6" y="217" clip-path="url(#SVGID_5_)" fill="#E9EDED" width="719.6" height="60.1"/>
					</g>
				</g>
				<rect x="-194.4" y="-139.4" fill="#5C5F61" width="588.7" height="335.3"/>
				<g>
					<path fill="#BFC6C9" d="M194,358.4c-2.8-1.9-21.1-10.2-23.3-16.9c-1.7-5.1-6.9-67.7-6.9-67.7l-63.6,0.2l-63.6-0.2
						c0,0-5.2,62.5-6.9,67.7c-2.2,6.7-20.5,15-23.3,16.9c-1.2,0.8-0.4,2.3,0.6,3.5h186.5C194.4,360.7,195.2,359.2,194,358.4z"/>
				</g>
				<rect x="6.9" y="358.4" fill="#E9EDED" width="187.1" height="3.5"/>
				<polygon fill="#E9EDED" points="36.2,277.6 164.3,277.6 170.7,341.5 29.6,341.5 				"/>
			</g>
			<path fill="#0E263A" d="M112.7,248.4c-0.5,0.2-1,0.3-1.7,0.4c-0.6,0.1-1.2,0.2-1.8,0.2c-1.2,0-2-0.3-2.4-1
				c-0.4-0.7-0.6-1.5-0.6-2.6v-6.6h6.4v-4.4h-6.4l0,0v-4.7l-5.3,2.4l0,0v9.3c-0.5-0.6-1.1-1.2-1.6-1.8c-0.6-0.6-1.1-1.2-1.6-1.8
				c-0.5-0.6-1-1.2-1.5-1.7c-0.4-0.5-0.8-1-1.1-1.3l-4.5,2.1c0.6,0.7,1.2,1.3,1.8,2c1.2,1.3,2.5,2.7,3.9,4.1
				c-0.7,0.6-1.4,1.4-2.2,2.3c-0.8,0.9-1.5,1.8-2.2,2.8c-0.7,0.9-1.4,1.9-2,2.8c-0.6,0.9-1.1,1.8-1.5,2.6h6.1c0.4-0.6,0.8-1.3,1.3-2
				c0.5-0.7,1-1.5,1.5-2.2c0.5-0.7,1.1-1.5,1.7-2.2c0.6-0.7,1.2-1.3,1.8-1.7v0.2l0,0c0,1.2,0.1,2.3,0.3,3.3c0.2,1,0.6,1.8,1.2,2.5
				c0.6,0.7,1.3,1.2,2.3,1.6c0.4,0.2,0.9,0.3,1.5,0.4s1.3,0.2,2.1,0.2c1.1,0,2.1-0.1,2.9-0.3c0.8-0.2,1.5-0.4,2.1-0.7L112.7,248.4z"
				/>
		</g>
		<rect x="-194.4" y="-144.2" fill="#35383A" width="588.7" height="21"/>
		<rect x="-162.9" y="-136.2" fill="#BABEBF" width="25.5" height="5"/>
		<rect x="-131" y="-136.2" opacity="0.55" fill="#BABEBF" enable-background="new    " width="25.5" height="5"/>
		<rect x="-29.4" y="-136.2" fill="#BABEBF" width="17.3" height="5"/>
		<rect x="-4.2" y="-136.2" fill="#BABEBF" width="17.3" height="5"/>
		<rect x="20.7" y="-136.2" fill="#BABEBF" width="17.3" height="5"/>
		<rect x="44.8" y="-136.2" fill="#BABEBF" width="17.3" height="5"/>
		<rect x="360.5" y="-137.9" fill="#BABEBF" width="28.7" height="2.7"/>
		<rect x="-192.4" y="-114.8" fill="#35383A" width="14.4" height="157"/>
		<rect x="378.7" y="-121.3" fill="#35383A" width="14.4" height="157"/>
		<rect x="317.1" y="-49.6" fill="#35383A" width="61.6" height="13.3"/>
		<rect x="378.7" y="-121.3" fill="#262728" width="14.4" height="3.7"/>
		
			<text transform="matrix(1 0 0 1 -188.6653 -65.1483)" opacity="0.39" fill="#FFFFFF" enable-background="new    " font-family="'Georgia'" font-size="11.2063">T</text>
		
			<line opacity="0.5" fill="none" stroke="#FFFFFF" stroke-width="0.25" stroke-miterlimit="10" enable-background="new    " x1="-188.8" y1="-47" x2="-181.5" y2="-54.2"/>
		<rect x="-186.9" y="21.1" fill="none" stroke="#FFFFFF" stroke-width="0.25" stroke-miterlimit="10" width="5.2" height="5.2"/>
		<rect x="-190.2" y="16.3" fill="#76CAC8" width="6.6" height="6.6"/>
		<rect x="-190.2" y="32.5" fill="#76CAC8" width="3.3" height="3.3"/>
		<rect x="-186.9" y="32.5" opacity="0.5" fill="#FFFFFF" enable-background="new    " width="3.3" height="3.3"/>
		<rect x="-183.4" y="32.5" fill="#FFFFFF" width="3.3" height="3.3"/>
		<g>
			
				<circle opacity="0.5" fill="none" stroke="#FFFFFF" stroke-width="0.12" stroke-miterlimit="10" enable-background="new    " cx="-183.1" cy="-15.3" r="2.5"/>
			
				<circle opacity="0.5" fill="none" stroke="#FFFFFF" stroke-width="0.12" stroke-miterlimit="10" enable-background="new    " cx="-187.2" cy="-15.3" r="2.5"/>
		</g>
		
			<polygon opacity="0.5" fill="none" stroke="#FFFFFF" stroke-width="0.12" stroke-miterlimit="10" enable-background="new    " points="
			-185.2,-1.1 -184,1.1 -181.5,1.5 -183.3,3.3 -182.9,5.8 -185.2,4.6 -187.4,5.8 -187,3.3 -188.8,1.5 -186.3,1.1 		"/>
		
			<rect x="-188.2" y="-88.8" opacity="0.46" fill="none" stroke="#FFFFFF" stroke-width="0.12" stroke-miterlimit="10" enable-background="new    " width="6.1" height="6"/>
		
			<rect x="382.8" y="17.1" opacity="0.46" fill="none" stroke="#FFFFFF" stroke-width="0.12" stroke-miterlimit="10" enable-background="new    " width="6.1" height="6"/>
		
			<rect x="384.9" y="20.8" opacity="0.46" fill="none" stroke="#FFFFFF" stroke-width="0.12" stroke-miterlimit="10" enable-background="new    " width="6.1" height="6"/>
		<g>
			
				<rect x="-187.8" y="-36" opacity="0.46" fill="none" stroke="#FFFFFF" stroke-width="0.12" stroke-miterlimit="10" enable-background="new    " width="3.1" height="6"/>
			
				<rect x="-184.1" y="-36" opacity="0.46" fill="none" stroke="#FFFFFF" stroke-width="0.12" stroke-miterlimit="10" enable-background="new    " width="1.6" height="3"/>
		</g>
		
			<polygon opacity="0.46" fill="none" stroke="#FFFFFF" stroke-width="0.12" stroke-miterlimit="10" enable-background="new    " points="
			-188.1,-107.5 -186.2,-101.1 -185.8,-102.4 -184,-99.4 -182.2,-100.6 -184.2,-103.5 -182.5,-103.9 		"/>
		
			<linearGradient id="SVGID_7_" gradientUnits="userSpaceOnUse" x1="1025.3492" y1="391.3984" x2="1189.6858" y2="391.3984" gradientTransform="matrix(0.3135 0 0 -0.3135 0 79.9373)">
			<stop  offset="0" style="stop-color:#EF5B34"/>
			<stop  offset="0.1687" style="stop-color:#E2E238"/>
			<stop  offset="0.3214" style="stop-color:#6BBB4D"/>
			<stop  offset="0.5091" style="stop-color:#00B7E9"/>
			<stop  offset="0.6759" style="stop-color:#4C56A2"/>
			<stop  offset="0.7958" style="stop-color:#C64E9A"/>
			<stop  offset="1" style="stop-color:#EB212E"/>
		</linearGradient>
		<rect x="321.4" y="-45" fill="url(#SVGID_7_)" width="51.5" height="4.4"/>
		<g opacity="0.5">
			<rect x="382.8" y="3.5" fill="none" stroke="#FFFFFF" stroke-width="0.12" stroke-miterlimit="10" width="6" height="0.6"/>
			<rect x="382.8" y="-0.4" fill="none" stroke="#FFFFFF" stroke-width="0.12" stroke-miterlimit="10" width="6" height="0.6"/>
			<rect x="382.8" y="1.6" fill="none" stroke="#FFFFFF" stroke-width="0.12" stroke-miterlimit="10" width="6" height="0.6"/>
		</g>
		<g>
			<g>
				
					<circle opacity="0.5" fill="none" stroke="#FFFFFF" stroke-width="0.12" stroke-miterlimit="10" enable-background="new    " cx="387.9" cy="-13.3" r="2.5"/>
				
					<circle opacity="0.5" fill="none" stroke="#FFFFFF" stroke-width="0.12" stroke-miterlimit="10" enable-background="new    " cx="383.8" cy="-13.3" r="2.5"/>
			</g>
			<path opacity="0.5" fill="none" stroke="#FFFFFF" stroke-width="0.12" stroke-miterlimit="10" enable-background="new    " d="
				M383.3-15.8c0-1.4,1.1-2.5,2.5-2.5c1.4,0,2.5,1.1,2.5,2.5"/>
		</g>
		<g opacity="0.6">
			<rect x="384.3" y="-36.1" fill="#FFFFFF" width="4.2" height="5.8"/>
			<rect x="386" y="-40.1" fill="#FFFFFF" width="0.6" height="5.8"/>
			
				<rect x="384.7" y="-38.5" transform="matrix(-0.9608 0.2774 -0.2774 -0.9608 745.3681 -177.6142)" fill="#FFFFFF" width="1.1" height="4.9"/>
			
				<rect x="387.5" y="-39.8" transform="matrix(-0.985 -0.1727 0.1727 -0.985 776.0225 -5.8825)" fill="#FFFFFF" width="0.6" height="6.3"/>
		</g>
		<g>
			
				<polygon opacity="0.46" fill="none" stroke="#FFFFFF" stroke-width="0.12" stroke-miterlimit="10" enable-background="new    " points="
				382.9,-54.2 382.9,-60.3 386.3,-62.9 386.3,-56.8 			"/>
			
				<rect x="387.7" y="-64.7" opacity="0.5" fill="none" stroke="#FFFFFF" stroke-width="0.12" stroke-miterlimit="10" enable-background="new    " width="1.2" height="10.3"/>
		</g>
		<path opacity="0.46" fill="#FFFFFF" enable-background="new    " d="M382.2-74.1h6.4h1.1c0,0,0.7-1.1-0.5-3.9
			c-1.2-2.8-4.7-3.9-4.7-3.9L382.2-74.1l6.1-3.9c0,0,0,0.9,0.3,1.7C388.9-75.5,382.2-74.1,382.2-74.1z"/>
		
			<text transform="matrix(1 0 0 1 381.7741 -90.289)" opacity="0.5" fill="#FFFFFF" enable-background="new    " font-family="'Georgia-Italic'" font-size="11.2063">O</text>
		<g>
			
				<text transform="matrix(1 0 0 1 381.7741 -105.8222)" opacity="0.5" fill="#FFFFFF" enable-background="new    " font-family="'Georgia'" font-size="11.2063">A</text>
			<g>
				<rect x="387.1" y="-114.4" fill="#717273" width="1.8" height="8.6"/>
				<rect x="387.1" y="-114.4" fill="#717273" width="3.8" height="0.8"/>
			</g>
			
				<line opacity="0.5" fill="none" stroke="#FFFFFF" stroke-width="0.12" stroke-miterlimit="10" enable-background="new    " x1="389.8" y1="-112.8" x2="389.8" y2="-105.8"/>
		</g>
	</g>
	<rect x="-68.4" y="-79.1" fill="#7DCCC9" width="332.9" height="188.5"/>
	<text transform="matrix(1 0 0 1 17.5241 -42.039)" fill="#FFFFFF" font-family="'AzoSans-Bold'" font-size="10.7693">Hi there !  I’m Arpit Soni </text>
	<text transform="matrix(1 0 0 1 46.7976 -28.8046)" fill="#FFFFFF" font-family="'AzoSans-Regular'" font-size="8.0843">I’m a Web Designer and Developer</text>
	<text transform="matrix(1 0 0 1 53.0984 -20.4022)" fill="#FFFFFF" font-family="'AzoSans-Regular'" font-size="8.0843">with overflowing ideas</text>
	<polyline fill="#DBC89B" points="214.6,106.5 -23.9,106.5 -23.9,103.6 214.6,103.6 	"/>
	<polygon fill="#E6DBC3" points="214.6,103.5 -23.9,103.5 -6.3,75.5 197.6,75.5 	"/>
	<g>
		<g>
			<g>
				<path fill="#0E263A" d="M137,66.7c0,0.6-0.5,1-1,1H55.5c-0.6,0-1-0.5-1-1v-54c0-0.6,0.5-1,1-1H136c0.6,0,1,0.5,1,1V66.7z"/>
				<g>
					<g>
						<path id="SVGID_6_" fill="#BFC6C9" d="M137,67.4c0,0.6-0.5,1-1,1H55.6c-0.6,0-1-0.5-1-1v-3.6c0-0.6,81.8-0.4,82.4-0.4v4H137z"
							/>
					</g>
					<g>
						<defs>
							<path id="SVGID_8_" d="M137,67.4c0,0.6-0.5,1-1,1H55.6c-0.6,0-1-0.5-1-1v-3.6c0-0.6,81.8-0.4,82.4-0.4v4H137z"/>
						</defs>
						<clipPath id="SVGID_9_">
							<use xlink:href="#SVGID_8_"  overflow="visible"/>
						</clipPath>
						<rect x="52.1" y="61.3" clip-path="url(#SVGID_9_)" fill="#BFC6C9" width="93.1" height="7.8"/>
					</g>
				</g>
				<g>
					<g>
						<defs>
							<path id="SVGID_10_" d="M137,66.6c0,0.6-0.5,1.4-1.2,1.4H55.4c-0.6,0-1-0.5-1-1V12.9c0-0.6,0.5-1,1-1h80.3c0.6,0,1,0.5,1,1
								L137,66.6z"/>
						</defs>
						<clipPath id="SVGID_11_">
							<use xlink:href="#SVGID_10_"  overflow="visible"/>
						</clipPath>
						<rect x="52" y="60.8" clip-path="url(#SVGID_11_)" fill="#E9EDED" width="93.1" height="7.8"/>
					</g>
				</g>
				<rect x="57.6" y="14.7" fill="#5C5F61" width="76.1" height="43.4"/>
				<g>
					<path fill="#BFC6C9" d="M107.9,79.1c-0.4-0.2-2.7-1.3-3-2.2c-0.2-0.7-0.9-8.8-0.9-8.8h-8.2h-8.2c0,0-0.7,8.1-0.9,8.8
						c-0.3,0.9-2.7,1.9-3,2.2c-0.1,0.1-0.1,0.3,0.1,0.5h24.1C108,79.4,108.1,79.2,107.9,79.1z"/>
				</g>
				<rect x="83.7" y="79.1" fill="#E9EDED" width="24.2" height="0.5"/>
				<polygon fill="#E9EDED" points="87.5,68.7 104.1,68.7 104.9,76.9 86.7,76.9 				"/>
			</g>
			<path fill="#0E263A" d="M97.4,64.9c-0.1,0-0.1,0-0.2,0.1c-0.1,0-0.2,0-0.2,0c-0.2,0-0.3,0-0.3-0.1c-0.1-0.1-0.1-0.2-0.1-0.3v-0.9
				h0.8v-0.6h-0.8l0,0v-0.6l-0.7,0.3l0,0V64c-0.1-0.1-0.1-0.1-0.2-0.2c-0.1-0.1-0.1-0.2-0.2-0.2c-0.1-0.1-0.1-0.2-0.2-0.2
				c-0.1-0.1-0.1-0.1-0.1-0.2l-0.6,0.3c0.1,0.1,0.2,0.2,0.2,0.3c0.2,0.2,0.3,0.3,0.5,0.5c-0.1,0.1-0.2,0.2-0.3,0.3
				c-0.1,0.1-0.2,0.2-0.3,0.4c-0.1,0.1-0.2,0.2-0.3,0.4c-0.1,0.1-0.1,0.2-0.2,0.3H95c0-0.1,0.1-0.2,0.2-0.3c0.1-0.1,0.1-0.2,0.2-0.3
				s0.1-0.2,0.2-0.3s0.2-0.2,0.2-0.2l0,0l0,0c0,0.2,0,0.3,0,0.4c0,0.1,0.1,0.2,0.2,0.3c0.1,0.1,0.2,0.2,0.3,0.2c0.1,0,0.1,0,0.2,0.1
				c0.1,0,0.2,0,0.3,0c0.1,0,0.3,0,0.4,0s0.2-0.1,0.3-0.1L97.4,64.9z"/>
		</g>
		<rect x="57.6" y="14.1" fill="#35383A" width="76.1" height="2.7"/>
		<rect x="61.7" y="15.1" fill="#BABEBF" width="3.3" height="0.7"/>
		<rect x="65.8" y="15.1" opacity="0.55" fill="#BABEBF" enable-background="new    " width="3.3" height="0.7"/>
		<rect x="79" y="15.1" fill="#BABEBF" width="2.2" height="0.7"/>
		<rect x="82.3" y="15.1" fill="#BABEBF" width="2.2" height="0.7"/>
		<rect x="85.5" y="15.1" fill="#BABEBF" width="2.2" height="0.7"/>
		<rect x="88.6" y="15.1" fill="#BABEBF" width="2.2" height="0.7"/>
		<rect x="129.5" y="14.9" fill="#BABEBF" width="3.7" height="0.4"/>
		<rect x="57.8" y="17.9" fill="#35383A" width="1.9" height="20.3"/>
		<rect x="131.8" y="17.1" fill="#35383A" width="1.9" height="20.3"/>
		<rect x="123.8" y="26.4" fill="#35383A" width="8" height="1.7"/>
		<rect x="131.8" y="17.1" fill="#262728" width="1.9" height="0.5"/>
		
			<text transform="matrix(1 0 0 1 58.3781 24.3028)" opacity="0.39" fill="#FFFFFF" enable-background="new    " font-family="'Georgia'" font-size="1.4499">T</text>
		
			<line opacity="0.5" fill="none" stroke="#FFFFFF" stroke-width="0.25" stroke-miterlimit="10" enable-background="new    " x1="58.3" y1="26.7" x2="59.3" y2="25.8"/>
		<rect x="58.6" y="35.5" fill="none" stroke="#FFFFFF" stroke-width="0.25" stroke-miterlimit="10" width="0.7" height="0.7"/>
		<rect x="58.1" y="34.9" fill="#76CAC8" width="0.9" height="0.9"/>
		<rect x="58.1" y="37" fill="#76CAC8" width="0.4" height="0.4"/>
		<rect x="58.6" y="37" opacity="0.5" fill="#FFFFFF" enable-background="new    " width="0.4" height="0.4"/>
		<rect x="59" y="37" fill="#FFFFFF" width="0.4" height="0.4"/>
		<g>
			
				<circle opacity="0.5" fill="none" stroke="#FFFFFF" stroke-width="0.12" stroke-miterlimit="10" enable-background="new    " cx="59" cy="30.8" r="0.3"/>
			
				<circle opacity="0.5" fill="none" stroke="#FFFFFF" stroke-width="0.12" stroke-miterlimit="10" enable-background="new    " cx="58.5" cy="30.8" r="0.3"/>
		</g>
		
			<polygon opacity="0.5" fill="none" stroke="#FFFFFF" stroke-width="0.12" stroke-miterlimit="10" enable-background="new    " points="
			58.8,32.6 58.9,32.9 59.3,33 59,33.2 59.1,33.5 58.8,33.4 58.5,33.5 58.5,33.2 58.3,33 58.6,32.9 		"/>
		
			<rect x="58.4" y="21.3" opacity="0.46" fill="none" stroke="#FFFFFF" stroke-width="0.12" stroke-miterlimit="10" enable-background="new    " width="0.8" height="0.8"/>
		
			<rect x="132.4" y="35" opacity="0.46" fill="none" stroke="#FFFFFF" stroke-width="0.12" stroke-miterlimit="10" enable-background="new    " width="0.8" height="0.8"/>
		
			<rect x="132.6" y="35.5" opacity="0.46" fill="none" stroke="#FFFFFF" stroke-width="0.12" stroke-miterlimit="10" enable-background="new    " width="0.8" height="0.8"/>
		<g>
			
				<rect x="58.4" y="28.1" opacity="0.46" fill="none" stroke="#FFFFFF" stroke-width="0.12" stroke-miterlimit="10" enable-background="new    " width="0.4" height="0.8"/>
			
				<rect x="58.9" y="28.1" opacity="0.46" fill="none" stroke="#FFFFFF" stroke-width="0.12" stroke-miterlimit="10" enable-background="new    " width="0.2" height="0.4"/>
		</g>
		
			<polygon opacity="0.46" fill="none" stroke="#FFFFFF" stroke-width="0.12" stroke-miterlimit="10" enable-background="new    " points="
			58.4,18.9 58.6,19.7 58.7,19.5 58.9,19.9 59.2,19.8 58.9,19.4 59.1,19.3 		"/>
		
			<linearGradient id="SVGID_12_" gradientUnits="userSpaceOnUse" x1="396.7633" y1="168.3475" x2="418.0058" y2="168.3475" gradientTransform="matrix(0.3135 0 0 -0.3135 0 79.9373)">
			<stop  offset="0" style="stop-color:#EF5B34"/>
			<stop  offset="0.1687" style="stop-color:#E2E238"/>
			<stop  offset="0.3214" style="stop-color:#6BBB4D"/>
			<stop  offset="0.5091" style="stop-color:#00B7E9"/>
			<stop  offset="0.6759" style="stop-color:#4C56A2"/>
			<stop  offset="0.7958" style="stop-color:#C64E9A"/>
			<stop  offset="1" style="stop-color:#EB212E"/>
		</linearGradient>
		<rect x="124.4" y="26.9" fill="url(#SVGID_12_)" width="6.7" height="0.6"/>
		<g opacity="0.5">
			<rect x="132.4" y="33.2" fill="none" stroke="#FFFFFF" stroke-width="0.12" stroke-miterlimit="10" width="0.8" height="0.1"/>
			<rect x="132.4" y="32.7" fill="none" stroke="#FFFFFF" stroke-width="0.12" stroke-miterlimit="10" width="0.8" height="0.1"/>
			<rect x="132.4" y="33" fill="none" stroke="#FFFFFF" stroke-width="0.12" stroke-miterlimit="10" width="0.8" height="0.1"/>
		</g>
		<g>
			<g>
				
					<circle opacity="0.5" fill="none" stroke="#FFFFFF" stroke-width="0.12" stroke-miterlimit="10" enable-background="new    " cx="133" cy="31" r="0.3"/>
				
					<circle opacity="0.5" fill="none" stroke="#FFFFFF" stroke-width="0.12" stroke-miterlimit="10" enable-background="new    " cx="132.5" cy="31" r="0.3"/>
			</g>
			<path opacity="0.5" fill="none" stroke="#FFFFFF" stroke-width="0.12" stroke-miterlimit="10" enable-background="new    " d="
				M132.4,30.7c0-0.2,0.1-0.3,0.3-0.3c0.2,0,0.3,0.1,0.3,0.3"/>
		</g>
		<g opacity="0.6">
			<rect x="132.5" y="28.1" fill="#FFFFFF" width="0.5" height="0.8"/>
			<rect x="132.8" y="27.6" fill="#FFFFFF" width="0.1" height="0.7"/>
			
				<rect x="132.5" y="27.8" transform="matrix(-0.9608 0.2774 -0.2774 -0.9608 267.7724 18.2648)" fill="#FFFFFF" width="0.1" height="0.6"/>
			
				<rect x="132.9" y="27.6" transform="matrix(-0.985 -0.1727 0.1727 -0.985 259.0265 78.4679)" fill="#FFFFFF" width="0.1" height="0.8"/>
		</g>
		<g>
			
				<polygon opacity="0.46" fill="none" stroke="#FFFFFF" stroke-width="0.12" stroke-miterlimit="10" enable-background="new    " points="
				132.4,25.8 132.4,25 132.8,24.6 132.8,25.4 			"/>
			
				<rect x="133" y="24.4" opacity="0.5" fill="none" stroke="#FFFFFF" stroke-width="0.12" stroke-miterlimit="10" enable-background="new    " width="0.2" height="1.3"/>
		</g>
		<path opacity="0.46" fill="#FFFFFF" enable-background="new    " d="M132.3,23.2h0.8h0.1c0,0,0.1-0.1-0.1-0.5s-0.6-0.5-0.6-0.5
			L132.3,23.2l0.8-0.5c0,0,0,0.1,0,0.2C133.1,23,132.3,23.2,132.3,23.2z"/>
		
			<text transform="matrix(1 0 0 1 132.1784 21.0489)" opacity="0.5" fill="#FFFFFF" enable-background="new    " font-family="'Georgia-Italic'" font-size="1.4499">O</text>
		<g>
			
				<text transform="matrix(1 0 0 1 132.1784 19.0411)" opacity="0.5" fill="#FFFFFF" enable-background="new    " font-family="'Georgia'" font-size="1.4499">A</text>
			<g>
				<rect x="132.9" y="18" fill="#717273" width="0.2" height="1.1"/>
				<rect x="132.9" y="18" fill="#717273" width="0.5" height="0.1"/>
			</g>
			
				<line opacity="0.5" fill="none" stroke="#FFFFFF" stroke-width="0.12" stroke-miterlimit="10" enable-background="new    " x1="133.3" y1="18.2" x2="133.3" y2="19.1"/>
		</g>
	</g>
	<g>
		<polygon fill="#F4F4F4" points="49.4,85.2 48.7,81.5 46.2,82.8 46.5,83.8 42.7,82.5 42.7,84.1 42.7,86.1 43.9,88.3 45.1,88.3 
			46.3,89.5 48.7,89.1 48.5,87.8 49.9,86.8 		"/>
		<path fill="#E8E8E8" d="M45.8,83.6l-0.4,1.8l1.1,1.2l-1,1.9L44,88.3c0,0-1.1-2-1.1-2.2s-0.1-3.7,0-3.6
			C42.8,82.5,45.8,83.6,45.8,83.6z"/>
		<path fill="#E9EDED" d="M48.3,86.9l-1-1.5l1.3-0.8l-2.5-0.2c0,0-0.5,1.1,0,1.3c0.5,0.1,1.2,1.6,1.2,1.6L48.3,86.9z"/>
		<polygon fill="#E0E0E0" points="45.4,84.3 45,84.8 44.3,85 43.8,85.9 43.3,85.1 44.1,84.6 44.6,84.7 		"/>
		<path fill="#E9EDED" d="M49.3,85.8c0,0.1,0.4,1,0.4,0.9c-0.1,0-0.7-0.2-0.7-0.2l-0.6,0.3l0.7-0.7l0.2,0.1V85.8z"/>
		<path fill="#E9EDED" d="M46.8,83l1.3-0.8L48,82.9l-0.7,0.3l-0.7,0.9L46.8,83z"/>
		<path fill="#E0E0E0" d="M43.8,83.1c0,0,0.9,0.4,0.8,0.4s-0.5,0.4-0.5,0.4L43.5,84L43,84.6L43.8,83.1z"/>
		<path fill="#E0E0E0" d="M45.9,85.9c-0.1,0,0.1,0.9,0.1,0.9l-0.6,0.5c0,0.1-0.3,0.4-0.3,0.4c0-0.1,0.2-0.7,0.3-0.7s0.4-0.2,0.4-0.3
			C45.7,86.7,45.9,85.9,45.9,85.9z"/>
	</g>
	<path fill="#FFFFFF" d="M97.8,37.1c-0.1,0-0.2,0.1-0.3,0.1c-0.1,0-0.2,0-0.4,0c-0.2,0-0.4-0.1-0.5-0.2c-0.1-0.1-0.1-0.3-0.1-0.5
		v-1.4h1.3v-0.9h-1.3l0,0v-1l-1.1,0.5l0,0v1.9c-0.1-0.1-0.2-0.2-0.3-0.4c-0.1-0.1-0.2-0.2-0.3-0.4c-0.1-0.1-0.2-0.2-0.3-0.4
		c-0.1-0.1-0.2-0.2-0.2-0.3l-0.9,0.4c0.1,0.1,0.2,0.3,0.4,0.4c0.2,0.3,0.5,0.5,0.8,0.8c-0.1,0.1-0.3,0.3-0.5,0.5
		c-0.2,0.2-0.3,0.4-0.5,0.6c-0.1,0.2-0.3,0.4-0.4,0.6c-0.1,0.2-0.2,0.4-0.3,0.5h1.2c0.1-0.1,0.2-0.3,0.3-0.4
		c0.1-0.2,0.2-0.3,0.3-0.5c0.1-0.2,0.2-0.3,0.4-0.4c0.1-0.1,0.2-0.3,0.4-0.4l0,0l0,0c0,0.2,0,0.5,0.1,0.7c0,0.2,0.1,0.4,0.2,0.5
		s0.3,0.3,0.5,0.3c0.1,0,0.2,0.1,0.3,0.1c0.1,0,0.3,0,0.4,0c0.2,0,0.4,0,0.6-0.1c0.2,0,0.3-0.1,0.4-0.1L97.8,37.1z"/>
	<g>
		<path fill="#FFFFFF" d="M92.9,38.5L92.9,38.5L92.9,38.5l-0.1-0.1h0.1c0,0,0.1,0,0.1,0.1v0.4l0,0c0,0,0,0,0.1,0l0.1-0.2h0.1
			l-0.1,0.2l0,0l0,0l0,0l0.1,0.1l0,0l0,0v0.1h-0.1c-0.1,0-0.1,0-0.1-0.1L93,38.8c0,0,0,0-0.1,0l0,0v0.3h-0.1v-0.6H92.9z"/>
		<path fill="#FFFFFF" d="M93.7,38.6c0.2,0,0.2,0.1,0.2,0.3l0,0h-0.4c0,0.1,0.1,0.2,0.2,0.2s0.2-0.1,0.2-0.1v0.1
			c0,0-0.1,0.1-0.2,0.1c-0.2,0-0.3-0.1-0.3-0.3C93.4,38.7,93.5,38.6,93.7,38.6z M93.8,38.8c0-0.1-0.1-0.1-0.1-0.1
			c-0.1,0-0.1,0-0.2,0.1H93.8z"/>
		<path fill="#FFFFFF" d="M94,38.7L94,38.7L94,38.7v-0.1h0.1C94,38.6,94,38.6,94,38.7l0.2,0.3v0.1l0,0c0,0,0,0,0-0.1l0.1-0.3
			c0,0,0-0.1,0.1-0.1h0.1v0.1l0,0l0,0l-0.2,0.4h-0.1L94,38.7z"/>
		<path fill="#FFFFFF" d="M94.6,38.7C94.6,38.7,94.5,38.7,94.6,38.7L94.6,38.7l-0.1-0.1h0.1c0,0,0.1,0,0.1,0.1v0.4l0,0l0,0v0.1h-0.1
			c0,0-0.1,0-0.1-0.1v-0.4H94.6z M94.6,38.4L94.6,38.4l0.1,0.1h-0.1V38.4z"/>
		<path fill="#FFFFFF" d="M94.8,38.7L94.8,38.7L94.8,38.7l-0.1-0.1h0.1c0,0,0.1,0,0.1,0.1l0,0C94.9,38.7,94.9,38.7,94.8,38.7h0.1
			c0,0,0.1-0.1,0.2-0.1s0.2,0.1,0.2,0.2V39l0,0l0,0v0.1h-0.1c0,0-0.1,0-0.1-0.1v-0.3c0-0.1,0-0.1-0.1-0.1S94.9,38.7,94.8,38.7
			c0,0,0,0,0,0.1v0.3h-0.1v-0.4H94.8z"/>
		<path fill="#FFFFFF" d="M95.5,38.7L95.5,38.7L95.5,38.7L95.5,38.7v-0.2l0,0V38.7h0.2l0,0H95.5V39c0,0.1,0.1,0.2,0.1,0.2l0,0l0,0
			l0,0c-0.1,0-0.2,0-0.2-0.2v-0.3H95.5z"/>
		<path fill="#FFFFFF" d="M95.8,38.7L95.8,38.7L95.8,38.7L95.8,38.7L95.8,38.7C95.8,38.6,95.8,38.7,95.8,38.7L95.8,38.7
			C95.8,38.8,95.8,38.8,95.8,38.7L95.8,38.7c0.1,0,0.1-0.1,0.2-0.1l0,0l0,0l0,0C95.9,38.6,95.9,38.7,95.8,38.7v0.1V39l0,0V38.7z"/>
		<path fill="#FFFFFF" d="M96.3,38.6c0.1,0,0.2,0.1,0.2,0.2l0,0h-0.4c0,0.2,0.1,0.2,0.2,0.2s0.2-0.1,0.2-0.1l0,0
			c0,0-0.1,0.1-0.2,0.1c-0.2,0-0.3-0.1-0.3-0.3C96,38.7,96.2,38.6,96.3,38.6z M96.5,38.9c0-0.1-0.1-0.2-0.2-0.2s-0.2,0.1-0.2,0.2
			H96.5z"/>
		<path fill="#FFFFFF" d="M96.6,39.1c0,0,0.1,0.1,0.2,0.1s0.1,0,0.1-0.1c0-0.1-0.3-0.1-0.3-0.3c0-0.1,0.1-0.1,0.2-0.1
			c0,0,0.2,0,0.2,0.1l0,0l0,0l0,0l-0.1-0.1c-0.1,0-0.1,0-0.1,0.1s0.3,0.1,0.3,0.3c0,0.1-0.1,0.1-0.2,0.1
			C96.6,39.2,96.6,39.1,96.6,39.1L96.6,39.1z"/>
		<path fill="#FFFFFF" d="M97.3,38.6c0.2,0,0.3,0.1,0.3,0.3s-0.1,0.3-0.3,0.3c-0.2,0-0.3-0.1-0.3-0.3C97,38.7,97.1,38.6,97.3,38.6z
			 M97.3,39.1c0.1,0,0.2-0.1,0.2-0.2c0-0.1-0.1-0.2-0.2-0.2s-0.2,0.1-0.2,0.2C97.1,39,97.2,39.1,97.3,39.1z"/>
		<path fill="#FFFFFF" d="M97.7,38.7L97.7,38.7L97.7,38.7L97.7,38.7L97.7,38.7C97.7,38.6,97.7,38.7,97.7,38.7L97.7,38.7
			C97.7,38.8,97.7,38.8,97.7,38.7L97.7,38.7c0.1,0,0.1-0.1,0.2-0.1l0,0l0,0l0,0C97.8,38.6,97.8,38.7,97.7,38.7v0.1V39l0,0V38.7z"/>
	</g>
	<path fill="none" d="M174.9,87.6c0.4,0.5,0.8,1,1.3,1.4c0.1,0.1,0.2,0.3,0.3,0.4c0.5,0.6,1,1.1,1.5,1.7"/>
	<polygon fill="#E9EDED" points="137.6,91.2 120.7,91.2 123,83.4 135.9,83.4 	"/>
	<polygon fill="#F4F4F4" points="136.2,84.6 122.7,84.6 123,83.4 135.9,83.4 	"/>
	<rect x="120.8" y="91.2" fill="#BFC6C9" width="16.8" height="0.4"/>
	<path opacity="0.46" fill="#D3C9B6" enable-background="new    " d="M157.1,91.2c0.7,0,4.8,6.8,4.8,6.8s9-3.1,10-3.4
		c1-0.3,2.2,0,5.3-0.5c3.1-0.5,16.3-0.3,14.8-0.7c-1.5-0.4-15.1-5.9-15.1-5.9L157.1,91.2z"/>
	<g>
		<path fill="#FFFFFF" d="M156.1,89.6l6.3,7.1c0,0,9.5-4.4,10.5-4.6c1-0.2,19.4,0.5,19.2,0c-0.2-0.5-14.6-6.8-14.6-6.8l-12.6,1.4
			L156.1,89.6z"/>
		<path fill="none" stroke="#808285" stroke-miterlimit="10" d="M175,87.3c0.9-0.3,2,0,2.6,0.9c0.3,0.4,0.4,1,0.7,1.4
			c0.3,0.5,0.8,0.8,1.3,0.6"/>
		<path fill="none" stroke="#808285" stroke-miterlimit="10" d="M174.5,89.5c-1.2-0.9-2.5-1.6-3.9-2.1"/>
		<path fill="none" stroke="#808285" stroke-miterlimit="10" d="M165.6,90.2c-0.5,0.2-1.1-0.3-1.1-0.9c-0.2-3.9,7.5,0.1,8.5,1.1
			c-0.6,0.2-1.2,0.4-1.7,0.6c-0.2-0.5-0.4-1-0.5-1.4c0.2,0,0.5,0,0.7-0.2"/>
		<path fill="none" stroke="#808285" stroke-miterlimit="10" d="M176.5,90c-1.1-0.9-2.2-1.7-3.3-2.6c0.4-0.2,0.7-0.3,1.1-0.5"/>
		<path fill="none" stroke="#808285" stroke-miterlimit="10" d="M169.9,90c0.1-0.6-0.2-1.4-0.8-1.5c-0.6-0.1-1.2,0.4-1.8,0.6
			c-0.2,0-0.4,0-0.5,0.1c-0.4,0.2-0.4,0.7-0.3,1.1c0.3,0.7,1.1,1.2,1.8,1.1S169.7,90.8,169.9,90z"/>
		<path fill="none" stroke="#808285" stroke-miterlimit="10" d="M162.1,88.7c0.9,0,1.7,0.4,2.3,1.1c0.5,0.7,0.6,1.7,0.1,2.4
			c0.1,0,0.2,0.2,0.1,0.3c-1.4,0.4-3-0.3-3.7-1.5c-0.3-0.6-0.4-1.5,0.1-1.9C161.4,88.7,161.8,88.7,162.1,88.7z"/>
		<path fill="none" stroke="#808285" stroke-miterlimit="10" d="M165.6,93.4c0.1,0.1-0.2,0.1-0.1,0c0-0.1,0.2-0.1,0.3-0.1
			c0.7,0,1.2-1.1,1.7-0.8c0.1,0.1,0,0.4-0.2,0.3c-0.2,0-0.3-0.2-0.3-0.4c0.7,0,1.5,0,2.2,0"/>
		<path fill="none" stroke="#808285" stroke-miterlimit="10" d="M177.7,86.9c1.8,0.5,3.4,1.3,5,2.3"/>
	</g>
	<g>
		<path fill="#EE8185" d="M148.4,96.8c-0.2,0.1-0.3,0.3-0.2,0.5v0.1c0.1,0.2,0.3,0.3,0.5,0.2l0.7-0.2c0.2-0.1,0.3-0.3,0.2-0.5v-0.1
			c-0.1-0.2-0.3-0.3-0.5-0.2L148.4,96.8z"/>
		
			<rect x="156.1" y="87.4" transform="matrix(0.3225 0.9466 -0.9466 0.3225 195.3502 -83.8493)" fill="#FBB02A" width="0.3" height="14.3"/>
		
			<rect x="156" y="87.1" transform="matrix(0.3227 0.9465 -0.9465 0.3227 194.9592 -83.9301)" fill="#F9A11B" width="0.3" height="14.3"/>
		
			<rect x="156.2" y="87.7" transform="matrix(0.3226 0.9465 -0.9465 0.3226 195.6817 -83.7213)" fill="#F8D506" width="0.3" height="14.3"/>
		<polygon fill="#FCF0CC" points="162.9,91.8 164.8,91.6 163.2,92.7 		"/>
		<path fill="#603813" d="M164.1,92.1l0.7-0.4l-0.8,0.1c0,0.1,0,0.1,0,0.2C164.1,92,164.1,92,164.1,92.1z"/>
		
			<rect x="149" y="96.8" transform="matrix(0.3226 0.9465 -0.9465 0.3226 192.9666 -75.7528)" fill="#686969" width="0.9" height="0.2"/>
		
			<rect x="148.8" y="96.8" transform="matrix(0.3226 0.9465 -0.9465 0.3226 192.801 -75.5904)" fill="#7D7D7D" width="0.9" height="0.2"/>
		
			<rect x="148.5" y="96.9" transform="matrix(0.3226 0.9465 -0.9465 0.3226 192.7518 -75.3134)" fill="#686969" width="0.9" height="0.2"/>
	</g>
	<g>
		<polygon fill="#F4F4F4" points="180.5,91.4 183,88 184.8,90.6 184,91.4 188.4,91.9 187.6,93.5 186.6,95.5 184.4,97.1 183.2,96.5 
			181.4,97.1 179.2,95.5 180.1,94.3 179.2,92.6 		"/>
		<path fill="#E8E8E8" d="M184.8,91.5l-0.5,2l-1.6,0.7l0.1,2.4l1.6,0.5c0,0,2.1-1.4,2.2-1.6c0.1-0.1,1.9-3.6,1.8-3.6
			S184.8,91.5,184.8,91.5z"/>
		<path fill="#E9EDED" d="M180.8,93.6l1.7-1l-0.8-1.4l2.5,1c0,0,0,1.4-0.6,1.3c-0.6-0.1-1.9,1.1-1.9,1.1L180.8,93.6z"/>
		<polygon fill="#E0E0E0" points="184.8,92.3 185,93.1 185.6,93.7 185.6,94.8 186.5,94.2 186,93.3 185.4,93.2 		"/>
		<path fill="#E9EDED" d="M180.3,92c-0.1,0.1-0.9,0.7-0.8,0.7s0.8,0.2,0.8,0.2l0.4,0.6l-0.4-1H180L180.3,92z"/>
		<path fill="#E9EDED" d="M184.1,90.5l-0.9-1.5l-0.2,0.7l0.6,0.6c0,0,0.2,1.3,0.2,1.2L184.1,90.5z"/>
		<path fill="#E0E0E0" d="M187,92c0,0-1.1,0-1,0s0.3,0.6,0.3,0.6l0.6,0.4l0.3,0.8L187,92z"/>
		<path fill="#E0E0E0" d="M183.6,93.8c0.1,0.1-0.6,0.8-0.6,0.8l0.4,0.8c0,0.1,0.1,0.6,0.1,0.5s0.1-0.8,0.1-0.8s-0.3-0.4-0.3-0.5
			C183.4,94.6,183.6,93.8,183.6,93.8z"/>
	</g>
	<g>
		<rect x="12.2" y="71.2" fill="#253545" width="19.5" height="4.8"/>
		<path fill="#253545" d="M31.7,70.1c0,0.5-0.4,0.9-0.8,0.9h-18c-0.5,0-0.8-0.4-0.8-0.9V47.7c0-0.5,0.4-0.9,0.8-0.9h18
			c0.5,0,0.8,0.4,0.8,0.9V70.1z"/>
		<path opacity="0.1" fill="#FFFFFF" enable-background="new    " d="M31.2,69.5c0,0.5-0.3,0.8-0.8,0.8H13.5c-0.4,0-0.8-0.4-0.8-0.8
			V48.4c0-0.5,0.3-0.8,0.8-0.8h16.9c0.4,0,0.8,0.4,0.8,0.8V69.5z"/>
		<g>
			<circle fill="#D7D9D8" cx="21.9" cy="62.1" r="7.2"/>
			<ellipse fill="#D7D9D8" cx="21.9" cy="50.5" rx="4" ry="2.6"/>
			<circle cx="21.9" cy="50.4" r="1.7"/>
			<circle cx="21.9" cy="62.1" r="5.7"/>
			<circle fill="#1A1A1A" cx="18.7" cy="50.5" r="0.4"/>
			<circle fill="#1A1A1A" cx="25.3" cy="50.5" r="0.4"/>
			<circle fill="#1A1A1A" cx="18.3" cy="56.8" r="0.4"/>
			<circle fill="#1A1A1A" cx="25.9" cy="56.8" r="0.4"/>
			<circle fill="#1A1A1A" cx="17.9" cy="67.1" r="0.4"/>
			<circle fill="#1A1A1A" cx="25.9" cy="67.1" r="0.4"/>
			<circle cx="21.9" cy="62.1" r="5.7"/>
		</g>
		<g>
			<circle fill="#0E202E" cx="14.7" cy="68.2" r="1.1"/>
			<circle fill="#253545" cx="14.7" cy="68.2" r="0.6"/>
		</g>
		<circle stroke="#C1C3C3" stroke-width="0.5" stroke-miterlimit="3.8637" cx="28.2" cy="68.4" r="0.3"/>
		<circle stroke="#C1C3C3" stroke-width="0.5" stroke-miterlimit="3.8637" cx="29.8" cy="68.4" r="0.3"/>
	</g>
	<g>
		<rect x="161.1" y="73.5" fill="#253545" width="19.5" height="4.8"/>
		<path fill="#253545" d="M180.7,72.5c0,0.5-0.4,0.9-0.8,0.9h-18c-0.5,0-0.8-0.4-0.8-0.9V50c0-0.5,0.4-0.9,0.8-0.9h18
			c0.5,0,0.8,0.4,0.8,0.9V72.5z"/>
		<path opacity="0.1" fill="#FFFFFF" enable-background="new    " d="M180.1,71.8c0,0.5-0.3,0.8-0.8,0.8h-16.9
			c-0.4,0-0.8-0.4-0.8-0.8V50.7c0-0.5,0.3-0.8,0.8-0.8h16.9c0.4,0,0.8,0.4,0.8,0.8V71.8z"/>
		<g>
			<circle fill="#D7D9D8" cx="170.9" cy="64.4" r="7.2"/>
			<ellipse fill="#D7D9D8" cx="170.8" cy="52.8" rx="4" ry="2.6"/>
			<circle cx="170.8" cy="52.7" r="1.7"/>
			<circle cx="170.9" cy="64.4" r="5.7"/>
			<circle fill="#1A1A1A" cx="167.6" cy="52.8" r="0.4"/>
			<circle fill="#1A1A1A" cx="174.3" cy="52.8" r="0.4"/>
			<circle fill="#1A1A1A" cx="167.2" cy="59.1" r="0.4"/>
			<circle fill="#1A1A1A" cx="174.9" cy="59.1" r="0.4"/>
			<circle fill="#1A1A1A" cx="166.8" cy="69.5" r="0.4"/>
			<circle fill="#1A1A1A" cx="174.9" cy="69.5" r="0.4"/>
			<circle cx="170.9" cy="64.4" r="5.7"/>
		</g>
	</g>
	<g>
		<g>
			<polygon fill="#303030" points="1.5,87.6 10.8,103.3 24.9,99.1 25.2,99.4 25.8,99.2 26,98.8 38.1,94.1 23.5,80 			"/>
			<polygon fill="#D3D3D3" points="1.7,87.2 11.1,102.9 25.2,98.6 25.5,99 25.6,98.9 14.6,83.7 			"/>
			<polygon fill="#C6C6C6" points="12.4,84.2 25.4,98.6 25.6,98.9 25.8,98.4 26.2,98.3 37.4,93.8 26,79.4 			"/>
			<polygon fill="#DDDDDD" points="1.9,86.8 11.4,102.6 25.7,98.2 14.8,83.3 			"/>
			<polygon fill="#DDDDDD" points="14.5,83.3 25.5,98.4 37.3,93.3 25.5,79.1 			"/>
			<polygon fill="#F2F2F2" points="2.1,86.3 11.3,102.3 25.5,98.4 15,83 			"/>
			<polygon fill="#E8E8E8" points="14.5,83.3 25.1,76 37.5,90.1 25.5,98.4 			"/>
			<polygon fill="#565656" points="1.5,87.8 1.5,87.6 10.8,103.1 10.8,103.3 			"/>
			<polyline fill="#444443" points="10.8,103.3 25,99.2 24.9,99.1 10.8,103.1 			"/>
			<polyline fill="#444443" points="38.1,94.1 26,98.8 26,98.8 38.1,94.3 			"/>
			<path fill="#B5B5B5" d="M30.9,99.5"/>
			<path fill="none" d="M5.1,87.4c-0.1,0.1-0.3,0.1-0.4,0.1"/>
			<path fill="none" stroke="#33312C" stroke-width="0.25" stroke-miterlimit="10" d="M3.8,87.2c0.1,0.2,0.2,0.3,0.3,0.5
				c0,0,0,0,0,0.1C4.2,87.7,3.8,87.2,3.8,87.2z"/>
			<path fill="none" stroke="#33312C" stroke-width="0.25" stroke-miterlimit="10" d="M4.7,87.2c0.1,0,0.2,0,0.3,0
				C4.9,87.1,4.8,87.2,4.7,87.2z"/>
			<path fill="none" stroke="#33312C" stroke-width="0.15" stroke-miterlimit="10" d="M4.3,87.3c0-0.1-0.1-0.2-0.1-0.3
				c0.1,0,0.3-0.1,0.4-0.1h0.1c0.1,0,0.1,0.2,0.2,0.2c0,0,0.1,0,0.2,0c0.2,0,0.4,0,0.5,0c0.1,0.2,0.2,0.4,0.3,0.6"/>
			<path fill="none" stroke="#33312C" stroke-width="0.15" stroke-miterlimit="10" d="M8.6,89.3L8.6,89.3c0.1,0.1,0,0.2-0.1,0.3
				c0.1-0.2,0.2-0.4,0.3-0.5c0,0.2-0.1,0.3-0.2,0.4c0.1-0.1,0.1-0.2,0.1-0.4c0,0.2,0,0.3-0.1,0.5c0.1-0.1,0.1-0.3,0.1-0.4
				c0,0.2,0,0.4-0.1,0.6c0-0.2,0.1-0.3,0.1-0.5c0,0.2,0,0.5-0.1,0.7c0.1-0.3,0.1-0.6,0.2-0.9c-0.1,0.3-0.1,0.5-0.1,0.8
				c0.1-0.3,0.1-0.6,0.1-0.9c0,0.3,0,0.7-0.1,1c0-0.2,0-0.5,0-0.7c0,0.3,0,0.5,0,0.8c0-0.3,0.1-0.6,0.2-0.9c0,0.4-0.1,0.7-0.1,1.1
				c0-0.4,0.1-0.8,0.1-1.1c0,0.3-0.1,0.7-0.1,1c0-0.3,0.1-0.6,0.1-0.9c0,0.3,0,0.6,0,0.8c0-0.3,0.1-0.5,0.1-0.8c0,0.2,0,0.5,0,0.7
				c0-0.2,0-0.4,0.1-0.5c0,0.3,0,0.5,0,0.8c0-0.3,0-0.6,0.1-0.9c0,0.3,0,0.5,0,0.8c0-0.3,0-0.5,0-0.8c0,0.3,0,0.5,0,0.8
				c0-0.2,0-0.5,0-0.7c0,0.2,0,0.5,0,0.7c0-0.2,0-0.4,0-0.6c0,0.2,0,0.3,0,0.5c0-0.2,0-0.3,0.1-0.5c0,0.2,0,0.4,0,0.6
				c0-0.2,0-0.4,0-0.6c0,0.1,0,0.3,0.1,0.4c0-0.1,0-0.2,0-0.4c0,0.1,0.1,0.3,0.1,0.4c0-0.1,0-0.2,0-0.3c0,0.1,0,0.2,0.1,0.2
				c0-0.1,0-0.2,0-0.2c0.1,0.1,0.1,0.2,0.1,0.3c0-0.1,0-0.2,0-0.2c0,0.1,0.1,0.2,0.1,0.3l0,0c0.1,0,0.2,0.1,0.2,0.2
				c-0.5,0.2-0.9,0.3-1.4,0.3c-0.2-0.5-0.5-0.9-0.8-1.3C8.1,89.4,8.3,89.3,8.6,89.3C8.8,89.1,9,89.1,9.2,89c0,0,0.1,0,0,0h0.1
				c0.2,0.2,0.3,0.5,0.5,0.7c0.1,0.1,0.1,0.2,0.2,0.3"/>
			<path fill="none" stroke="#33312C" stroke-width="0.15" stroke-miterlimit="10" d="M8.2,88.5L8.2,88.5c-0.1,0.1,0,0.2,0,0.3
				c0.1,0,0.2,0,0.2-0.1c-0.1,0.1-0.1,0.1-0.2,0.2V89h0.1c0.1,0,0.2,0,0.2,0c0.1,0,0.1-0.1,0.2-0.2c0-0.1,0-0.1-0.1-0.2
				C8.6,88.5,8.4,88.3,8.2,88.5c-0.1,0.3,0.4,0.2,0.2,0H8.3c0.1,0,0.1,0,0.2,0c0.1,0,0.2,0,0.3,0"/>
			<path fill="none" stroke="#33312C" stroke-width="0.15" stroke-miterlimit="10" d="M4.5,87.5c0.3-0.1,0.6-0.1,0.9-0.1"/>
			<path fill="none" stroke="#33312C" stroke-width="0.15" stroke-miterlimit="10" d="M4.5,87.8c0.3-0.1,0.6-0.1,0.9-0.1"/>
			<path fill="none" stroke="#33312C" stroke-width="0.15" stroke-miterlimit="10" d="M9.9,87c0.1,0.1,0.2,0.2,0.3,0.2
				c0-0.1,0.1-0.2,0-0.3c0,0.1,0.1,0.1,0.2,0.1c0.1-0.1,0.3-0.2,0.5-0.2c0.4,0,0.7-0.2,1.1-0.3c0.1,0,0.2-0.1,0.3-0.1
				c0.1,0,0.1,0,0.1,0c0.1,0,0.3,0,0.3-0.2"/>
			<path fill="none" stroke="#33312C" stroke-width="0.15" stroke-miterlimit="10" d="M10.7,87.2v-0.1c0,0,0.1,0,0.2,0
				c0.2,0,0.4-0.1,0.6-0.1c0.2-0.1,0.5-0.1,0.7-0.2c0.2-0.1,0.4-0.2,0.7-0.3"/>
			<path fill="none" stroke="#33312C" stroke-width="0.15" stroke-miterlimit="10" d="M11.2,87.6h-0.1c0-0.1,0.1-0.2,0.1-0.2
				c0.1-0.1,0.1-0.1,0.2-0.1l0.1,0.1c0.2,0.1,0.3-0.1,0.5-0.2c0.1-0.1,0.3,0,0.4,0c0.3,0,0.6-0.4,0.9-0.3"/>
			<path fill="none" stroke="#33312C" stroke-width="0.15" stroke-miterlimit="10" d="M11.3,88c0.3-0.2,0.7-0.2,1-0.3
				c0.2-0.1,0.4-0.2,0.6-0.3c0.1,0,0.2-0.1,0.3-0.1s0.2,0,0.3,0c0.2,0,0.3-0.1,0.4-0.3"/>
			<path fill="none" stroke="#33312C" stroke-width="0.15" stroke-miterlimit="10" d="M9.4,86.7c0.5,0.9,1.1,1.8,1.6,2.7
				c0.3,0.5,0.6,1,0.9,1.4"/>
			<path fill="none" stroke="#33312C" stroke-width="0.15" stroke-miterlimit="10" d="M11.4,88.3c0.1-0.1,0.2-0.2,0.4-0.3
				c0.3-0.1,0.6-0.1,0.8-0.2c0.1-0.1,0.2-0.2,0.4-0.2c0.1,0,0.1,0,0.2,0c0.1,0,0.2-0.2,0.3-0.3c0.1-0.2,0.4-0.2,0.6-0.2"/>
			<path fill="none" stroke="#33312C" stroke-width="0.15" stroke-miterlimit="10" d="M11.6,89c0.4-0.2,0.8-0.4,1.2-0.4
				c0.1,0,0.3,0,0.4-0.1c0.2-0.1,0.3-0.2,0.5-0.3c0.3-0.2,0.6-0.4,0.9-0.6"/>
			<path fill="none" stroke="#33312C" stroke-width="0.15" stroke-miterlimit="10" d="M11.9,89.7c0.2-0.2,0.4-0.3,0.6-0.3
				c0.2,0,0.4,0,0.5-0.1c0.4-0.1,0.7-0.4,1-0.5c0.2-0.1,0.4,0,0.6-0.1c0.2-0.1,0.4-0.2,0.6-0.4"/>
			<path fill="none" stroke="#33312C" stroke-width="0.15" stroke-miterlimit="10" d="M6,90.6c-0.1,0.1,0,0.3,0.1,0.4
				c0-0.2,0-0.3,0.1-0.5c0.1,0.1,0.1,0.3,0.2,0.4c0.1-0.1,0.1-0.3,0.1-0.4c0,0,0.1,0,0.1,0.1s0.1,0.1,0.1,0.1c0-0.1,0.1-0.3,0.2-0.2
				c0,0,0,0,0.1,0s0.1-0.1,0.2-0.1c0.1-0.1,0.3-0.1,0.4-0.1c0,0,0,0,0-0.1"/>
			<path fill="none" stroke="#33312C" stroke-width="0.15" stroke-miterlimit="10" d="M5.4,91.1c0.2-0.2,0.4-0.2,0.7-0.2
				c0.7,0,1.5-0.2,2.2-0.4h0.1l0,0"/>
			<path fill="none" stroke="#33312C" stroke-width="0.15" stroke-miterlimit="10" d="M7,91.8L7,91.8c-0.1,0.1-0.1,0.2-0.1,0.3
				c0.2,0.1,0.5,0,0.6-0.3"/>
			<path fill="none" stroke="#33312C" stroke-width="0.15" stroke-miterlimit="10" d="M7.5,91.6c0,0.1,0.1,0.2,0.2,0.2
				s0.2-0.1,0.2-0.2c-0.1,0-0.2,0-0.3,0c0.1-0.1,0.2-0.2,0.4-0.2c0,0.1,0.1,0.2,0.2,0.2h0.2c0-0.1-0.1-0.2-0.1-0.3
				c0.1,0.1,0.1,0.1,0.2,0.2c0-0.1,0-0.1,0-0.2c0.1,0,0.2,0.1,0.3,0.2c-0.1,0.1-0.3,0.3-0.4,0.3c0.2-0.1,0.5-0.3,0.7-0.4"/>
			<path fill="none" stroke="#33312C" stroke-width="0.15" stroke-miterlimit="10" d="M8.7,90.7c0.2,0.2,0.3,0.4,0.5,0.7
				c-0.1-0.2-0.2-0.3-0.3-0.5c0.1-0.1,0.2-0.1,0.3,0c0.1,0.1,0.1,0.2,0.2,0.3c0,0.1,0,0.2,0,0.3c-0.5,0.3-1.1,0.4-1.6,0.7
				c-0.2,0.1-0.4,0.2-0.6,0.2v-0.1c0.1,0,0.2-0.1,0.3,0"/>
			<path fill="none" stroke="#33312C" stroke-width="0.15" stroke-miterlimit="10" d="M7.6,93.7c0.2,0.1,0.4,0,0.6,0
				c0.9-0.3,1.7-0.5,2.6-0.8c0.1,0,0.2-0.1,0.3-0.1c0.1-0.1,0.1-0.2,0.1-0.3s-0.2-0.2-0.4-0.2c-0.5,0-1,0.2-1.4,0.4
				C9,92.8,8.7,92.9,8.3,93c-0.2,0-0.4,0.1-0.5,0.2S7.5,93.6,7.6,93.7z"/>
			<path fill="none" stroke="#33312C" stroke-width="0.15" stroke-miterlimit="10" d="M8.3,93.4c0.2,0,0.4-0.2,0.7-0.2
				c0.1,0,0.2,0,0.3,0c0.1-0.1,0.2-0.3,0.3-0.3c0.1-0.1,0.2,0,0.3,0s0.2,0,0.3,0c0-0.1,0.1,0,0.2,0c0.1,0,0.2,0,0.2,0
				c0,0.1,0.1,0.1,0.1,0.1c0-0.1,0.1-0.1,0.1-0.2"/>
			<path fill="none" stroke="#33312C" stroke-width="0.15" stroke-miterlimit="10" d="M15.1,93C15.1,92.9,15.1,93,15.1,93L15.1,93
				c-0.1-0.3-0.2-0.5-0.3-0.7s-0.3-0.3-0.3-0.5c0.4-0.2,0.8-0.4,1.2-0.5c0.1,0,0.1,0,0.2,0c0.1,0,0.2,0.1,0.2,0.1
				c0.3,0.3,0.5,0.6,0.6,1v0.1c0,0,0,0-0.1,0c-0.3,0.1-0.7,0.3-1,0.4C15.4,93,15.3,93.1,15.1,93z"/>
			<path fill="none" stroke="#33312C" stroke-width="0.15" stroke-miterlimit="10" d="M15.3,91.8c0,0.1,0,0.1,0,0.1v0.3
				c0-0.4,0.6-0.2,0.5,0c0,0.1-0.1,0.1-0.2,0c-0.1-0.1-0.1-0.1-0.1-0.2h0.1l0.1,0.2c0,0,0,0,0-0.1c-0.1,0-0.2-0.1-0.2-0.1
				c-0.1,0.1-0.1,0.2-0.2,0.3c0,0.1,0,0.2,0.1,0.3c0,0,0.1,0,0.2,0c0.2,0,0.3-0.1,0.5-0.2c0,0,0.1,0,0.1-0.1v-0.1
				c0-0.8-0.8-0.7-1.3-0.4"/>
			<path fill="none" stroke="#33312C" stroke-width="0.15" stroke-miterlimit="10" d="M15.9,90.3c-0.6,1.1-1.1,2.3-1.5,3.5
				c0.4-0.7,0.7-1.6,1.2-2.3c-0.1,0.5-0.1,1-0.2,1.6c0.1-0.4,0.3-0.8,0.6-1.1c0.1,0.4,0.1,0.8,0.3,1.3c0.1-0.3,0.3-0.6,0.5-0.9
				l0.1,0.1"/>
			<path fill="none" stroke="#33312C" stroke-width="0.15" stroke-miterlimit="10" d="M18.9,93.4c0.2,0,0.8,1.1,0.9,1.3
				c-0.5,0.3-1.1,0.6-1.6,0.9c-0.6,0.3-0.7-0.8-0.9-1.2c-0.2-0.4,0-0.6,0.4-0.7C18.1,93.5,18.5,93.4,18.9,93.4z"/>
			<path fill="none" stroke="#33312C" stroke-width="0.15" stroke-miterlimit="10" d="M17.8,94c-0.1,0.1,0,0.2,0,0.4
				c0.1,0.1,0.1,0.2,0.2,0.3c0,0,0,0.1,0.1,0.1c0,0,0,0,0.1,0c0.2,0,0.5,0,0.6-0.1c0.2-0.2,0.1-0.5-0.1-0.6
				c-0.2-0.2-0.4-0.2-0.7-0.1C17.9,94,17.8,94,17.8,94z"/>
			<path fill="none" stroke="#33312C" stroke-width="0.15" stroke-miterlimit="10" d="M18.3,94.5c0.1,0,0.1-0.2,0.1-0.3
				c-0.1-0.1-0.3,0-0.3,0.1s0.1,0.3,0.2,0.3h0.1c0.1,0,0.1-0.1,0.2-0.1c0-0.1,0-0.1-0.1-0.2c0.1-0.1,0.2-0.1,0.3-0.1
				c0,0.1,0.1,0.2,0,0.3c-0.1,0-0.2-0.1-0.2-0.2s0.1-0.2,0.2-0.2c0.1,0,0.2-0.1,0.3-0.1"/>
			<path fill="none" stroke="#33312C" stroke-width="0.15" stroke-miterlimit="10" d="M10.8,96.2v0.1c0-0.1,0-0.3,0-0.4
				c0.1,0.1,0.2,0.2,0.4,0.3c0,0,0.1,0.1,0.1,0c0,0,0-0.1,0.1-0.1c0-0.1,0-0.1,0.1-0.2c0.1,0,0.2,0,0.3,0c0-0.1,0-0.3,0.2-0.4
				c0,0,0.1,0,0.2,0c0.2,0,0.4-0.1,0.6-0.2c0.3-0.2,0.7-0.3,1-0.4"/>
			<path fill="none" stroke="#33312C" stroke-width="0.15" stroke-miterlimit="10" d="M10.9,97.2c0.2-0.4,0.7-0.6,1.1-0.7
				c0.4-0.1,0.9-0.2,1.2-0.5c0.2-0.1,0.4-0.3,0.7-0.4c0.2-0.1,0.4,0,0.7,0c0.2,0,0.5-0.1,0.6-0.2"/>
			<path fill="none" stroke="#33312C" stroke-width="0.15" stroke-miterlimit="10" d="M15.6,97.1L15.6,97.1c-0.1,0-0.2,0.1-0.2,0.1
				s0,0.1-0.1,0.2c0,0.3,0.2,0,0.4,0.2c-0.1,0-0.2,0-0.2,0.1s0,0.2,0,0.3c0,0.1,0,0.2,0,0.3c0.1,0.2,0.3,0.3,0.5,0.3
				c0.1,0,0.3,0.1,0.4,0.1c0.2,0,0.4-0.2,0.5-0.4c0.2-0.4,0.1-0.8-0.2-1.1c-0.2-0.2-0.6-0.3-0.9-0.2c-0.2,0.2-0.2,0.6-0.1,0.8
				c0-0.2,0-0.4,0-0.7c0.1,0.3,0.1,0.6,0.2,1c0-0.3,0-0.5,0-0.8c0,0.2,0.1,0.5,0.1,0.7c0-0.2,0-0.5,0-0.7c0,0.3,0.1,0.6,0.3,0.8
				c0-0.3,0-0.6-0.1-0.9c0,0.3,0.1,0.7,0.3,1c0-0.3,0-0.5-0.1-0.8c0.1,0.3,0.1,0.6,0.3,0.8c0-0.2,0-0.4,0-0.7
				c0.1,0.2,0.1,0.4,0.2,0.6c0-0.3-0.1-0.5-0.2-0.7c0,0.1-0.1,0.1-0.2,0.1c-0.1,0-0.1-0.1-0.2-0.2c-0.1-0.1-0.1-0.1-0.2-0.1
				c0,0.1,0,0.2,0,0.2c0-0.1,0-0.2,0-0.3c0,0.1,0,0.2,0.1,0.3"/>
			<path fill="none" stroke="#33312C" stroke-width="0.15" stroke-miterlimit="10" d="M12,99.3C12,99.4,12,99.4,12,99.3l-0.1-0.1
				c0.2-0.1,0.3-0.2,0.5-0.3c0.1,0.2,0.2,0.3,0.3,0.5c-0.1-0.1-0.1-0.2-0.3-0.2C12.2,99.2,12,99.2,12,99.3c0.1-0.1,0.1-0.2,0.2-0.3
				c-0.1,0-0.1,0.1-0.2,0.1c0-0.1,0.1-0.1,0.2-0.2C12.1,99,12,99,12,99.1c0.1,0,0.3-0.1,0.4-0.1c0.1,0.1,0,0.2-0.1,0.2
				c-0.1,0.1-0.2,0.1-0.2,0.2c0.1,0,0.2-0.1,0.3-0.1c-0.1,0.1-0.1,0.1-0.2,0.2c0.1,0,0.2-0.1,0.4-0.1c-0.1,0.1-0.2,0.1-0.2,0.2
				c0.1,0,0.1-0.1,0.2-0.1l-0.1,0.1c0.1,0,0.2,0,0.3,0c-0.1,0.1-0.2,0.1-0.3,0.2c0.1,0,0.1,0,0.2-0.1c-0.1,0.1-0.2,0.1-0.3,0.2
				C12.2,99.7,11.9,99.4,12,99.3z"/>
			<path fill="none" stroke="#33312C" stroke-width="0.15" stroke-miterlimit="10" d="M11.9,98.8c0.1-0.1,0.1-0.2,0.1-0.2
				s-0.2-0.1-0.2,0C11.7,98.7,11.7,98.8,11.9,98.8c0,0.2,0.2,0.1,0.2,0s-0.1-0.2-0.2-0.2c-0.1,0-0.2,0-0.3,0
				c0.1-0.1,0.1-0.1,0.2-0.2c0,0-0.1,0.1,0,0.2c0,0,0.1,0,0.1-0.1C11.9,98.6,11.8,98.7,11.9,98.8c0-0.1,0-0.1,0.1-0.2v0.1
				C12,98.7,11.9,98.9,11.9,98.8l0.1-0.1"/>
			<path fill="none" stroke="#33312C" stroke-width="0.15" stroke-miterlimit="10" d="M21.4,85.1C21.4,85.1,21.5,85.2,21.4,85.1
				c-0.6-1-1.4-2.2-2.1-3.3l-0.1,0.1c-0.3,0.2-0.5,0.4-0.8,0.5c-0.5,0.3-1.2,0.5-1.6,0.9c0.2,0.2,0.4,0.5,0.6,0.7
				c0.3,0.4,0.7,0.8,1,1.3c0.3,0.4,0.5,0.7,0.8,1.1c0,0.1,0.1,0.2,0.2,0.2c0.1,0,0.2,0,0.2-0.1c0.2-0.1,0.3-0.2,0.5-0.4
				C20.4,85.9,20.8,85.5,21.4,85.1c0,0,0.2,0,0.3-0.1"/>
			<path fill="none" stroke="#33312C" stroke-width="0.15" stroke-miterlimit="10" d="M19,81.3c0.8,1.1,1.6,2.2,2.3,3.3
				c0.2,0.3,0.4,0.6,0.7,0.9"/>
			<path fill="none" stroke="#33312C" stroke-width="0.15" stroke-miterlimit="10" d="M22.8,84.6c-0.5,0.5-1.3,0.6-1.9,1
				c-0.3,0.2-0.5,0.4-0.8,0.7c-0.2,0.3-0.5,0.5-0.7,0.8"/>
			<path fill="none" stroke="#33312C" stroke-width="0.15" stroke-miterlimit="10" d="M19.8,85.4c-0.1,0.1-0.1,0.2-0.2,0.2h-0.1
				c-0.1,0-0.2-0.2-0.2-0.3l-0.1,0.1c0-0.2-0.1-0.4-0.1-0.6c0-0.1-0.1-0.2-0.2-0.2c0.1,0,0.1,0.2,0.1,0.2s-0.1,0.2-0.1,0.3
				s0.1,0.2,0.1,0.3c-0.2-0.3-0.4-0.6-0.3-1c0-0.4,0.2-0.3,0.4-0.6c0,0,0,0,0-0.1"/>
			<path fill="none" stroke="#33312C" stroke-width="0.15" stroke-miterlimit="10" d="M19.3,84c0-0.1,0.2-0.2,0.3-0.1
				c0.1,0.1,0.2,0.2,0.2,0.4c0.1,0.3,0.1,0.5,0.2,0.8c0.1-0.1,0.2-0.2,0.3-0.2c0,0.3,0.1,0.6,0.3,0.8"/>
			<path fill="none" stroke="#33312C" stroke-width="0.15" stroke-miterlimit="10" d="M19.6,85.9c-0.1,0,0,0.2,0.1,0.2
				c0.1,0,0.2-0.1,0.2-0.1c0.1-0.1,0.2-0.2,0.3-0.4c-0.1,0-0.2,0-0.3,0.1C19.9,85.6,19.6,86,19.6,85.9z"/>
			<path fill="none" stroke="#33312C" stroke-width="0.15" stroke-miterlimit="10" d="M18.4,83.1c-0.1,0.2-0.1,0.4,0,0.6
				c0.1,0.2,0.4,0.2,0.6,0.1c0.1,0,0.1-0.1,0.1-0.1c0-0.1,0-0.2,0-0.2c0-0.1-0.1-0.3-0.2-0.4C18.8,83,18.7,83,18.5,83
				c-0.2,0.1-0.3,0.4-0.4,0.6c0,0.1,0,0.2,0,0.3c0.1,0.1,0.3,0.1,0.5,0.1"/>
			<path fill="none" stroke="#33312C" stroke-width="0.15" stroke-miterlimit="10" d="M17.2,83.4c0,0.1,0.2,0.1,0.2,0.1
				c0-0.1,0-0.2,0-0.2c0.1,0,0.1,0.1,0.2,0.2c0-0.1,0-0.2,0.1-0.3c0.1,0,0.1,0,0.2-0.1c0,0,0.1-0.1,0-0.1H18"/>
			<path fill="none" stroke="#33312C" stroke-width="0.15" stroke-miterlimit="10" d="M20.1,81.7c0,0.3,0,0.6,0.1,0.9
				c0,0.1,0,0.2,0.1,0.2h0.1c0.1-0.1,0.2-0.2,0.3-0.4"/>
			<path fill="none" stroke="#33312C" stroke-width="0.15" stroke-miterlimit="10" d="M20.3,82.4c0.2-0.8,0.7-1.5,1.3-2
				c0.7-0.5,1.5-0.7,2.3-0.6"/>
			<path fill="none" stroke="#33312C" stroke-width="0.15" stroke-miterlimit="10" d="M22.9,81c0.1,0.1,0.3,0.3,0.4,0.4
				c0-0.2,0-0.4,0-0.5v-0.1l0,0c0.1,0,0.1,0.1,0.2,0.1c0-0.2,0.1-0.3,0.2-0.4c0,0,0,0.1,0.1,0.1c0-0.1,0-0.1,0-0.2
				c0,0.1,0.1,0.1,0.1,0.2c0.1-0.2,0.2-0.4,0.4-0.4c0.1,0,0.3,0,0.2,0.1c0.1-0.3,0.4-0.6,0.7-0.7"/>
			<path fill="none" stroke="#33312C" stroke-width="0.15" stroke-miterlimit="10" d="M23.9,81.2v0.1V81.2c0.2-0.1,0.2-0.1,0.3-0.2
				c0.1-0.1,0.1-0.2,0.2-0.2c0.1,0,0.2,0,0.3-0.1c0,0,0-0.1,0.1-0.2h0.1c0.1,0,0.2-0.3,0.3-0.3c0,0,0,0,0.1,0l0,0
				c0.1-0.1,0.1-0.1,0.2-0.2"/>
			<path fill="none" stroke="#33312C" stroke-width="0.15" stroke-miterlimit="10" d="M24.5,81.5c0-0.1,0-0.2,0.1-0.2
				c0.1,0,0.2-0.1,0.3-0.1s0.3-0.1,0.4-0.2c0.1-0.1,0.1-0.1,0.2-0.2c0.1-0.1,0.1-0.1,0.2-0.2c0.1-0.1,0.2-0.2,0.3-0.3"/>
			<path fill="none" stroke="#33312C" stroke-width="0.15" stroke-miterlimit="10" d="M23.6,83c0-0.1,0-0.2,0-0.3
				c0.1,0,0.2,0.1,0.2,0.2c0.5-0.5,1-0.9,1.7-1.2c0.3-0.2,0.7-0.4,0.9-0.7c0.1-0.1,0.1-0.2,0.2-0.3c0.2-0.2,0.6,0,0.8-0.2"/>
			<path fill="none" stroke="#33312C" stroke-width="0.15" stroke-miterlimit="10" d="M27.1,81.1C27,81,26.9,81,26.8,81
				c0,0.1,0,0.2,0,0.3l-0.1-0.1v0.1l-0.1-0.1c0,0.1-0.1,0.2-0.2,0.2c-0.1,0-0.1,0.2-0.1,0.3c-0.1-0.1-0.1-0.1-0.2-0.1
				c-0.1,0.1,0,0.3-0.1,0.3h-0.1c-0.2,0-0.3,0.2-0.3,0.4c-0.1,0-0.2-0.1-0.2-0.1c-0.1,0,0,0.1,0,0.2c0,0.1,0,0.2-0.1,0.1
				c0,0,0,0-0.1,0c-0.1,0-0.1,0.1-0.1,0.1c0,0.1,0,0.1,0,0.2c-0.1-0.1-0.2-0.2-0.2-0.2s-0.1,0-0.1,0.1c-0.1,0.1-0.1,0.2-0.2,0.3
				c-0.1,0.1-0.1,0.3-0.2,0.4l-0.1-0.1c0,0.1,0,0.1,0,0.1"/>
			<path fill="none" stroke="#33312C" stroke-width="0.15" stroke-miterlimit="10" d="M23.8,87.4c0.5-0.7,1.2-0.6,1.5,0.2
				c-0.5,0.1-0.9,0.4-1.3,0.7l0,0l0,0"/>
			<path fill="none" stroke="#33312C" stroke-width="0.15" stroke-miterlimit="10" d="M24.3,87.8c0.1-0.1,0.2-0.2,0.3-0.2
				c0.1-0.1,0.3-0.3,0.5-0.2l0.1,0.1l0,0C24.9,87.7,24.6,87.8,24.3,87.8c0,0.1-0.2,0.1-0.3,0.1c-0.1-0.1-0.1-0.2,0-0.3
				c0-0.1,0.1-0.2,0.2-0.2c0.1-0.1,0.3-0.2,0.5-0.2c0,0.1,0,0.2,0,0.3C24.5,87.5,24.4,87.7,24.3,87.8z"/>
			<path fill="none" stroke="#33312C" stroke-width="0.15" stroke-miterlimit="10" d="M23.8,87.4c0,0,0,0.1,0,0.2
				c-0.1,0.3,0.1,0.6,0.2,0.9"/>
			<path fill="none" stroke="#33312C" stroke-width="0.15" stroke-miterlimit="10" d="M24.8,85.5c0,0.1,0.1,0.2,0.2,0.3
				c0.5,0.5,0.9,1.1,1.2,1.7c0-0.1-0.1-0.2-0.1-0.3"/>
			<path fill="none" stroke="#33312C" stroke-width="0.15" stroke-miterlimit="10" d="M24.9,85.3c0.2-0.5,0.7-0.7,1.1-0.9
				c0.1-0.1,0.2-0.1,0.4-0.1c0.2,0,0.4,0.2,0.6,0.4c0.4,0.5,0.9,1.1,1.2,1.7c0.1,0.4-0.1,0.4-0.4,0.6c-0.3,0.2-0.7,0.4-1,0.6
				c-0.1,0.1-0.2,0.1-0.3,0.1s-0.2,0-0.2-0.1"/>
			<path fill="none" stroke="#33312C" stroke-width="0.15" stroke-miterlimit="10" d="M25.3,85.3c0.2-0.2,0.3-0.3,0.5-0.4
				c0.2-0.1,0.4-0.2,0.6-0.1c0,0,0,0-0.1,0c-0.4,0.2-0.8,0.4-1.2,0.6c-0.1,0-0.1,0.1-0.1,0.2c0,0,0,0.1,0.1,0.1
				c0.2,0.2,0.2,0.4,0.4,0.5c0.2,0.1,0.3,0,0.5-0.2c0.1-0.1,0.2-0.3,0.4-0.4c0.1-0.1,0.2-0.1,0.3-0.2c0.1-0.1,0.2-0.2,0.2-0.3
				s-0.1-0.1-0.1-0.2c-0.1-0.1-0.2-0.1-0.3-0.2l0.1,0.1c0,0,0,0.1-0.1,0.1"/>
			<path fill="none" stroke="#33312C" stroke-width="0.15" stroke-miterlimit="10" d="M25.5,85.7C25.5,85.6,25.4,85.7,25.5,85.7
				L25.5,85.7c0.2,0,0.3-0.1,0.5-0.2c0,0.1,0.1,0.1,0.1,0.1c0.1,0,0.1-0.1,0.1-0.2c0-0.1,0.1-0.2,0.2-0.3c0.1-0.1,0.2-0.1,0.3,0"/>
			<path fill="none" stroke="#33312C" stroke-width="0.15" stroke-miterlimit="10" d="M26.3,86.8L26.3,86.8c-0.1,0.1-0.1,0.2,0,0.2
				c0.1,0,0.2,0,0.3,0c0.3,0,0.6-0.1,0.8-0.4c0.1-0.2,0.2-0.4,0.2-0.6v-0.1l-0.1-0.1c-0.3-0.1-0.6-0.1-0.8,0.1s-0.3,0.5-0.2,0.8
				C26.5,86.7,26.3,86.9,26.3,86.8z"/>
			<path fill="none" stroke="#33312C" stroke-width="0.15" stroke-miterlimit="10" d="M26.8,86.7L26.8,86.7
				C26.9,86.7,26.9,86.7,26.8,86.7c0.1-0.2,0.1-0.3,0.1-0.5c-0.1,0-0.1,0.1-0.1,0.2C26.8,86.5,26.9,86.6,26.8,86.7
				c0.1,0,0.1-0.1,0.1-0.1c0.1-0.1,0.1-0.3,0-0.4"/>
			<path fill="none" stroke="#33312C" stroke-width="0.15" stroke-miterlimit="10" d="M22.9,91.7c0.1,0.2,0.3,0.4,0.5,0.4
				c0-0.2,0-0.3,0-0.5c0.1,0.1,0.2,0.1,0.4,0.1c0-0.1,0-0.3,0-0.4c0,0,0-0.1,0.1-0.1c0.1,0,0.1,0,0.2,0c0.1,0,0.1,0.1,0.1,0.2
				c0.2-0.3,0.4-0.5,0.7-0.8c0.1-0.2,0.3-0.4,0.5-0.4"/>
			<path fill="none" stroke="#33312C" stroke-width="0.15" stroke-miterlimit="10" d="M23.9,92.5c0.2,0,0.4-0.3,0.4-0.5v-0.1
				c0,0,0,0,0.1,0c0.1,0,0.2,0.1,0.2,0.1c0.1,0,0.2-0.1,0.3-0.2c0.1-0.1,0.2-0.2,0.3-0.3c0.2-0.2,0.3-0.4,0.4-0.6"/>
			<path fill="none" stroke="#33312C" stroke-width="0.15" stroke-miterlimit="10" d="M28.7,87.5c0,0.3,0.2,0.5,0.4,0.5
				c0-0.1,0-0.2,0-0.3c-0.1,0-0.1,0-0.2,0.1C29,87.9,28.7,87.5,28.7,87.5z"/>
			<path fill="none" stroke="#33312C" stroke-width="0.15" stroke-miterlimit="10" d="M29.7,87.4c0-0.1,0.1-0.2,0.2-0.3
				c0,0.1,0.2,0,0.3,0c0.1,0,0.1-0.1,0.1-0.1c0-0.1,0.1-0.1,0.2-0.1"/>
			<path fill="none" stroke="#33312C" stroke-width="0.15" stroke-miterlimit="10" d="M31.2,86.1c0.1,0,0.2-0.1,0.2-0.2"/>
			<path fill="none" stroke="#33312C" stroke-width="0.15" stroke-miterlimit="10" d="M29,89.7L29,89.7C29.1,89.7,29.1,89.7,29,89.7
				c0-0.4,0-0.7,0-1.1c0,0.2,0.1,0.4,0.2,0.6l0,0C29.3,89.3,29,89.7,29,89.7z"/>
			<path fill="none" stroke="#33312C" stroke-width="0.15" stroke-miterlimit="10" d="M29.2,88.5L29.2,88.5L29.2,88.5
				c-0.1,0.3,0,0.5,0.1,0.6c0-0.1,0-0.2,0-0.3c0,0.1,0,0.1,0,0.2"/>
			<path fill="none" stroke="#33312C" stroke-width="0.15" stroke-miterlimit="10" d="M30.1,88.5C30.1,88.6,30.1,88.6,30.1,88.5
				c0-0.2,0.1-0.5,0.4-0.7c0,0.1,0.1,0.1,0.1,0.1c0.1,0,0.1-0.1,0.2-0.1c0-0.1,0.1-0.1,0.1-0.2c0.1-0.1,0.2-0.1,0.3-0.1
				c0.2-0.1,0.2-0.3,0.3-0.5c0.1-0.2,0.2-0.3,0.4-0.4"/>
			<path fill="none" stroke="#33312C" stroke-width="0.15" stroke-miterlimit="10" d="M29.4,89.7c-0.1,0.2,0.1,0.5,0.3,0.5
				c0-0.1,0-0.1,0-0.2c0,0.1,0,0.1,0.1,0.1c0-0.1,0-0.2,0-0.3C29.8,89.9,29.4,89.7,29.4,89.7z"/>
			<path fill="none" stroke="#33312C" stroke-width="0.15" stroke-miterlimit="10" d="M30.4,89.7L30.4,89.7c0.1-0.1,0.2-0.3,0.4-0.3
				c0.1,0,0.2,0,0.2-0.1l0.1-0.1c0.1-0.2,0.2-0.5,0.4-0.6c0.1,0,0.2,0,0.3-0.1c0.4-0.1,0.6-0.8,1-0.8"/>
			<path fill="none" stroke="#33312C" stroke-width="0.15" stroke-miterlimit="10" d="M30,91.3c0-0.2,0-0.4,0-0.6
				C30.1,90.8,29.9,91.2,30,91.3z"/>
			<path fill="none" stroke="#33312C" stroke-width="0.15" stroke-miterlimit="10" d="M30.6,90.8C30.6,90.9,30.7,90.9,30.6,90.8
				C30.7,90.9,30.7,90.8,30.6,90.8c0.1-0.3,0.3-0.5,0.5-0.6c0,0.1,0.1,0.2,0.2,0.2c0.1,0,0.2-0.1,0.3-0.2c0.4-0.6,0.8-1.4,1.5-1.8"
				/>
			<path fill="none" stroke="#33312C" stroke-width="0.15" stroke-miterlimit="10" d="M30.3,90.9V91c-0.1,0-0.1,0-0.1-0.1
				c0.1,0,0.2,0.1,0.2,0.2v0.1c0,0,0-0.1,0,0"/>
			<path fill="none" stroke="#33312C" stroke-width="0.15" stroke-miterlimit="10" d="M24.2,93.4c0.1,0,0.3,0,0.4-0.1
				c0.1-0.1,0.2-0.2,0.2-0.3c0.2-0.3,0.5-0.6,0.8-0.8c0.1-0.1,0.2-0.2,0.4-0.3c0.1,0,0.2,0,0.3-0.1c0.1-0.1,0.2-0.2,0.2-0.4"/>
			<path fill="none" stroke="#33312C" stroke-width="0.15" stroke-miterlimit="10" d="M24.8,92.5c-0.1,0.1-0.2,0.1-0.3,0.1
				c0.3-0.2,0.7-0.4,0.9-0.7"/>
			<path fill="none" stroke="#33312C" stroke-width="0.15" stroke-miterlimit="10" d="M26.7,94c-0.1,0-0.3-0.1-0.5,0
				c0,0-0.1,0-0.1,0.1c-0.1,0.1,0,0.3,0.1,0.3c0.1,0.1,0.3,0.2,0.4,0.1C26.7,94.4,26.7,94.2,26.7,94c-0.2,0-0.4,0.1-0.6,0.2
				C26,94.3,26,94.3,26,94.4c0,0,0,0.1,0.1,0.1c0.1,0.2,0.3,0.3,0.5,0.4c0.2,0,0.3,0,0.4-0.2c0.1-0.2,0.2-0.3,0.2-0.5v-0.1
				c-0.1-0.1-0.2-0.2-0.3-0.2c-0.1,0-0.2-0.1-0.4,0c-0.1,0-0.2,0.1-0.2,0.2s0,0.1,0,0.2c0.1,0.1,0.2,0.2,0.4,0.1
				c0.1-0.1,0.2-0.3,0-0.3c-0.1-0.1-0.2,0-0.3,0.1c-0.1,0.1-0.1,0.2,0,0.3c0.1,0.1,0.1,0.1,0.2,0.1c0.2,0,0.2-0.3,0.1-0.4
				c-0.1-0.1-0.1-0.1-0.2-0.1c-0.1,0-0.2,0.1-0.2,0.2s0.1,0.2,0.2,0.1c0-0.1,0-0.2,0-0.4c-0.1,0.1-0.2,0.2-0.2,0.3
				c0,0.1,0.1,0.3,0.2,0.3c0.1-0.1,0.2-0.3,0-0.4c-0.1-0.1-0.3,0-0.4,0.1c-0.1,0.2,0,0.3,0.2,0.4c0.2,0,0.3-0.1,0.3-0.3
				c0-0.1,0-0.1-0.1-0.2s-0.1-0.1-0.2-0.1c-0.2,0-0.4,0.1-0.4,0.3c0,0.1,0,0.2,0,0.2H26c0.2-0.1,0.5-0.2,0.6-0.4
				c-0.1-0.1-0.4-0.1-0.4,0.1c0,0.1,0,0.2,0.1,0.3c0.1,0,0.2,0,0.3-0.1c0.1-0.1,0.1-0.2,0.1-0.3c-0.2-0.1-0.4-0.1-0.6,0
				c0,0.1,0,0.2,0.1,0.3c0.1,0.1,0.2,0.1,0.3,0.1c0.1-0.1,0.1-0.3,0-0.4s-0.1-0.1-0.2-0.1c-0.1,0-0.2,0-0.3,0.1
				c-0.1,0.1-0.1,0.4,0,0.5c0.1,0.1,0.4,0.1,0.5,0s0.1-0.4,0-0.5s-0.3-0.1-0.4,0c-0.1,0.1-0.2,0.2-0.1,0.3c0,0,0,0.1,0.1,0.1
				c0.1,0.1,0.3,0,0.4-0.1C26.7,94.3,26.7,94.2,26.7,94z"/>
			<path fill="none" stroke="#33312C" stroke-width="0.15" stroke-miterlimit="10" d="M27.4,93.5c-0.1,0.1,0,0.2,0,0.3
				c0.1,0.1,0.1,0.2,0.2,0.2c0.1,0,0.2,0.1,0.3,0.1c0.1,0,0.2-0.2,0.2-0.3c0-0.1-0.1-0.2-0.2-0.3C27.7,93.4,27.6,93.4,27.4,93.5
				c-0.1,0.1-0.1,0.3,0,0.5c0,0,0.1,0.1,0.2,0.1c0.1,0,0.3,0,0.4-0.1c0.1-0.1,0.1-0.3,0-0.4c-0.1-0.1-0.2-0.2-0.3-0.1
				c-0.1,0.1-0.1,0.2-0.1,0.3c0,0.1,0.2,0.2,0.3,0.1v-0.1c0-0.1,0-0.1-0.1-0.2c0,0-0.1-0.1-0.2,0c0,0.1,0,0.2,0.1,0.3
				c0-0.1,0-0.2-0.1-0.3v0.1c0,0,0.1,0.1,0.1,0c0,0,0-0.1,0-0.2C27.7,93.6,27.4,93.5,27.4,93.5z"/>
		</g>
		<g>
			<polygon fill="#D3D3D3" points="1.8,86.4 11.2,102.1 25.2,97.9 25.6,98.2 26.1,98 26.4,97.6 38.5,92.9 23.8,78.8 			"/>
			<polygon fill="#DDDDDD" points="1.9,86.2 11.4,101.8 25.4,97.5 25.8,98 25.8,97.8 14.8,82.6 			"/>
			<polygon fill="#E8E8E8" points="12.7,83.2 25.7,97.5 25.8,97.8 26.1,97.4 26.5,97.2 38.2,92 26.2,78.4 			"/>
			<polygon fill="#EFEFEF" points="2.2,85.7 11.7,101.6 25.9,97.1 15.1,82.2 			"/>
			<polygon fill="#D8D8D8" points="14.8,82.2 25.8,97.3 37.3,90.7 25.5,76.6 			"/>
			<polygon fill="#F2F2F2" points="2.3,85.3 11.6,101.2 25.8,97.3 15.3,81.9 			"/>
			<polygon fill="#E8E8E8" points="14.8,82.2 25.4,74.9 37.7,89.1 25.8,97.3 			"/>
			<polyline fill="#444443" points="38.4,93.1 26.3,97.7 26.3,97.7 38.4,93.2 			"/>
			<path fill="#B5B5B5" d="M31.2,98.5"/>
			<path fill="none" d="M5.3,86.4c-0.1,0.1-0.3,0.1-0.4,0.1"/>
			<path fill="none" stroke="#33312C" stroke-width="0.25" stroke-miterlimit="10" d="M4.1,86.1c0.1,0.2,0.2,0.3,0.3,0.5
				c0,0,0,0,0,0.1C4.4,86.6,4.1,86.1,4.1,86.1z"/>
			<path fill="none" stroke="#33312C" stroke-width="0.25" stroke-miterlimit="10" d="M4.9,86.1c0.1,0,0.2,0,0.3,0
				C5.2,86.1,5,86.1,4.9,86.1z"/>
			<path fill="none" stroke="#33312C" stroke-width="0.15" stroke-miterlimit="10" d="M4.6,86.2c0-0.1-0.1-0.2-0.1-0.3
				c0.1,0,0.3-0.1,0.4-0.1H5c0.1,0,0.1,0.2,0.2,0.2c0,0,0.1,0,0.2,0c0.2,0,0.4,0,0.5,0c0.1,0.2,0.2,0.4,0.3,0.6"/>
			<path fill="none" stroke="#33312C" stroke-width="0.15" stroke-miterlimit="10" d="M8.9,88.2L8.9,88.2c0.1,0.1,0,0.2-0.1,0.3
				C8.9,88.3,9,88.1,9.1,88c0,0.2-0.1,0.3-0.2,0.4C9,88.3,9,88.2,9,88c0,0.2,0,0.3-0.1,0.5C9,88.4,9,88.2,9,88.1
				c0,0.2,0,0.4-0.1,0.6c0-0.2,0.1-0.3,0.1-0.5c0,0.2,0,0.5-0.1,0.7C9,88.6,9,88.3,9.1,88C9,88.3,9,88.5,9,88.8
				c0.1-0.3,0.1-0.6,0.1-0.9c0,0.3,0,0.7-0.1,1c0-0.2,0-0.5,0-0.7c0,0.3,0,0.5,0,0.8c0-0.3,0.1-0.6,0.2-0.9c0,0.4-0.1,0.7-0.1,1.1
				c0-0.4,0.1-0.8,0.1-1.1c0,0.3-0.1,0.7-0.1,1c0-0.3,0.1-0.6,0.1-0.9c0,0.3,0,0.6,0,0.8c0-0.3,0.1-0.5,0.1-0.8c0,0.2,0,0.5,0,0.7
				c0-0.2,0-0.4,0.1-0.5c0,0.3,0,0.5,0,0.8c0-0.3,0-0.6,0.1-0.9c0,0.3,0,0.5,0,0.8c0-0.3,0-0.5,0-0.8c0,0.3,0,0.5,0,0.8
				c0-0.2,0-0.5,0-0.7c0,0.2,0,0.5,0,0.7c0-0.2,0-0.4,0-0.6c0,0.2,0,0.3,0,0.5c0-0.2,0-0.3,0.1-0.5c0,0.2,0,0.4,0,0.6
				c0-0.2,0-0.4,0-0.6c0,0.1,0,0.3,0.1,0.4c0-0.1,0-0.2,0-0.4c0,0.1,0.1,0.3,0.1,0.4c0-0.1,0-0.2,0-0.3c0,0.1,0,0.2,0.1,0.2
				c0-0.1,0-0.2,0-0.2c0.1,0.1,0.1,0.2,0.1,0.3c0-0.1,0-0.2,0-0.2c0,0.1,0.1,0.2,0.1,0.3l0,0c0.1,0,0.2,0.1,0.2,0.2
				c-0.5,0.2-0.9,0.3-1.4,0.3c-0.2-0.5-0.5-0.9-0.8-1.3C8.4,88.3,8.6,88.2,8.9,88.2C9.1,88,9.3,88,9.5,87.9c0,0,0.1,0,0,0h0.1
				c0.2,0.2,0.3,0.5,0.5,0.7c0.1,0.1,0.1,0.2,0.2,0.3"/>
			<path fill="none" stroke="#33312C" stroke-width="0.15" stroke-miterlimit="10" d="M8.5,87.4C8.5,87.4,8.4,87.4,8.5,87.4
				c-0.1,0.1,0,0.2,0,0.3c0.1,0,0.2,0,0.2-0.1c-0.1,0.1-0.1,0.1-0.2,0.2v0.1h0.1c0.1,0,0.2,0,0.2,0c0.1,0,0.1-0.1,0.2-0.2
				c0-0.1,0-0.1-0.1-0.2C8.9,87.4,8.7,87.3,8.5,87.4c-0.1,0.3,0.4,0.2,0.2,0H8.6c0.1,0,0.1,0,0.2,0c0.1,0,0.2,0,0.3,0"/>
			<path fill="none" stroke="#33312C" stroke-width="0.15" stroke-miterlimit="10" d="M4.8,86.5c0.3-0.1,0.6-0.1,0.9-0.1"/>
			<path fill="none" stroke="#33312C" stroke-width="0.15" stroke-miterlimit="10" d="M4.8,86.7c0.3-0.1,0.6-0.1,0.9-0.1"/>
			<path fill="none" stroke="#33312C" stroke-width="0.15" stroke-miterlimit="10" d="M10.1,85.9c0.1,0.1,0.2,0.2,0.3,0.2
				c0-0.1,0.1-0.2,0-0.3c0,0.1,0.1,0.1,0.2,0.1c0.1-0.1,0.3-0.2,0.5-0.2c0.4,0,0.7-0.2,1.1-0.3c0.1,0,0.2-0.1,0.3-0.1s0.1,0,0.1,0
				c0.1,0,0.3,0,0.3-0.2"/>
			<path fill="none" stroke="#33312C" stroke-width="0.15" stroke-miterlimit="10" d="M10.9,86.1V86c0,0,0.1,0,0.2,0
				c0.2,0,0.4-0.1,0.6-0.1c0.2-0.1,0.5-0.1,0.7-0.2c0.2-0.1,0.4-0.2,0.7-0.3"/>
			<path fill="none" stroke="#33312C" stroke-width="0.15" stroke-miterlimit="10" d="M11.5,86.5h-0.1c0-0.1,0.1-0.2,0.1-0.2
				c0.1-0.1,0.1-0.1,0.2-0.1l0.1,0.1c0.2,0.1,0.3-0.1,0.5-0.2c0.1-0.1,0.3,0,0.4,0c0.3,0,0.6-0.4,0.9-0.3"/>
			<path fill="none" stroke="#33312C" stroke-width="0.15" stroke-miterlimit="10" d="M11.5,87c0.3-0.2,0.7-0.2,1-0.3
				c0.2-0.1,0.4-0.2,0.6-0.3c0.1,0,0.2-0.1,0.3-0.1s0.2,0,0.3,0c0.2,0,0.3-0.1,0.4-0.3"/>
			<path fill="none" stroke="#33312C" stroke-width="0.15" stroke-miterlimit="10" d="M9.7,85.6c0.5,0.9,1.1,1.8,1.6,2.7
				c0.3,0.5,0.6,1,0.9,1.4"/>
			<path fill="none" stroke="#33312C" stroke-width="0.15" stroke-miterlimit="10" d="M11.7,87.3c0.1-0.1,0.2-0.2,0.4-0.3
				c0.3-0.1,0.6-0.1,0.8-0.2c0.1-0.1,0.2-0.2,0.4-0.2c0.1,0,0.1,0,0.2,0c0.1,0,0.2-0.2,0.3-0.3c0.1-0.2,0.4-0.2,0.6-0.2"/>
			<path fill="none" stroke="#33312C" stroke-width="0.15" stroke-miterlimit="10" d="M11.9,88c0.4-0.2,0.8-0.4,1.2-0.4
				c0.1,0,0.3,0,0.4-0.1c0.2-0.1,0.3-0.2,0.5-0.3c0.3-0.2,0.6-0.4,0.9-0.6"/>
			<path fill="none" stroke="#33312C" stroke-width="0.15" stroke-miterlimit="10" d="M12.2,88.6c0.2-0.2,0.4-0.3,0.6-0.3
				c0.2,0,0.4,0,0.5-0.1c0.4-0.1,0.7-0.4,1-0.5c0.2-0.1,0.4,0,0.6-0.1c0.2-0.1,0.4-0.2,0.6-0.4"/>
			<path fill="none" stroke="#33312C" stroke-width="0.15" stroke-miterlimit="10" d="M6.3,89.5c-0.1,0.1,0,0.3,0.1,0.4
				c0-0.2,0-0.3,0.1-0.5c0.1,0.1,0.1,0.3,0.2,0.4c0.1-0.1,0.1-0.3,0.1-0.4c0,0,0.1,0,0.1,0.1S7,89.6,7,89.6c0-0.1,0.1-0.3,0.2-0.2
				c0,0,0,0,0.1,0s0.1-0.1,0.2-0.1c0.1-0.1,0.3-0.1,0.4-0.1c0,0,0,0,0-0.1"/>
			<path fill="none" stroke="#33312C" stroke-width="0.15" stroke-miterlimit="10" d="M5.7,90c0.2-0.2,0.4-0.2,0.7-0.2
				c0.7,0,1.5-0.2,2.2-0.4h0.1l0,0"/>
			<path fill="none" stroke="#33312C" stroke-width="0.15" stroke-miterlimit="10" d="M7.3,90.7C7.3,90.7,7.2,90.7,7.3,90.7
				c-0.1,0.1-0.1,0.2-0.1,0.3c0.2,0.1,0.5,0,0.6-0.3"/>
			<path fill="none" stroke="#33312C" stroke-width="0.15" stroke-miterlimit="10" d="M7.8,90.5c0,0.1,0.1,0.2,0.2,0.2
				c0.1,0,0.2-0.1,0.2-0.2c-0.1,0-0.2,0-0.3,0c0.1-0.1,0.2-0.2,0.4-0.2c0,0.1,0.1,0.2,0.2,0.2h0.2c0-0.1-0.1-0.2-0.1-0.3
				c0.1,0.1,0.1,0.1,0.2,0.2c0-0.1,0-0.1,0-0.2c0.1,0,0.2,0.1,0.3,0.2c-0.1,0.1-0.3,0.3-0.4,0.3c0.2-0.1,0.5-0.3,0.7-0.4"/>
			<path fill="none" stroke="#33312C" stroke-width="0.15" stroke-miterlimit="10" d="M9,89.7c0.2,0.2,0.3,0.4,0.5,0.7
				c-0.1-0.2-0.2-0.3-0.3-0.5c0.1-0.1,0.2-0.1,0.3,0c0.1,0.1,0.1,0.2,0.2,0.3c0,0.1,0,0.2,0,0.3c-0.5,0.3-1.1,0.4-1.6,0.7
				c-0.2,0.1-0.4,0.2-0.6,0.2v-0.1c0.1,0,0.2-0.1,0.3,0"/>
			<path fill="none" stroke="#33312C" stroke-width="0.15" stroke-miterlimit="10" d="M7.9,92.7c0.2,0.1,0.4,0,0.6,0
				c0.9-0.3,1.7-0.5,2.6-0.8c0.1,0,0.2-0.1,0.3-0.1c0.1-0.1,0.1-0.2,0.1-0.3s-0.2-0.2-0.4-0.2c-0.5,0-1,0.2-1.4,0.4
				C9.3,91.8,9,91.9,8.6,92c-0.2,0-0.4,0.1-0.5,0.2C8,92.3,7.8,92.5,7.9,92.7z"/>
			<path fill="none" stroke="#33312C" stroke-width="0.15" stroke-miterlimit="10" d="M8.5,92.3c0.2,0,0.4-0.2,0.7-0.2
				c0.1,0,0.2,0,0.3,0c0.1-0.1,0.2-0.3,0.3-0.3c0.1-0.1,0.2,0,0.3,0s0.2,0,0.3,0c0-0.1,0.1,0,0.2,0c0.1,0,0.2,0,0.2,0
				c0,0.1,0.1,0.1,0.1,0.1c0-0.1,0.1-0.1,0.1-0.2"/>
			<path fill="none" stroke="#33312C" stroke-width="0.15" stroke-miterlimit="10" d="M15.4,91.9L15.4,91.9
				C15.3,91.9,15.3,91.9,15.4,91.9c-0.1-0.3-0.2-0.5-0.3-0.7s-0.3-0.3-0.3-0.5c0.4-0.2,0.8-0.4,1.2-0.5c0.1,0,0.1,0,0.2,0
				c0.1,0,0.2,0.1,0.2,0.1c0.3,0.3,0.5,0.6,0.6,1v0.1c0,0,0,0-0.1,0c-0.3,0.1-0.7,0.3-1,0.4C15.7,92,15.5,92,15.4,91.9z"/>
			<path fill="none" stroke="#33312C" stroke-width="0.15" stroke-miterlimit="10" d="M15.6,90.8c0,0.1,0,0.1,0,0.1v0.3
				c0-0.4,0.6-0.2,0.5,0c0,0.1-0.1,0.1-0.2,0c-0.1-0.1-0.1-0.1-0.1-0.2h0.1l0.1,0.2c0,0,0,0,0-0.1c-0.1,0-0.2-0.1-0.2-0.1
				c-0.1,0.1-0.1,0.2-0.2,0.3c0,0.1,0,0.2,0.1,0.3c0,0,0.1,0,0.2,0c0.2,0,0.3-0.1,0.5-0.2c0,0,0.1,0,0.1-0.1v-0.1
				c0-0.8-0.8-0.7-1.3-0.4"/>
			<path fill="none" stroke="#33312C" stroke-width="0.15" stroke-miterlimit="10" d="M16.1,89.3c-0.6,1.1-1.1,2.3-1.5,3.5
				c0.4-0.7,0.7-1.6,1.2-2.3c-0.1,0.5-0.1,1-0.2,1.6c0.1-0.4,0.3-0.8,0.6-1.1c0.1,0.4,0.1,0.8,0.3,1.3c0.1-0.3,0.3-0.6,0.5-0.9
				l0.1,0.1"/>
			<path fill="none" stroke="#33312C" stroke-width="0.15" stroke-miterlimit="10" d="M19.2,92.3c0.2,0,0.8,1.1,0.9,1.3
				c-0.5,0.3-1.1,0.6-1.6,0.9c-0.6,0.3-0.7-0.8-0.9-1.2c-0.2-0.4,0-0.6,0.4-0.7C18.4,92.4,18.8,92.4,19.2,92.3z"/>
			<path fill="none" stroke="#33312C" stroke-width="0.15" stroke-miterlimit="10" d="M18.1,93c-0.1,0.1,0,0.2,0,0.4
				c0.1,0.1,0.1,0.2,0.2,0.3c0,0,0,0.1,0.1,0.1c0,0,0,0,0.1,0c0.2,0,0.5,0,0.6-0.1c0.2-0.2,0.1-0.5-0.1-0.6
				c-0.2-0.2-0.4-0.2-0.7-0.1C18.2,92.9,18.1,92.9,18.1,93z"/>
			<path fill="none" stroke="#33312C" stroke-width="0.15" stroke-miterlimit="10" d="M18.5,93.4c0.1,0,0.1-0.2,0.1-0.3
				c-0.1-0.1-0.3,0-0.3,0.1s0.1,0.3,0.2,0.3h0.1c0.1,0,0.1-0.1,0.2-0.1c0.1,0,0-0.1-0.1-0.2c0.1-0.1,0.2-0.1,0.3-0.1
				c0,0.1,0.1,0.2,0,0.3c-0.1,0-0.2-0.1-0.2-0.2S18.9,93,19,93c0.1,0,0.2-0.1,0.3-0.1"/>
			<path fill="none" stroke="#33312C" stroke-width="0.15" stroke-miterlimit="10" d="M11,95.2v0.1c0-0.1,0-0.3,0-0.4
				c0.1,0.1,0.2,0.2,0.4,0.3c0,0,0.1,0.1,0.1,0c0,0,0-0.1,0.1-0.1c0-0.1,0-0.1,0.1-0.2c0.1,0,0.2,0,0.3,0c0-0.1,0-0.3,0.2-0.4
				c0,0,0.1,0,0.2,0c0.2,0,0.4-0.1,0.6-0.2c0.3-0.2,0.7-0.3,1-0.4"/>
			<path fill="none" stroke="#33312C" stroke-width="0.15" stroke-miterlimit="10" d="M11.2,96.1c0.2-0.4,0.7-0.6,1.1-0.7
				c0.4-0.1,0.9-0.2,1.2-0.5c0.2-0.1,0.4-0.3,0.7-0.4c0.2-0.1,0.4,0,0.7,0c0.2,0,0.5-0.1,0.6-0.2"/>
			<path fill="none" stroke="#33312C" stroke-width="0.15" stroke-miterlimit="10" d="M15.9,96L15.9,96c-0.1,0-0.2,0.1-0.2,0.1
				s0,0.1-0.1,0.2c0,0.3,0.2,0,0.4,0.2c-0.1,0-0.2,0-0.2,0.1s0,0.2,0,0.3c0,0.1,0,0.2,0,0.3c0.1,0.2,0.3,0.3,0.5,0.3
				c0.1,0,0.3,0.1,0.4,0.1c0.2,0,0.4-0.2,0.5-0.4c0.2-0.4,0.1-0.8-0.2-1.1c-0.2-0.2-0.6-0.3-0.9-0.2c-0.2,0.2-0.2,0.6-0.1,0.8
				c0-0.2,0-0.4,0-0.7c0.1,0.3,0.1,0.6,0.2,1c0-0.3,0-0.5,0-0.8c0,0.2,0.1,0.5,0.1,0.7c0-0.2,0-0.5,0-0.7c0,0.3,0.1,0.6,0.3,0.8
				c0-0.3,0-0.6-0.1-0.9c0,0.3,0.1,0.7,0.3,1c0-0.3,0-0.5-0.1-0.8c0.1,0.3,0.1,0.6,0.3,0.8c0-0.2,0-0.4,0-0.7
				c0.1,0.2,0.1,0.4,0.2,0.6c0-0.3-0.1-0.5-0.2-0.7c0,0.1-0.1,0.1-0.2,0.1c-0.1,0-0.1-0.1-0.2-0.2c0-0.1-0.1-0.1-0.2-0.1
				c0,0.1,0,0.2,0,0.2c0-0.1,0-0.2,0-0.3c0,0.1,0,0.2,0.1,0.3"/>
			<path fill="none" stroke="#33312C" stroke-width="0.15" stroke-miterlimit="10" d="M12.2,98.3L12.2,98.3l-0.1-0.1
				c0.2-0.1,0.3-0.2,0.5-0.3c0.1,0.2,0.2,0.3,0.3,0.5c-0.1-0.1-0.1-0.2-0.3-0.2C12.4,98.1,12.3,98.2,12.2,98.3
				c0.1-0.1,0.1-0.2,0.2-0.3c-0.1,0-0.1,0.1-0.2,0.1c0-0.1,0.1-0.1,0.2-0.2c-0.1,0.1-0.2,0.1-0.2,0.2c0.1,0,0.3-0.1,0.4-0.1
				c0.1,0.1,0,0.2-0.1,0.2c-0.1,0.1-0.2,0.1-0.2,0.2c0.1,0,0.2-0.1,0.3-0.1c-0.1,0.1-0.1,0.1-0.2,0.2c0.1,0,0.2-0.1,0.4-0.1
				c-0.1,0.1-0.2,0.1-0.2,0.2c0.1,0,0.1-0.1,0.2-0.1l-0.1,0.1c0.1,0,0.2,0,0.3,0c-0.1,0.1-0.2,0.1-0.3,0.2c0.1,0,0.1,0,0.2-0.1
				c-0.1,0.1-0.2,0.1-0.3,0.2C12.5,98.6,12.1,98.3,12.2,98.3z"/>
			<path fill="none" stroke="#33312C" stroke-width="0.15" stroke-miterlimit="10" d="M12.1,97.7c0.1-0.1,0.1-0.2,0.1-0.2
				s-0.2-0.1-0.2,0C12,97.6,12,97.8,12.1,97.7c0,0.2,0.2,0.1,0.2,0s-0.1-0.2-0.2-0.2c-0.1,0-0.2,0-0.3,0c0.1-0.1,0.1-0.1,0.2-0.2
				c0,0-0.1,0.1,0,0.2c0,0,0.1,0,0.1-0.1C12.2,97.5,12.1,97.6,12.1,97.7c0-0.1,0-0.1,0.1-0.2v0.1C12.3,97.7,12.2,97.8,12.1,97.7
				l0.1-0.1"/>
			<path fill="none" stroke="#33312C" stroke-width="0.15" stroke-miterlimit="10" d="M21.7,84.1L21.7,84.1c-0.6-1-1.4-2.2-2.1-3.3
				l-0.1,0.1c-0.3,0.2-0.5,0.4-0.8,0.5c-0.5,0.3-1.2,0.5-1.6,0.9c0.2,0.2,0.4,0.5,0.6,0.7c0.3,0.4,0.7,0.8,1,1.3
				c0.3,0.4,0.5,0.7,0.8,1.1c0,0.1,0.1,0.2,0.2,0.2c0.1,0,0.2,0,0.2-0.1c0.2-0.1,0.3-0.2,0.5-0.4C20.7,84.9,21.1,84.4,21.7,84.1
				c0,0,0.2,0,0.3-0.1"/>
			<path fill="none" stroke="#33312C" stroke-width="0.15" stroke-miterlimit="10" d="M19.3,80.3c0.8,1.1,1.6,2.2,2.3,3.3
				c0.2,0.3,0.4,0.6,0.7,0.9"/>
			<path fill="none" stroke="#33312C" stroke-width="0.15" stroke-miterlimit="10" d="M23.1,83.5c-0.5,0.5-1.3,0.6-1.9,1
				c-0.3,0.2-0.5,0.4-0.8,0.7c-0.2,0.3-0.5,0.5-0.7,0.8"/>
			<path fill="none" stroke="#33312C" stroke-width="0.15" stroke-miterlimit="10" d="M20,84.4c-0.1,0.1-0.1,0.2-0.2,0.2h-0.1
				c-0.1,0-0.2-0.2-0.2-0.3l-0.1,0.1c0-0.2-0.1-0.4-0.1-0.6c0-0.1-0.1-0.2-0.2-0.2c0.1,0,0.1,0.2,0.1,0.2s-0.1,0.2-0.1,0.3
				s0.1,0.2,0.1,0.3c-0.2-0.3-0.4-0.6-0.3-1c0-0.4,0.2-0.3,0.4-0.6c0,0,0,0,0-0.1"/>
			<path fill="none" stroke="#33312C" stroke-width="0.15" stroke-miterlimit="10" d="M19.6,82.9c0-0.1,0.2-0.2,0.3-0.1
				s0.2,0.2,0.2,0.4c0.1,0.3,0.1,0.5,0.2,0.8c0.1-0.1,0.2-0.2,0.3-0.2c0,0.3,0.1,0.6,0.3,0.8"/>
			<path fill="none" stroke="#33312C" stroke-width="0.15" stroke-miterlimit="10" d="M19.9,84.8c-0.1,0,0,0.2,0.1,0.2
				c0.1,0,0.2-0.1,0.2-0.1c0.1-0.1,0.2-0.2,0.3-0.4c-0.1,0-0.2,0-0.3,0.1C20.2,84.5,19.9,84.9,19.9,84.8z"/>
			<path fill="none" stroke="#33312C" stroke-width="0.15" stroke-miterlimit="10" d="M18.7,82c-0.1,0.2-0.1,0.4,0,0.6
				c0.1,0.2,0.4,0.2,0.6,0.1c0.1,0,0.1-0.1,0.1-0.1c0-0.1,0-0.2,0-0.2c0-0.1-0.1-0.3-0.2-0.4c-0.1-0.1-0.2-0.1-0.4-0.1
				c-0.2,0.1-0.3,0.4-0.4,0.6c0,0.1,0,0.2,0,0.3c0.1,0.1,0.3,0.1,0.5,0.1"/>
			<path fill="none" stroke="#33312C" stroke-width="0.15" stroke-miterlimit="10" d="M17.5,82.3c0,0.1,0.2,0.1,0.2,0.1
				c0-0.1,0-0.2,0-0.2c0.1,0,0.1,0.1,0.2,0.2c0-0.1,0-0.2,0.1-0.3c0.1,0,0.1,0,0.2-0.1c0,0,0.1-0.1,0-0.1h0.1"/>
			<path fill="none" stroke="#33312C" stroke-width="0.15" stroke-miterlimit="10" d="M20.3,80.6c0,0.3,0,0.6,0.1,0.9
				c0,0.1,0,0.2,0.1,0.2h0.1c0.1-0.1,0.2-0.2,0.3-0.4"/>
			<path fill="none" stroke="#33312C" stroke-width="0.15" stroke-miterlimit="10" d="M20.6,81.4c0.2-0.8,0.7-1.5,1.3-2
				c0.7-0.5,1.5-0.7,2.3-0.6"/>
			<path fill="none" stroke="#33312C" stroke-width="0.15" stroke-miterlimit="10" d="M23.2,79.9c0.1,0.1,0.3,0.3,0.4,0.4
				c0-0.2,0-0.4,0-0.5v-0.1l0,0c0.1,0,0.1,0.1,0.2,0.1c0-0.2,0.1-0.3,0.2-0.4c0,0,0,0.1,0.1,0.1c0-0.1,0-0.1,0-0.2
				c0,0.1,0.1,0.1,0.1,0.2c0.1-0.2,0.2-0.4,0.4-0.4c0.1,0,0.3,0,0.2,0.1c0.1-0.3,0.4-0.6,0.7-0.7"/>
			<path fill="none" stroke="#33312C" stroke-width="0.15" stroke-miterlimit="10" d="M24.2,80.2v0.1C24.1,80.2,24.2,80.1,24.2,80.2
				c0.2-0.1,0.2-0.1,0.3-0.2c0.1-0.1,0.1-0.2,0.2-0.2c0.1,0,0.2,0,0.3-0.1c0,0,0-0.1,0.1-0.2h0.1c0.1,0,0.2-0.3,0.3-0.3
				c0,0,0,0,0.1,0l0,0c0.1-0.1,0.1-0.1,0.2-0.2"/>
			<path fill="none" stroke="#33312C" stroke-width="0.15" stroke-miterlimit="10" d="M24.8,80.4c0-0.1,0-0.2,0.1-0.2
				s0.2-0.1,0.3-0.1c0.1,0,0.3-0.1,0.4-0.2c0.1-0.1,0.1-0.1,0.2-0.2c0.1-0.1,0.1-0.1,0.2-0.2c0.1-0.1,0.2-0.2,0.3-0.3"/>
			<path fill="none" stroke="#33312C" stroke-width="0.15" stroke-miterlimit="10" d="M23.9,81.9c0-0.1,0-0.2,0-0.3
				c0.1,0,0.2,0.1,0.2,0.2c0.5-0.5,1-0.9,1.7-1.2c0.3-0.2,0.7-0.4,0.9-0.7c0.1-0.1,0.1-0.2,0.2-0.3c0.2-0.2,0.6,0,0.8-0.2"/>
			<path fill="none" stroke="#33312C" stroke-width="0.15" stroke-miterlimit="10" d="M27.4,80c-0.1-0.1-0.2-0.1-0.3-0.1
				c0,0.1,0,0.2,0,0.3L27,80.1v0.1l-0.1-0.1c0,0.1-0.1,0.2-0.2,0.2c-0.1,0.1-0.1,0.2-0.1,0.3c-0.1-0.1-0.1-0.1-0.2-0.1
				c-0.1,0.1,0,0.3-0.1,0.3h-0.1c-0.2,0-0.3,0.2-0.3,0.4c-0.1,0-0.2-0.1-0.2-0.1c-0.1,0,0,0.1,0,0.2c0,0.1,0,0.2-0.1,0.1
				c0,0,0,0-0.1,0c-0.1,0-0.1,0.1-0.1,0.1c0,0.1,0,0.1,0,0.2c-0.1-0.1-0.2-0.2-0.2-0.2s-0.1,0-0.1,0.1c-0.1,0.1-0.1,0.2-0.2,0.3
				c-0.1,0.1-0.1,0.3-0.2,0.4l-0.1-0.1c0,0.1,0,0.1,0,0.1"/>
			<path fill="none" stroke="#33312C" stroke-width="0.15" stroke-miterlimit="10" d="M24.1,86.4c0.5-0.7,1.2-0.6,1.5,0.2
				c-0.5,0.1-0.9,0.4-1.3,0.7l0,0l0,0"/>
			<path fill="none" stroke="#33312C" stroke-width="0.15" stroke-miterlimit="10" d="M24.5,86.7c0.1-0.1,0.2-0.2,0.3-0.2
				c0.1-0.1,0.3-0.3,0.5-0.2l0.1,0.1l0,0C25.1,86.6,24.9,86.7,24.5,86.7c0,0.1-0.2,0.1-0.3,0.1c-0.1-0.1-0.1-0.2,0-0.3
				c0-0.1,0.1-0.2,0.2-0.2c0.1-0.1,0.3-0.2,0.5-0.2c0,0.1,0,0.2,0,0.3C24.8,86.5,24.7,86.7,24.5,86.7z"/>
			<path fill="none" stroke="#33312C" stroke-width="0.15" stroke-miterlimit="10" d="M24,86.3c0,0,0,0.1,0,0.2
				c-0.1,0.3,0.1,0.6,0.2,0.9"/>
			<path fill="none" stroke="#33312C" stroke-width="0.15" stroke-miterlimit="10" d="M25.1,84.5c0,0.1,0.1,0.2,0.2,0.3
				c0.5,0.5,0.9,1.1,1.2,1.7c0-0.1-0.1-0.2-0.1-0.3"/>
			<path fill="none" stroke="#33312C" stroke-width="0.15" stroke-miterlimit="10" d="M25.2,84.2c0.2-0.5,0.7-0.7,1.1-0.9
				c0.1-0.1,0.2-0.1,0.4-0.1s0.4,0.2,0.6,0.4c0.4,0.5,0.9,1.1,1.2,1.7c0.1,0.4-0.1,0.4-0.4,0.6c-0.3,0.2-0.7,0.4-1,0.6
				c-0.1,0.1-0.2,0.1-0.3,0.1c-0.1,0-0.2,0-0.2-0.1"/>
			<path fill="none" stroke="#33312C" stroke-width="0.15" stroke-miterlimit="10" d="M25.6,84.3c0.2-0.2,0.3-0.3,0.5-0.4
				c0.2-0.1,0.4-0.2,0.6-0.1c0,0,0,0-0.1,0c-0.4,0.2-0.8,0.4-1.2,0.6c-0.1,0-0.1,0.1-0.1,0.2c0,0,0,0.1,0.1,0.1
				c0.2,0.2,0.2,0.4,0.4,0.5s0.3,0,0.5-0.2c0.1-0.1,0.2-0.3,0.4-0.4c0.1-0.1,0.2-0.1,0.3-0.2c0.1-0.1,0.2-0.2,0.2-0.3
				s-0.1-0.1-0.1-0.2c-0.1-0.1-0.2-0.1-0.3-0.2l0.1,0.1c0,0,0,0.1-0.1,0.1"/>
			<path fill="none" stroke="#33312C" stroke-width="0.15" stroke-miterlimit="10" d="M25.8,84.6C25.7,84.6,25.7,84.6,25.8,84.6
				C25.7,84.6,25.8,84.6,25.8,84.6c0.2,0,0.3-0.1,0.5-0.2c0,0.1,0.1,0.1,0.1,0.1c0.1,0,0.1-0.1,0.1-0.2c0-0.1,0.1-0.2,0.2-0.3
				c0.1-0.1,0.2-0.1,0.3,0"/>
			<path fill="none" stroke="#33312C" stroke-width="0.15" stroke-miterlimit="10" d="M26.6,85.8C26.6,85.7,26.5,85.7,26.6,85.8
				c-0.1,0.1-0.1,0.2,0,0.2c0.1,0,0.2,0,0.3,0c0.3,0,0.6-0.1,0.8-0.4c0.1-0.2,0.2-0.4,0.2-0.6v-0.1l-0.1-0.1
				c-0.3-0.1-0.6-0.1-0.8,0.1c-0.2,0.2-0.3,0.5-0.2,0.8C26.8,85.7,26.5,85.8,26.6,85.8z"/>
			<path fill="none" stroke="#33312C" stroke-width="0.15" stroke-miterlimit="10" d="M27.1,85.6L27.1,85.6L27.1,85.6
				c0.1-0.2,0.1-0.3,0.1-0.5c-0.1,0-0.1,0.1-0.1,0.2C27.1,85.4,27.1,85.5,27.1,85.6c0.1,0,0.1-0.1,0.1-0.1c0.1-0.1,0.1-0.3,0-0.4"/>
			<path fill="none" stroke="#33312C" stroke-width="0.15" stroke-miterlimit="10" d="M23.2,90.7c0.1,0.2,0.3,0.4,0.5,0.4
				c0-0.2,0-0.3,0-0.5c0.1,0.1,0.2,0.1,0.4,0.1c0-0.1,0-0.3,0-0.4c0,0,0-0.1,0.1-0.1c0.1,0,0.1,0,0.2,0c0.1,0,0.1,0.1,0.1,0.2
				c0.2-0.3,0.4-0.5,0.7-0.8c0.1-0.2,0.3-0.4,0.5-0.4"/>
			<path fill="none" stroke="#33312C" stroke-width="0.15" stroke-miterlimit="10" d="M24.1,91.5c0.2,0,0.4-0.3,0.4-0.5v-0.1
				c0,0,0,0,0.1,0c0.1,0,0.2,0.1,0.2,0.1c0.1,0,0.2-0.1,0.3-0.2c0.1-0.1,0.2-0.2,0.3-0.3c0.2-0.2,0.3-0.4,0.4-0.6"/>
			<path fill="none" stroke="#33312C" stroke-width="0.15" stroke-miterlimit="10" d="M29,86.5c0,0.3,0.2,0.5,0.4,0.5
				c0-0.1,0-0.2,0-0.3c-0.1,0-0.1,0-0.2,0.1C29.2,86.8,29,86.4,29,86.5z"/>
			<path fill="none" stroke="#33312C" stroke-width="0.15" stroke-miterlimit="10" d="M30,86.3c0-0.1,0.1-0.2,0.2-0.3
				c0,0.1,0.2,0,0.3,0c0.1,0,0.1-0.1,0.1-0.1s0.1-0.1,0.2-0.1"/>
			<path fill="none" stroke="#33312C" stroke-width="0.15" stroke-miterlimit="10" d="M31.5,85c0.1,0,0.2-0.1,0.2-0.2"/>
			<path fill="none" stroke="#33312C" stroke-width="0.15" stroke-miterlimit="10" d="M29.3,88.6C29.3,88.7,29.3,88.7,29.3,88.6
				C29.3,88.7,29.3,88.6,29.3,88.6c0-0.4,0-0.7,0-1.1c0,0.2,0.1,0.4,0.2,0.6l0,0C29.6,88.2,29.3,88.6,29.3,88.6z"/>
			<path fill="none" stroke="#33312C" stroke-width="0.15" stroke-miterlimit="10" d="M29.5,87.4L29.5,87.4
				C29.4,87.4,29.4,87.4,29.5,87.4c-0.1,0.3,0,0.5,0.1,0.6c0-0.1,0-0.2,0-0.3c0,0.1,0,0.1,0,0.2"/>
			<path fill="none" stroke="#33312C" stroke-width="0.15" stroke-miterlimit="10" d="M30.4,87.5L30.4,87.5c0-0.2,0.1-0.5,0.4-0.7
				c0,0.1,0.1,0.1,0.1,0.1c0.1,0,0.1-0.1,0.2-0.1c0-0.1,0.1-0.1,0.1-0.2c0.1-0.1,0.2-0.1,0.3-0.1c0.2-0.1,0.2-0.3,0.3-0.5
				c0.1-0.2,0.2-0.3,0.4-0.4"/>
			<path fill="none" stroke="#33312C" stroke-width="0.15" stroke-miterlimit="10" d="M29.6,88.7c-0.1,0.2,0.1,0.5,0.3,0.5
				c0-0.1,0-0.1,0-0.2c0,0.1,0,0.1,0.1,0.1c0-0.1,0-0.2,0-0.3C30.1,88.9,29.6,88.7,29.6,88.7z"/>
			<path fill="none" stroke="#33312C" stroke-width="0.15" stroke-miterlimit="10" d="M30.7,88.6C30.7,88.6,30.7,88.7,30.7,88.6
				c0.1-0.1,0.2-0.3,0.4-0.3c0.1,0,0.2,0,0.2-0.1l0.1-0.1c0.1-0.2,0.2-0.5,0.4-0.6c0.1,0,0.2,0,0.3-0.1c0.4-0.1,0.6-0.8,1-0.8"/>
			<path fill="none" stroke="#33312C" stroke-width="0.15" stroke-miterlimit="10" d="M30.3,90.3c0-0.2,0-0.4,0-0.6
				C30.4,89.8,30.2,90.1,30.3,90.3z"/>
			<path fill="none" stroke="#33312C" stroke-width="0.15" stroke-miterlimit="10" d="M30.9,89.8L30.9,89.8
				C31,89.8,31,89.8,30.9,89.8c0.1-0.3,0.3-0.5,0.5-0.6c0,0.1,0.1,0.2,0.2,0.2c0.1,0,0.2-0.1,0.3-0.2c0.4-0.6,0.8-1.4,1.5-1.8"/>
			<path fill="none" stroke="#33312C" stroke-width="0.15" stroke-miterlimit="10" d="M30.5,89.8v0.1c-0.1,0-0.1,0-0.1-0.1
				c0.1,0,0.2,0.1,0.2,0.2v0.1c0,0,0-0.1,0,0"/>
			<path fill="none" stroke="#33312C" stroke-width="0.15" stroke-miterlimit="10" d="M24.5,92.4c0.1,0,0.3,0,0.4-0.1
				c0.1-0.1,0.2-0.2,0.2-0.3c0.2-0.3,0.5-0.6,0.8-0.8c0.1-0.1,0.2-0.2,0.4-0.3c0.1,0,0.2,0,0.3-0.1c0.1-0.1,0.2-0.2,0.2-0.4"/>
			<path fill="none" stroke="#33312C" stroke-width="0.15" stroke-miterlimit="10" d="M25.1,91.4c-0.1,0.1-0.2,0.1-0.3,0.1
				c0.3-0.2,0.7-0.4,0.9-0.7"/>
			<path fill="none" stroke="#33312C" stroke-width="0.15" stroke-miterlimit="10" d="M26.9,93c-0.1,0-0.3-0.1-0.5,0
				c0,0-0.1,0-0.1,0.1c-0.1,0.1,0,0.3,0.1,0.3c0.1,0.1,0.3,0.2,0.4,0.1C26.9,93.4,26.9,93.2,26.9,93c-0.2,0-0.4,0.1-0.6,0.2
				c-0.1,0.1-0.1,0.1-0.1,0.2c0,0,0,0.1,0.1,0.1c0.1,0.2,0.3,0.3,0.5,0.4c0.2,0,0.3,0,0.4-0.2c0.1-0.2,0.2-0.3,0.2-0.5v-0.1
				c-0.1-0.1-0.2-0.2-0.3-0.2c-0.1,0-0.2-0.1-0.4,0c-0.1,0-0.2,0.1-0.2,0.2s0,0.1,0,0.2c0.1,0.1,0.2,0.2,0.4,0.1
				c0.1-0.1,0.2-0.3,0-0.3c-0.1-0.1-0.2,0-0.3,0.1c-0.1,0.1-0.1,0.2,0,0.3c0.1,0.1,0.1,0.1,0.2,0.1c0.2,0,0.2-0.3,0.1-0.4
				c-0.1-0.1-0.1-0.1-0.2-0.1c-0.1,0-0.2,0.1-0.2,0.2s0.1,0.2,0.2,0.1c0-0.1,0-0.2,0-0.4c-0.1,0.1-0.2,0.2-0.2,0.3
				c0,0.1,0.1,0.3,0.2,0.3c0.1-0.1,0.2-0.3,0-0.4c-0.1-0.1-0.3,0-0.4,0.1c-0.1,0.1,0,0.3,0.2,0.4c0.2,0,0.3-0.1,0.3-0.3
				c0-0.1,0-0.1-0.1-0.2c-0.1-0.1-0.1-0.1-0.2-0.1c-0.2,0-0.4,0.1-0.4,0.3c0,0.1,0,0.2,0,0.2h0.1c0.2-0.1,0.5-0.2,0.6-0.4
				c-0.1-0.1-0.4-0.1-0.4,0.1c0,0.1,0,0.2,0.1,0.3c0.1,0.1,0.2,0,0.3-0.1c0.1-0.1,0.1-0.2,0.1-0.3c-0.2-0.1-0.4-0.1-0.6,0
				c0,0.1,0,0.2,0.1,0.3c0.1,0.1,0.2,0.1,0.3,0.1c0.1-0.1,0.1-0.3,0-0.4c-0.1-0.1-0.1-0.1-0.2-0.1c-0.1,0-0.2,0-0.3,0.1
				c-0.1,0.1-0.1,0.4,0,0.5c0.1,0.1,0.4,0.1,0.5,0c0.1-0.1,0.1-0.4,0-0.5c-0.1-0.1-0.3-0.1-0.4,0c-0.1,0.1-0.2,0.2-0.1,0.3
				c0,0,0,0.1,0.1,0.1c0.1,0.1,0.3,0,0.4-0.1C27,93.3,27,93.1,26.9,93z"/>
			<path fill="none" stroke="#33312C" stroke-width="0.15" stroke-miterlimit="10" d="M27.7,92.4c-0.1,0.1,0,0.2,0,0.3
				c0.1,0.1,0.1,0.2,0.2,0.2c0.1,0,0.2,0.1,0.3,0.1c0.1,0,0.2-0.2,0.2-0.3c0-0.1-0.1-0.2-0.2-0.3C28,92.4,27.8,92.4,27.7,92.4
				c-0.1,0.1-0.1,0.3,0,0.5c0,0,0.1,0.1,0.2,0.1c0.1,0,0.3,0,0.4-0.1c0.1-0.1,0.1-0.3,0-0.4c-0.1-0.1-0.2-0.2-0.3-0.1
				c-0.1,0.1-0.1,0.2-0.1,0.3c0,0.1,0.2,0.2,0.3,0.1v-0.1c0-0.1,0-0.1-0.1-0.2s-0.1-0.1-0.2,0c0,0.1,0,0.2,0.1,0.3
				c0-0.1,0-0.2-0.1-0.3v0.1c0,0,0.1,0.1,0.1,0c0,0,0-0.1,0-0.2C28,92.6,27.6,92.4,27.7,92.4z"/>
		</g>
	</g>
	<g id="XMLID_2_">
		<g>
			<path fill="#1E212C" d="M26.6,96.5c0.1-0.1,0.1-0.2,0.1-0.2l12,2.1c0.1,0.1-0.1,1.3-0.2,1.3s-12-1.9-12-1.9s-0.1-0.1-0.1-0.2l0,0
				c0-0.1,0-0.2,0-0.4c0,0,0-0.1,0-0.2c0-0.2,0.1-0.3,0.1-0.4C26.5,96.6,26.6,96.5,26.6,96.5z M27.6,97L27.6,97
				C27.5,97,27.5,97,27.6,97C27.6,97.1,27.6,97.1,27.6,97L27.6,97z"/>
			<ellipse fill="#FFFFFF" cx="27.6" cy="97" rx="0" ry="0.1"/>
			<path fill="#0B0C10" d="M26.5,96.3C26.6,96.3,26.6,96.2,26.5,96.3h0.1c0,0,0,0.1-0.1,0.2v0.1c0,0.1-0.1,0.2-0.1,0.4
				c0,0.1,0,0.1,0,0.2c0,0.2,0,0.3,0,0.4l0,0c0,0.1,0.1,0.2,0.1,0.2l-0.1,0.1c0,0-0.3-0.3-0.1-1c0-0.1,0-0.2,0.1-0.2
				C26.4,96.5,26.5,96.4,26.5,96.3L26.5,96.3z"/>
			<path fill="#2E4664" d="M26.5,96.3L26.5,96.3c0,0.1-0.1,0.2-0.1,0.3l-4.2-0.7c0,0,0,0,0-0.1c0.1,0,3,0.4,3.4,0.5
				c0.4,0.1,0.7,0.1,0.7,0c0-0.1-4-0.6-4.1-0.6l0,0c0.1-0.1,0.1-0.2,0.1-0.2L26.5,96.3C26.6,96.2,26.6,96.3,26.5,96.3z"/>
			<path fill="#C2E7F3" d="M22.3,95.8c0.1,0,4.1,0.5,4.1,0.6c0,0.1-0.3,0.1-0.7,0C25.2,96.3,22.4,95.9,22.3,95.8
				C22.2,95.9,22.3,95.9,22.3,95.8L22.3,95.8z"/>
			<path fill="#111116" d="M22.5,97.1h-0.3l0,0l0,0c-0.1-0.2-0.1-0.4-0.1-0.6c0-0.1,0-0.2,0-0.2c0-0.1,0.1-0.2,0.1-0.3l4.2,0.7
				c0,0.1,0,0.1-0.1,0.2c-0.2,0.7,0.1,1,0.1,1l-1-0.2L22.5,97.1L22.5,97.1z M22.2,96.2L22.2,96.2L22.2,96.2L22.2,96.2L22.2,96.2z"/>
			<path fill="#1F2831" d="M25.5,97.7L25.5,97.7l1,0.2h0.1c0,0-0.1,0.2-0.2,0.2c0,0,0-0.1-0.1-0.2c0,0-0.3-0.1-0.5-0.1
				C25.6,97.7,25.5,97.7,25.5,97.7l-0.1,0.1l0,0h-0.2l-2.6-0.5l0,0c0,0,0,0,0-0.1c0-0.1,0.1-0.1,0.1-0.1l1.6,0.2l-1.2-0.2L22.6,97
				v-0.1l0,0l0,0C22.7,97.2,25.3,97.7,25.5,97.7z M23.8,97.6l-1.1-0.2h-0.1h-0.1h0.1c0,0,2.1,0.3,2.2,0.3c0.1,0-0.1-0.1-0.1-0.1
				L23.8,97.6z M26.2,98C26.3,98,26.3,98,26.2,98c0.1,0-0.5-0.2-0.5-0.2c-0.1,0,0,0,0,0S26.1,98,26.2,98z M25.5,97.8
				C25.6,97.8,25.6,97.8,25.5,97.8C25.5,97.7,25.3,97.8,25.5,97.8z"/>
			<path fill="#38393F" d="M26.3,98L26.3,98c-0.2,0-0.6-0.1-0.6-0.1s-0.1-0.1,0,0C25.7,97.8,26.3,98,26.3,98z"/>
			<path fill="#9A9B93" d="M22.5,97.5l2.6,0.5c0,0,0.1,0,0.2,0l0,0l0.1-0.1c0,0,0.2,0,0.3,0.1c0.2,0.1,0.5,0.1,0.5,0.1
				s0.1,0.1,0.1,0.2s-3.9-0.6-4-0.6c-0.1,0-0.1-0.1-0.1-0.1v-0.4l0,0c0,0,0,0.3,0.1,0.4L22.5,97.5z M26.3,98.1
				C26.3,98,26.3,98,26.3,98.1L26.3,98.1L26.3,98.1L26.3,98.1z M26.2,98.1C26.3,98.1,26.3,98.1,26.2,98.1c-0.1-0.1-0.7-0.3-0.7-0.3
				l-0.1,0.1h-0.1C25.3,98,26.2,98.1,26.2,98.1z"/>
			<path fill="#4D5248" d="M26.2,98.1C26.3,98.1,26.3,98.1,26.2,98.1c-0.1,0-1-0.1-1-0.1h0.1l0.1-0.1C25.5,97.9,26.2,98.1,26.2,98.1
				z"/>
			<path fill="#38393F" d="M25.5,97.7C25.6,97.8,25.6,97.8,25.5,97.7C25.3,97.8,25.5,97.7,25.5,97.7z"/>
			<path fill="#1F2831" d="M22.6,97.2l2.9,0.6l0,0C25.3,97.7,22.7,97.2,22.6,97.2L22.6,97.2z"/>
			<path fill="#0F182A" d="M24.8,97.8C24.8,97.8,25,97.8,24.8,97.8c0,0.1-2.1-0.3-2.1-0.3h-0.1c0-0.1,0.1,0,0.1,0h0.1l0,0l0,0
				l1.1,0.2l0,0l0,0L24.8,97.8z"/>
			<path fill="#090B0C" d="M23.1,97.3l1.2,0.2l-1.6-0.2c0,0-0.1,0-0.1,0.1s0,0.1,0,0.1l0,0h-0.2c-0.1,0-0.1-0.3-0.1-0.4h0.3
				c0,0-0.1,0.1,0,0.1C22.6,97.3,23.1,97.3,23.1,97.3z"/>
			<path fill="#090B0C" d="M22,96.5c0-0.1,0-0.1,0-0.2c0-0.1,0.1-0.2,0.1-0.3c0,0,0,0,0-0.1l0,0l0,0l0,0l0,0
				c0.1-0.1,0.1-0.1,0.1-0.1l0,0l0,0c0,0,0,0.1-0.1,0.2v0.1c0,0,0,0,0,0.1S22,96.4,22,96.5C22.1,96.3,22.1,96.4,22,96.5
				c0.1,0.2,0.1,0.4,0.2,0.6c0,0,0,0-0.1,0l0,0C22.1,97.1,22,96.9,22,96.5z"/>
			<path fill="#3A5D8D" d="M21.9,95.6C22,95.6,22,95.6,21.9,95.6h0.4c0,0,0,0-0.1,0.1H22l0.2,0.1l0,0h-0.3c0,0,0,0,0.1,0.1
				c0.1,0,0.1,0,0.2,0c0,0,0,0,0,0.1h-0.3l0,0l0,0c0,0,0,0-0.1,0l0,0l0,0l0,0l0,0c0,0,0,0,0-0.1l0,0C21.9,95.7,21.9,95.7,21.9,95.6
				C21.9,95.7,21.9,95.7,21.9,95.6L21.9,95.6z M22,95.7C22,95.7,22,95.6,22,95.7C22,95.6,21.9,95.6,22,95.7
				C21.9,95.7,21.9,95.7,22,95.7L22,95.7z M21.9,95.8C21.9,95.7,21.9,95.7,21.9,95.8C21.9,95.7,21.9,95.7,21.9,95.8L21.9,95.8
				L21.9,95.8z"/>
			<path fill="#C2E7F3" d="M22.7,97.4l1.1,0.2l0,0l0,0C23.8,97.6,22.8,97.4,22.7,97.4L22.7,97.4L22.7,97.4z"/>
			<path fill="#1F3955" d="M22.2,95.7C22.2,95.8,22.2,95.8,22.2,95.7c-0.1,0-0.3,0-0.2,0C22,95.7,22.2,95.7,22.2,95.7z"/>
			<path fill="#C2E7F3" d="M22.2,95.8C22.2,95.8,22.2,95.9,22.2,95.8c0,0-0.1,0-0.2,0c-0.1,0-0.1,0-0.1-0.1L22.2,95.8L22.2,95.8z"/>
			<ellipse fill="#172535" cx="22.1" cy="95.6" rx="0" ry="0"/>
			<path fill="#111A2B" d="M21.9,95.9h0.3c0,0.1-0.1,0.2-0.1,0.3c0,0.1,0,0.2,0,0.2l-0.3-0.1l0,0l0,0c0,0,0,0,0-0.1l0,0v-0.1l0,0
				l0,0l0,0l0,0V96l0,0l0,0l0,0v-0.1L21.9,95.9C21.8,95.9,21.8,95.9,21.9,95.9L21.9,95.9C21.8,95.9,21.8,95.9,21.9,95.9
				C21.8,95.9,21.9,95.9,21.9,95.9z M21.9,96C21.9,96,21.9,95.9,21.9,96C21.8,95.9,21.8,95.9,21.9,96C21.8,95.9,21.8,96,21.9,96
				C21.8,96,21.8,96,21.9,96z M21.8,96L21.8,96C21.8,96,21.7,96,21.8,96C21.7,96,21.8,96,21.8,96C21.8,96.1,21.8,96,21.8,96z
				 M21.8,96.2C21.8,96.2,21.8,96.1,21.8,96.2C21.7,96.1,21.7,96.1,21.8,96.2C21.7,96.2,21.7,96.2,21.8,96.2L21.8,96.2z M21.8,96.4
				C21.8,96.3,21.8,96.3,21.8,96.4C21.7,96.3,21.7,96.3,21.8,96.4C21.7,96.4,21.7,96.4,21.8,96.4C21.7,96.4,21.8,96.4,21.8,96.4z"/>
			<ellipse fill="#172535" cx="21.9" cy="95.7" rx="0" ry="0"/>
			<circle fill="#C2E7F3" cx="22.2" cy="96.2" r="0"/>
			<path fill="#172535" d="M21.9,95.9C21.9,95.9,21.8,95.9,21.9,95.9C21.8,95.9,21.8,95.9,21.9,95.9L21.9,95.9
				C21.8,95.9,21.8,95.9,21.9,95.9C21.8,95.9,21.8,95.9,21.9,95.9C21.8,95.9,21.8,95.8,21.9,95.9L21.9,95.9L21.9,95.9z"/>
			<circle fill="#C2E7F3" cx="21.8" cy="95.9" r="0"/>
			<ellipse fill="#172535" cx="21.8" cy="96" rx="0" ry="0"/>
			<ellipse fill="#172535" cx="21.8" cy="96.2" rx="0" ry="0"/>
			<path fill="#111116" d="M21.7,96.4l0.3,0.1c0,0.4,0.1,0.6,0.1,0.6L21.8,97c0,0-0.1,0-0.1-0.1c0,0,0,0,0-0.1l0,0l0,0v-0.1l0,0l0,0
				l0,0v-0.1l0,0C21.6,96.5,21.6,96.5,21.7,96.4C21.6,96.5,21.6,96.5,21.7,96.4C21.7,96.5,21.7,96.4,21.7,96.4z M21.7,96.5
				C21.8,96.5,21.7,96.5,21.7,96.5L21.7,96.5L21.7,96.5C21.7,96.6,21.7,96.5,21.7,96.5z M21.7,96.7C21.8,96.7,21.7,96.6,21.7,96.7
				C21.7,96.6,21.7,96.6,21.7,96.7L21.7,96.7L21.7,96.7z M21.8,96.8C21.8,96.8,21.7,96.8,21.8,96.8C21.7,96.8,21.7,96.8,21.8,96.8
				C21.7,96.8,21.7,96.8,21.8,96.8C21.7,96.8,21.8,96.8,21.8,96.8z M21.8,96.9L21.8,96.9C21.8,96.9,21.7,96.9,21.8,96.9
				C21.7,96.9,21.7,96.9,21.8,96.9L21.8,96.9z"/>
			<ellipse fill="#172535" cx="21.7" cy="96.3" rx="0" ry="0"/>
			<ellipse fill="#172535" cx="21.7" cy="96.5" rx="0" ry="0"/>
			<ellipse fill="#172535" cx="21.8" cy="96.7" rx="0" ry="0"/>
			<ellipse fill="#172535" cx="21.8" cy="96.8" rx="0" ry="0"/>
			<ellipse fill="#172535" cx="21.8" cy="96.9" rx="0" ry="0"/>
		</g>
	</g>
</g>
</svg>
