<?xml version="1.0" encoding="utf-8"?>
<!-- Generator: Adobe Illustrator 17.1.0, SVG Export Plug-In . SVG Version: 6.00 Build 0)  -->
<!DOCTYPE svg PUBLIC "-//W3C//DTD SVG 1.1//EN" "http://www.w3.org/Graphics/SVG/1.1/DTD/svg11.dtd">
<svg version="1.1" id="Calque_1" xmlns="http://www.w3.org/2000/svg" xmlns:xlink="http://www.w3.org/1999/xlink" x="0px" y="0px"
	 viewBox="0 0 460 236" enable-background="new 0 0 460 236" xml:space="preserve">
<g>
	<polygon fill="#F4F4F4" points="653.6,1013.1 644.5,985 626.8,997.6 630.5,1005.2 600,998.6 601.3,1010.7 603.7,1026.6 614.4,1042 
		623.9,1040.8 634.3,1048.8 652.6,1043.3 649.5,1033.7 659.1,1024.3 	"/>
	<path fill="#E8E8E8" d="M624.4,1004.2l-1.6,14.6l9.4,8.2l-6.2,15.5l-11.6-0.4c0,0-10.6-14.4-10.8-15.4s-4.3-28.1-3.7-28
		C600.6,998.7,624.4,1004.2,624.4,1004.2z"/>
	<path fill="#E9EDED" d="M646.7,1026.9l-9-10.3l8.9-7.6l-19.2,1.2c0,0-3.1,9.1,1,9.7c4.1,0.6,10.5,11.5,10.5,11.5L646.7,1026.9z"/>
	<polygon fill="#E0E0E0" points="622.6,1009.6 619.8,1014.3 614.3,1016.7 611.7,1024.1 607.2,1018 612.4,1013.5 616.7,1013.6 	"/>
	<path fill="#E9EDED" d="M653.5,1017.8c0.2,0.7,4.2,6.9,3.7,6.7c-0.5-0.2-5.8-0.5-5.8-0.5s-4,3.1-4,3.2c0,0.1,5.1-5.8,5.1-5.8
		l1.8,0.6L653.5,1017.8z"/>
	<path fill="#E9EDED" d="M631.4,998.5l9.4-7.8l-0.2,5.4l-5.1,2.9c0,0-4.3,7.9-4.2,7.5S631.4,998.5,631.4,998.5z"/>
	<path fill="#E0E0E0" d="M609.1,1002.6c0,0,7.4,2.4,6.8,2.3c-0.6,0-3.5,3.4-3.5,3.4l-4.7,1.2l-3.6,4.9L609.1,1002.6z"/>
	<path fill="#E0E0E0" d="M627.5,1022.1c-0.5,0.4,1.8,6.9,1.8,6.9s-4.2,4.3-4.4,4.8c-0.2,0.5-1.8,3.5-1.8,3.1c0-0.4,0.8-5.4,1.3-5.6
		s3-1.8,2.9-2.5C627.2,1028,627.5,1022.1,627.5,1022.1z"/>
</g>
<path opacity="0.46" fill="#D3C9B6" d="M387.1,870.7c5.2,0,36.7,52.5,36.7,52.5s69.6-23.6,77.4-26.2c7.9-2.6,17.1,0,40.7-3.9
	s126-2.6,114.2-5.2c-11.8-2.6-116.8-45.9-116.8-45.9L387.1,870.7z"/>
<g>
	<path fill="#FFFFFF" d="M380.1,858.1l48.6,55.1c0,0,73.5-34.1,81.4-35.4c7.9-1.3,149.6,3.9,148.3,0c-1.3-3.9-112.9-52.5-112.9-52.5
		l-97.1,10.5L380.1,858.1z"/>
	<path fill="none" stroke="#808285" stroke-miterlimit="10" d="M526,840.2c7.1-2.6,15.8,0.4,19.8,6.7c2.2,3.5,3.1,7.6,5.2,11.1
		c2.1,3.5,6.3,6.4,10.2,5"/>
	<path fill="none" stroke="#808285" stroke-miterlimit="10" d="M521.7,857c-9.1-6.9-19.1-12.5-29.8-16.6"/>
	<path fill="none" stroke="#808285" stroke-miterlimit="10" d="M453.5,862.8c-4.1,1.3-8.5-2.6-8.7-6.8c-1.5-30.5,58,0.8,66,8.7
		c-4.3,1.9-8.9,3.1-13.5,4.5c-1.4-3.7-2.8-7.4-4.2-11.2c1.8,0.2,3.7-0.2,5.2-1.3"/>
	<path fill="none" stroke="#808285" stroke-miterlimit="10" d="M537.2,860.9c-8.4-6.7-16.8-13.5-25.2-20.2c2.9-1.2,5.7-2.4,8.6-3.7"
		/>
	<path fill="none" stroke="#808285" stroke-miterlimit="10" d="M486.3,861.3c1.1-4.8-1.5-10.8-6.3-11.7c-4.8-0.9-9,3.4-13.9,4.3
		c-1.3,0.2-2.7,0.2-3.9,0.8c-3,1.4-3.4,5.7-2.1,8.8c2.2,5.4,8.1,9,13.9,8.6S485.1,867,486.3,861.3z"/>
	<path fill="none" stroke="#808285" stroke-miterlimit="10" d="M426.5,851c6.7,0.1,13.5,2.9,17.5,8.2c4,5.3,4.7,13.3,0.7,18.6
		c1-0.1,1.6,1.5,0.8,2.1c-10.6,3-22.9-2.1-28.2-11.7c-2.6-4.7-3.3-11.4,0.8-14.9C420.4,851.4,423.6,850.9,426.5,851z"/>
	<path fill="none" stroke="#808285" stroke-miterlimit="10" d="M453,887.4c0.5,0.6-1.3,0.5-0.9-0.3s1.4-0.7,2.3-0.7
		c5.2-0.2,9.2-8.6,13.5-5.8c0.9,1-0.3,2.7-1.6,2.6c-1.3-0.1-2.2-1.5-2.2-2.8c5.7,0,11.4,0,17.1,0"/>
	<path fill="none" stroke="#808285" stroke-miterlimit="10" d="M546.8,837.1c13.6,3.9,26.6,9.9,38.5,17.7"/>
</g>
<g>
	<path fill="#EE8185" d="M359,1041.4c-1.6,0.5-2.5,2.3-1.9,3.9l0.3,1c0.5,1.6,2.3,2.5,3.9,1.9l5.7-1.9c1.6-0.5,2.5-2.3,1.9-3.9
		l-0.3-1c-0.5-1.6-2.3-2.5-3.9-1.9L359,1041.4z"/>
	
		<rect x="418.8" y="969.1" transform="matrix(-0.3225 -0.9466 0.9466 -0.3225 -414.1923 1752.4001)" fill="#FBB02A" width="2.4" height="110.7"/>
	
		<rect x="418.1" y="966.8" transform="matrix(-0.3227 -0.9465 0.9465 -0.3227 -412.9332 1748.8311)" fill="#F9A11B" width="2.4" height="110.7"/>
	
		<rect x="419.6" y="971.3" transform="matrix(-0.3226 -0.9465 0.9465 -0.3226 -415.2466 1756.2034)" fill="#F8D506" width="2.4" height="110.7"/>
	<polygon fill="#FCF0CC" points="471.3,1003.2 486.1,1001.9 473.6,1010 	"/>
	<path fill="#603813" d="M481,1005.2l5.2-3.3l-6.1,0.5c0,0.5,0.1,1,0.3,1.5C480.4,1004.4,480.7,1004.8,481,1005.2z"/>
	
		<rect x="363.4" y="1041.8" transform="matrix(-0.3226 -0.9465 0.9465 -0.3226 -501.3736 1726.2263)" fill="#686969" width="7.2" height="1.4"/>
	
		<rect x="362.1" y="1042.3" transform="matrix(-0.3226 -0.9465 0.9465 -0.3226 -503.6212 1725.4877)" fill="#7D7D7D" width="7.2" height="1.4"/>
	
		<rect x="360.7" y="1042.7" transform="matrix(-0.3226 -0.9465 0.9465 -0.3226 -505.8056 1724.8291)" fill="#686969" width="7.2" height="1.4"/>
</g>
<g>
	<polygon fill="#F4F4F4" points="749.8,967 769.3,941.1 783.2,960.5 776.6,967 810.7,971 805,983.1 796.9,998.7 780.3,1010.9 
		770.8,1006.3 757.1,1010.9 740.1,998.7 746.8,989.9 740.1,976.7 	"/>
	<path fill="#E8E8E8" d="M783.3,968.1l-3.5,15.7l-12.6,5.1l0.9,18.3l12.2,3.7c0,0,16.1-11.1,16.6-12.2c0.5-1,14.5-27.6,13.8-27.7
		C810,971,783.3,968.1,783.3,968.1z"/>
	<path fill="#E9EDED" d="M752.1,983.8l13-7.6l-6.5-11.1l19.5,8.1c0,0,0,10.6-4.5,9.7c-4.5-0.8-15,8.2-15,8.2L752.1,983.8z"/>
	<polygon fill="#E0E0E0" points="783.3,974.4 784.5,980.3 789.4,984.8 789.4,993.3 796.3,988.6 792.4,982.1 788,980.7 	"/>
	<path fill="#E9EDED" d="M748.3,971.9c-0.5,0.6-6.8,5.6-6.2,5.6s6.2,1.5,6.2,1.5s3,4.7,3,4.8c0,0.1-3.2-7.8-3.2-7.8H746L748.3,971.9
		z"/>
	<path fill="#E9EDED" d="M778,959.8l-6.9-11.4l-1.7,5.7l4.3,4.8c0,0,1.7,9.7,1.7,9.3C775.3,967.7,778,959.8,778,959.8z"/>
	<path fill="#E0E0E0" d="M799.8,972c0,0-8.5-0.2-7.9,0s2.4,4.7,2.4,4.7l4.4,2.9l2,6.4L799.8,972z"/>
	<path fill="#E0E0E0" d="M773.7,985.6c0.4,0.6-4.3,6.5-4.3,6.5s2.9,5.9,2.9,6.5s0.6,4.3,0.8,3.8c0.2-0.5,1.1-5.9,0.7-6.2
		c-0.4-0.3-2.5-2.9-2.1-3.7S773.7,985.6,773.7,985.6z"/>
</g>
<g>
	<g>
		<path fill="#0E263A" d="M1077,1147.3h185.7c0.8-1.7,1.2-3.6,1.2-5.6V914.4c0-7.7-6.5-14-14.5-14H900.2c-8,0-14.5,6.3-14.5,14
			v227.3c0,2,0.4,3.9,1.2,5.6h187.7H1077z"/>
		<rect x="904.8" y="918.3" width="341.8" height="205.6"/>
		<path fill="#929496" d="M1078.5,911.2c0-1.5-1.2-2.7-2.8-2.7c-1.5,0-2.8,1.2-2.8,2.7c0,1.5,1.3,2.7,2.8,2.7
			C1077.3,913.9,1078.5,912.7,1078.5,911.2z"/>
	</g>
	<polygon fill="#BFC6C9" points="1257.2,1172.8 885.9,1172.8 855.2,1167.7 1289.7,1167.7 	"/>
	<polygon fill="#E9EDED" points="1260.9,1147 1309.2,1165.3 840.4,1164.6 887.7,1147 	"/>
	<rect x="841" y="1164.6" fill="#D0D2D3" width="464.5" height="4.3"/>
</g>
<text transform="matrix(1 0 0 1 918.8288 940.906)"><tspan x="0" y="0" fill="#FFFFFF" font-family="'MyriadPro-Regular'" font-size="8">&lt;div id=</tspan><tspan x="27.8" y="0" fill="#FFCE00" font-family="'MyriadPro-Regular'" font-size="8">»midlevel»</tspan><tspan x="63.2" y="0" fill="#FFFFFF" font-family="'MyriadPro-Regular'" font-size="8">&gt;&lt;h1&gt;kevin is the </tspan><tspan x="0" y="9.6" fill="#FF2A00" font-family="'MyriadPro-Regular'" font-size="8">&lt;strong&gt; </tspan><tspan x="33" y="9.6" fill="#FFFFFF" font-family="'MyriadPro-Regular'" font-size="8">best</tspan><tspan x="47.3" y="9.6" fill="#FF3C00" font-family="'MyriadPro-Regular'" font-size="8">&lt;/strong&gt;</tspan></text>
<text transform="matrix(1 0 0 1 921.4955 963.2393)"><tspan x="0" y="0" fill="#B066FF" font-family="'MyriadPro-Regular'" font-size="8">&lt;section&gt;</tspan><tspan x="33.6" y="0" fill="#FFFFFF" font-family="'MyriadPro-Regular'" font-size="8">&lt;h1&gt;kevin is the </tspan><tspan x="0" y="9.6" fill="#FF2A00" font-family="'MyriadPro-Regular'" font-size="8">&lt;strong&gt; </tspan><tspan x="33" y="9.6" fill="#FFFFFF" font-family="'MyriadPro-Regular'" font-size="8">best</tspan><tspan x="47.3" y="9.6" fill="#FF3C00" font-family="'MyriadPro-Regular'" font-size="8">&lt;/strong&gt;</tspan><tspan x="0" y="19.2" fill="#A764FF" font-family="'MyriadPro-Regular'" font-size="8">&lt;/section&gt;</tspan></text>
<text transform="matrix(1 0 0 1 921.863 993.3345)"><tspan x="0" y="0" fill="#FFFFFF" font-family="'MyriadPro-Regular'" font-size="8">because word colorless is so poor and sad</tspan><tspan x="0" y="9.6" fill="#FFFFFF" font-family="'MyriadPro-Regular'" font-size="8">&lt;div id=</tspan><tspan x="27.8" y="9.6" fill="#FFEC55" font-family="'MyriadPro-Regular'" font-size="8"> ‘close’</tspan><tspan x="49.9" y="9.6" fill="#FFFFFF" font-family="'MyriadPro-Regular'" font-size="8">&gt;close it now &lt;/div&gt;</tspan></text>
<g>
	<path fill="#E9EDED" d="M803.8,1310.6c0.2,5.1-7.8,7.3-15.1,7.6l-229.2,8.8c-7.3,0.3-18.5-4.9-22.7-8.4l-54.1-67.6
		c-0.2-5.1,5.6-9.5,12.9-9.8l216.3-8.3c9.5-0.9,12.6-0.6,21.5,8.4L803.8,1310.6z"/>
	<path d="M803.7,1307.7c0.2,5.1-7.8,7.3-15.1,7.6l-229.2,8.8c-7.3,0.3-18.5-4.9-22.7-8.4l-54.1-67.6c-0.2-5.1,5.6-9.5,12.9-9.8
		l216.3-8.3c9.5-0.9,12.6-0.6,21.5,8.4L803.7,1307.7z"/>
	<polygon fill="#313841" points="511.2,1244.9 565.3,1310.8 770.9,1302.6 705.3,1237.5 	"/>
</g>
<g>
	<polygon fill="#41B0D4" points="1057.6,829.6 829.8,829.6 823.2,821.7 1051.1,821.7 	"/>
	<g>
		<polygon fill="#49C7F1" points="1057.3,853.4 830,853.3 829.8,829.3 1057.6,829.3 		"/>
		<text transform="matrix(1 0 0 1 872.6848 846.6864)" fill="#FFFFFF" font-family="'LubalinGraph-Book'" font-size="13.9496">Responsive Webdesign</text>
		<polygon fill="#C7C8CA" points="823.2,821.7 823.3,847 830,853.7 830,829.6 		"/>
	</g>
</g>
<g>
	
		<rect x="836.1" y="670.8" transform="matrix(0.9991 -4.196650e-02 4.196650e-02 0.9991 -27.7949 40.2905)" fill="#85C469" width="219.2" height="22.7"/>
	<polygon fill="#FFFFFF" points="825.4,663.6 836.3,674.7 1055.1,666.5 1024.6,656.1 	"/>
	<polygon fill="#C7C8CA" points="825.4,663.6 825.4,683.7 836.9,697.7 835.9,674.3 	"/>
	
		<text transform="matrix(0.9995 -3.330000e-02 3.330000e-02 0.9995 905.0686 690.1337)" fill="#FFFFFF" font-family="'Bebas'" font-size="13.9498">HTML 5  /  CSS3</text>
</g>
<g>
	<polygon fill="#C7C8CA" points="1077.8,739 1075,764.1 1080.9,771.6 1083.6,747.6 	"/>
	<g>
		
			<rect x="1081.2" y="759.8" transform="matrix(0.9938 0.111 -0.111 0.9938 93.1936 -127.8414)" fill="#FFFFFF" width="227.8" height="27"/>
		<polygon fill="#ECECEB" points="1309.8,772.9 1083.4,747.6 1077.8,739 1304.2,764.2 		"/>
		<text transform="matrix(0.9937 0.1119 -0.1119 0.9937 1141.0729 769.506)"><tspan x="0" y="0" fill="#2253A1" font-family="'BookAntiqua'" font-size="13.9497">G</tspan><tspan x="10.6" y="0" fill="#EC3535" font-family="'BookAntiqua'" font-size="13.9497">o</tspan><tspan x="18.3" y="0" fill="#FED13F" font-family="'BookAntiqua'" font-size="13.9497">o</tspan><tspan x="25.9" y="0" fill="#2558A4" font-family="'BookAntiqua'" font-size="13.9497">g</tspan><tspan x="33.6" y="0" fill="#51B64E" font-family="'BookAntiqua'" font-size="13.9497">l</tspan><tspan x="37.7" y="0" fill="#EA232E" font-family="'BookAntiqua'" font-size="13.9497">e </tspan><tspan x="47.9" y="0" fill="#585B5C" font-family="'BookAntiqua'" font-size="10.8498">referencement</tspan></text>
	</g>
</g>
<g>
	<g>
		<path fill="#F4F4F4" d="M352.1,625.9c3.6,5.4-3.6,43.1,27,52.1c15.2,4.5,41.4,1.8,68,8.3c26.8,6.5,54.2,22.2,54.2,22.2L620.6,687
			l-73-27.1l-11.8-9.4l-12.7,3.5l-28.8-4c0,0-20-6.2-5.7-22.4S352.1,625.9,352.1,625.9z"/>
	</g>
	<path fill="none" stroke="#AA3D00" stroke-miterlimit="10" d="M391.4,657.5c3.5-0.2,7,0.4,10.4,0.7c8.9,0.7,17.7-1.1,26.4-3
		c6.1-1.3,12.3-2.5,18.4-3.8"/>
	<path fill="none" stroke="#AA3D00" stroke-miterlimit="10" d="M465.9,683.8c8.8,4.2,17.5,8.4,26.3,12.6c1.7,0.8,3.4,1.6,5.3,1.7
		c1.8,0.1,3.5-0.6,5.2-1.1c13.1-4.5,27-6.4,40.8-5.7c-12.5-6.9-25.1-13.7-37.7-20.4c-1.1-0.6-2.3-1.2-3.6-1.2
		c-1.2,0-2.4,0.7-3.5,1.2c-3.2,1.4-6.6,1.8-10.1,2.4c-9.5,1.6-19,4.5-28.7,4.4"/>
	<path fill="none" stroke="#AA3D00" stroke-miterlimit="10" d="M537.9,658.8c-0.7-0.2-1.4-0.5-2.2-0.5c-0.8,0-1.6,0.2-2.4,0.5
		c-7.3,2.2-14.7,4.5-22,6.7c6.6,2.9,13.1,5.7,19.7,8.6c2.6-2.3,6.2-2.8,9.7-3.5c5-1,9.9-2.5,14.6-4.5
		C549.7,663.2,543.9,660.8,537.9,658.8z"/>
	<path fill="none" stroke="#AA3D00" stroke-miterlimit="10" d="M560.8,689.9c12-1.5,24-2.9,36-4.4c-0.2-1-1.2-1.5-2.1-1.9
		c-8.1-3.6-16.3-7-24.5-10.3c-2.1-0.9-4.3-1.7-6.5-1.8c-2.6-0.1-5.1,0.8-7.6,1.7c-6.5,2.1-13.3,3.5-20.1,4c5.5,3.6,11,7.3,16.5,10.9
		c1.1,0.7,2.2,1.5,3.5,1.8C557.5,690.3,559.2,690.1,560.8,689.9z"/>
	<path fill="none" stroke="#AA3D00" stroke-miterlimit="10" d="M390.2,658.4c-0.5-0.8-1-1.5-1.5-2.3c-5.2-7.3-10.4-14.5-15.6-21.8
		c8.6-2.6,17.8-1.2,26.7-0.9c9.1,0.3,18.1-0.6,27.1-1.4c2-0.2,4.5-1,4.3-3c6.1,7.2,12.1,14.6,17.8,22.1c-1.6,0.1-3.2,0.3-4.9,0.4"/>
	<path fill="none" stroke="#AA3D00" stroke-miterlimit="10" d="M392.2,656.8c14.6-6.6,25.8-18.7,39.2-27.4c1.3-0.9,2.9-1.7,4.4-1.5"
		/>
	<path fill="none" stroke="#AA3D00" stroke-miterlimit="10" d="M375.1,635.5c-0.4,0.5,0.4,1,0.9,1.2c24.2,5.8,48.6,10.8,73.1,15"/>
	<path fill="none" stroke="#AA3D00" stroke-miterlimit="10" d="M456.7,633.4c-1.4,0.5-2.3,1.8-2.7,3.3c-0.3,1.4-0.1,2.9,0.3,4.3
		c1.4,3.9,5,6.9,9,7.9c4,1,8.4,0.2,12-1.7c0.5-0.3,1.1-0.6,1.4-1.2c0.2-0.5,0.1-1,0-1.6c-0.7-3.4-2.9-6.3-5.7-8.4s-6.1-3.4-9.3-4.5
		c-1.7-0.6-3.7-1.1-5.4-0.5c-2.3,0.9-3.2,3.5-3.9,5.9"/>
	<path fill="none" stroke="#AA3D00" stroke-miterlimit="10" d="M414,666.6c8.1,1.6,16.5,1.8,24.7,0.5c12.3-2,24-7.2,36.4-8.4"/>
	<path fill="none" stroke="#AA3D00" stroke-miterlimit="10" d="M433.3,672c17.2,0.1,32.9-11.9,50.1-11.1"/>
	<path fill="none" stroke="#AA3D00" stroke-miterlimit="10" d="M446.3,674.6c-0.1,0.9,1.3,1.1,2.2,0.8c7.1-2.4,14.3-4.8,21.4-7.2
		c7.6-2.6,15.5-5.1,23.4-4.3"/>
</g>
<g id="XMLID_4_">
	<g>
		<path fill="#1E212C" d="M747,604.5c-0.8-0.5-3.4-9.2-2.8-9.9c0.4-0.4,90.9-23.6,90.9-23.6l0.2-0.6l32.5-7.3c0,0,0.3,0,0.4,0
			c0.2,0,0.3-0.2,0.3-0.2l2.1-0.5c0,0,0.6-0.1,1.3,0.5c0,0.2,0.1,0.2,0.3,0.3c0.1,0,0.1,0,0.2,0c0.1,0.1,0.1,0.2,0.2,0.3
			c-0.1,0.2,0,0.5,0.3,0.6c0.1,0,0.1,0,0.2,0c0,0.1,0.1,0.2,0.1,0.3c0,0,0,0,0,0c-0.1,0.3,0,0.6,0.3,0.7c0,0,0.1,0,0.1,0
			c0,0.1,0.1,0.2,0.1,0.3c0,0-0.1,0.1-0.1,0.1c-0.1,0.3,0,0.6,0.3,0.7c0,0,0.1,0,0.1,0c0.1,0.2,0.1,0.3,0.1,0.5
			c-0.1,0-0.1,0.1-0.1,0.2c-0.1,0.3,0,0.6,0.2,0.7c0,0,0.1,0,0.1,0c0,0,0,0.1,0,0.1c0,0.1,0,0.2,0,0.2c0,0-0.1,0.1-0.1,0.2
			c-0.1,0.3,0,0.6,0.2,0.7c0,0,0,0,0,0c0,0.1,0,0.2,0,0.3c0,0-0.1,0.1-0.1,0.1c-0.1,0.2,0,0.5,0.2,0.7c0,0.1,0,0.2,0,0.3
			c0,0,0,0.1-0.1,0.1c-0.1,0.2-0.1,0.4,0,0.5c0,0.1,0,0.3,0,0.4c-0.1,0.1-0.1,0.1-0.1,0.2c-0.1,0.1-0.1,0.3,0,0.4
			c-0.2,0.6-0.6,0.7-0.6,0.7l-2.3,0.6c0,0-0.2,0-0.3,0c-0.1,0.1-0.3,0.2-0.3,0.2l-31.8,8.9l-0.7-0.2
			C838.6,582.4,747.5,604.9,747,604.5z"/>
		<path fill="#FFFFFF" d="M879,573.5c-0.1,0.2-0.3,0.3-0.5,0.2c-0.2-0.1-0.3-0.3-0.2-0.5c0.1-0.2,0.3-0.2,0.6-0.1
			C879,573,879.1,573.3,879,573.5z"/>
	</g>
	<g>
	</g>
</g>
<path fill="#1E212C" d="M873.1,564.1c0.2,0,14.6,0.2,14.6,0.2l-13,6.3L873.1,564.1z"/>
<rect x="882.6" y="563.6" transform="matrix(0.9725 -0.2327 0.2327 0.9725 -107.0913 221.6387)" fill="#AA3D00" width="6.1" height="2"/>
<g>
	<g>
		<path fill="#FFFFFF" d="M608.5,527.9c0.9,4.7-2.2,9.1-6.9,10l-47.5,8.8c-4.7,0.9-9.1-2.2-10-6.9l-19.8-107.2
			c-0.9-4.7,2.2-9.1,6.9-10l47.5-8.8c4.7-0.9,9.1,2.2,10,6.9L608.5,527.9z"/>
		
			<rect x="537.3" y="433.5" transform="matrix(0.9834 -0.1815 0.1815 0.9834 -77.3614 110.6752)" fill="#7DCCC9" width="57.5" height="89.1"/>
	</g>
	<path fill="#FFFFFF" d="M572.7,470.8c-0.3,0.2-0.6,0.3-1,0.5c-0.4,0.1-0.8,0.2-1.1,0.3c-0.8,0.1-1.3,0-1.6-0.4
		c-0.3-0.4-0.5-0.9-0.7-1.7l-0.7-4.3l4.1-0.7l-0.5-2.9l-4.1,0.7l0,0l-0.5-3.1l-3.2,2.1l0,0l1,6.1c-0.4-0.3-0.8-0.6-1.2-1
		c-0.4-0.3-0.8-0.7-1.2-1c-0.4-0.3-0.8-0.7-1.1-1c-0.3-0.3-0.6-0.5-0.9-0.8l-2.7,1.8c0.5,0.4,0.9,0.7,1.4,1.1c0.9,0.7,1.9,1.5,3,2.2
		c-0.4,0.5-0.8,1.1-1.2,1.7c-0.4,0.7-0.8,1.3-1.1,2c-0.4,0.7-0.7,1.4-1,2c-0.3,0.7-0.5,1.3-0.7,1.8l3.9-0.6c0.2-0.4,0.4-0.9,0.6-1.5
		c0.2-0.5,0.5-1.1,0.8-1.6c0.3-0.5,0.6-1.1,0.9-1.6c0.3-0.5,0.6-0.9,1-1.3l0,0.1c0,0,0,0,0,0c0.1,0.8,0.3,1.5,0.6,2.1
		c0.2,0.6,0.6,1.1,1,1.5c0.4,0.4,1,0.7,1.6,0.8c0.3,0.1,0.6,0.1,1,0.1c0.4,0,0.9,0,1.4-0.1c0.7-0.1,1.3-0.3,1.8-0.5
		c0.5-0.2,0.9-0.4,1.3-0.7L572.7,470.8z"/>
</g>
<g>
	<polygon fill="#22D5FF" points="67.4,167.5 121.4,233.4 327,225.2 261.4,160.1 	"/>
</g>
<linearGradient id="SVGID_1_" gradientUnits="userSpaceOnUse" x1="67.8016" y1="102.4182" x2="57.3021" y2="273.4096">
	<stop  offset="0" style="stop-color:#FFFFFF;stop-opacity:0"/>
	<stop  offset="1" style="stop-color:#AAEAFF"/>
</linearGradient>
<polygon opacity="0.63" fill="url(#SVGID_1_)" points="66.7,166.5 12.9,5.3 105.5,119.3 120.7,232.4 "/>
<linearGradient id="SVGID_2_" gradientUnits="userSpaceOnUse" x1="165.3567" y1="74.6225" x2="139.858" y2="260.6132">
	<stop  offset="0" style="stop-color:#FFFFFF;stop-opacity:0"/>
	<stop  offset="1" style="stop-color:#AAEAFF"/>
</linearGradient>
<path opacity="0.44" fill="url(#SVGID_2_)" d="M68.5,168.9C69.4,165,11.4,3,11.4,3l325.3,16.7l-74.2,141.8L68.5,168.9z"/>
<linearGradient id="SVGID_3_" gradientUnits="userSpaceOnUse" x1="371.533" y1="88.7684" x2="295.0368" y2="199.7629">
	<stop  offset="0" style="stop-color:#FFFFFF;stop-opacity:0"/>
	<stop  offset="1" style="stop-color:#AAEAFF"/>
</linearGradient>
<polygon opacity="0.26" fill="url(#SVGID_3_)" points="327.7,226 447.2,99.8 336.2,19.2 262,160.9 "/>
<linearGradient id="SVGID_4_" gradientUnits="userSpaceOnUse" x1="274.8559" y1="129.3505" x2="252.3571" y2="271.8433">
	<stop  offset="0" style="stop-color:#FFFFFF;stop-opacity:0"/>
	<stop  offset="1" style="stop-color:#AAEAFF"/>
</linearGradient>
<polygon opacity="0.9" fill="url(#SVGID_4_)" points="106,121.5 449.4,101.2 326.9,226.3 121.2,234.6 "/>
</svg>
