<?xml version="1.0" encoding="utf-8"?>
<!-- Generator: Adobe Illustrator 17.1.0, SVG Export Plug-In . SVG Version: 6.00 Build 0)  -->
<!DOCTYPE svg PUBLIC "-//W3C//DTD SVG 1.1//EN" "http://www.w3.org/Graphics/SVG/1.1/DTD/svg11.dtd">
<svg version="1.1" id="Calque_1" xmlns="http://www.w3.org/2000/svg" xmlns:xlink="http://www.w3.org/1999/xlink" x="0px" y="0px"
	 viewBox="0 0 475 278" enable-background="new 0 0 475 278" xml:space="preserve">
<g>
	<polygon fill="#F4F4F4" points="-179.7,114.9 -188.9,86.8 -206.5,99.4 -202.8,107 -233.4,100.4 -232,112.5 -229.7,128.3 
		-218.9,143.7 -209.4,142.6 -199,150.6 -180.7,145.1 -183.8,135.5 -174.2,126.1 	"/>
	<path fill="#E8E8E8" d="M-208.9,106l-1.6,14.6l9.4,8.2l-6.2,15.5l-11.6-0.4c0,0-10.6-14.4-10.8-15.4s-4.3-28.1-3.7-28
		C-232.7,100.5-208.9,106-208.9,106z"/>
	<path fill="#E9EDED" d="M-186.6,128.7l-9-10.3l8.9-7.6l-19.2,1.2c0,0-3.1,9.1,1,9.7s10.5,11.5,10.5,11.5L-186.6,128.7z"/>
	<polygon fill="#E0E0E0" points="-210.8,111.4 -213.5,116.1 -219.1,118.5 -221.6,125.8 -226.1,119.8 -220.9,115.3 -216.6,115.4 	"/>
	<path fill="#E9EDED" d="M-179.8,119.6c0.2,0.7,4.2,6.9,3.7,6.7s-5.8-0.5-5.8-0.5s-4,3.1-4,3.2c0,0.1,5.1-5.8,5.1-5.8l1.8,0.6
		L-179.8,119.6z"/>
	<path fill="#E9EDED" d="M-201.9,100.3l9.4-7.8l-0.2,5.4l-5.1,2.9c0,0-4.3,7.9-4.2,7.5C-201.9,107.9-201.9,100.3-201.9,100.3z"/>
	<path fill="#E0E0E0" d="M-224.3,104.4c0,0,7.4,2.4,6.8,2.3c-0.6,0-3.5,3.4-3.5,3.4l-4.7,1.2l-3.6,4.9L-224.3,104.4z"/>
	<path fill="#E0E0E0" d="M-205.8,123.9c-0.5,0.4,1.8,6.9,1.8,6.9s-4.2,4.3-4.4,4.8c-0.2,0.5-1.8,3.5-1.8,3.1c0-0.4,0.8-5.4,1.3-5.6
		c0.4-0.2,3-1.8,2.9-2.5C-206.2,129.7-205.8,123.9-205.8,123.9z"/>
</g>
<path opacity="0.46" fill="#D3C9B6" d="M-446.2-27.5c5.2,0,36.7,52.5,36.7,52.5S-339.9,1.4-332-1.2s17.1,0,40.7-3.9
	c23.6-3.9,126-2.6,114.2-5.2C-189-13-293.9-56.3-293.9-56.3L-446.2-27.5z"/>
<g>
	<path fill="#FFFFFF" d="M-453.2-40.2l48.6,55.1c0,0,73.5-34.1,81.4-35.4c7.9-1.3,149.6,3.9,148.3,0S-287.8-73-287.8-73l-97.1,10.5
		L-453.2-40.2z"/>
	<path fill="none" stroke="#808285" stroke-miterlimit="10" d="M-307.3-58c7.1-2.6,15.8,0.4,19.8,6.7c2.2,3.5,3.1,7.6,5.2,11.1
		s6.3,6.4,10.2,5"/>
	<path fill="none" stroke="#808285" stroke-miterlimit="10" d="M-311.6-41.2c-9.1-6.9-19.1-12.5-29.8-16.6"/>
	<path fill="none" stroke="#808285" stroke-miterlimit="10" d="M-379.8-35.4c-4.1,1.3-8.5-2.6-8.7-6.8c-1.5-30.5,58,0.8,66,8.7
		c-4.3,1.9-8.9,3.1-13.5,4.5c-1.4-3.7-2.8-7.4-4.2-11.2c1.8,0.2,3.7-0.2,5.2-1.3"/>
	<path fill="none" stroke="#808285" stroke-miterlimit="10" d="M-296.1-37.3c-8.4-6.7-16.8-13.5-25.2-20.2c2.9-1.2,5.7-2.4,8.6-3.7"
		/>
	<path fill="none" stroke="#808285" stroke-miterlimit="10" d="M-347-36.9c1.1-4.8-1.5-10.8-6.3-11.7c-4.8-0.9-9,3.4-13.9,4.3
		c-1.3,0.2-2.7,0.2-3.9,0.8c-3,1.4-3.4,5.7-2.1,8.8c2.2,5.4,8.1,9,13.9,8.6C-353.5-26.6-348.3-31.2-347-36.9z"/>
	<path fill="none" stroke="#808285" stroke-miterlimit="10" d="M-406.8-47.3c6.7,0.1,13.5,2.9,17.5,8.2c4,5.3,4.7,13.3,0.7,18.6
		c1-0.1,1.6,1.5,0.8,2.1c-10.6,3-22.9-2.1-28.2-11.7c-2.6-4.7-3.3-11.4,0.8-14.9C-412.9-46.8-409.8-47.3-406.8-47.3z"/>
	<path fill="none" stroke="#808285" stroke-miterlimit="10" d="M-380.3-10.8c0.5,0.6-1.3,0.5-0.9-0.3c0.4-0.8,1.4-0.7,2.3-0.7
		c5.2-0.2,9.2-8.6,13.5-5.8c0.9,1-0.3,2.7-1.6,2.6c-1.3-0.1-2.2-1.5-2.2-2.8c5.7,0,11.4,0,17.1,0"/>
	<path fill="none" stroke="#808285" stroke-miterlimit="10" d="M-286.5-61.1c13.6,3.9,26.6,9.9,38.5,17.7"/>
</g>
<g>
	<path fill="#EE8185" d="M-474.3,143.2c-1.6,0.5-2.5,2.3-1.9,3.9l0.3,1c0.5,1.6,2.3,2.5,3.9,1.9l5.7-1.9c1.6-0.5,2.5-2.3,1.9-3.9
		l-0.3-1c-0.5-1.6-2.3-2.5-3.9-1.9L-474.3,143.2z"/>
	
		<rect x="-414.5" y="70.9" transform="matrix(-0.3225 -0.9466 0.9466 -0.3225 -666.0326 -224.2941)" fill="#FBB02A" width="2.4" height="110.7"/>
	
		<rect x="-415.3" y="68.6" transform="matrix(-0.3227 -0.9465 0.9465 -0.3227 -664.9752 -227.9719)" fill="#F9A11B" width="2.4" height="110.7"/>
	
		<rect x="-413.7" y="73.1" transform="matrix(-0.3226 -0.9465 0.9465 -0.3226 -667.1878 -220.5453)" fill="#F8D506" width="2.4" height="110.7"/>
	<polygon fill="#FCF0CC" points="-362,105 -347.2,103.7 -359.7,111.7 	"/>
	<path fill="#603813" d="M-352.4,107l5.2-3.3l-6.1,0.5c0,0.5,0.1,1,0.3,1.5C-352.9,106.2-352.7,106.6-352.4,107z"/>
	
		<rect x="-469.9" y="143.6" transform="matrix(-0.3226 -0.9465 0.9465 -0.3226 -753.382 -250.5587)" fill="#686969" width="7.2" height="1.4"/>
	
		<rect x="-471.3" y="144" transform="matrix(-0.3226 -0.9465 0.9465 -0.3226 -755.5287 -251.2429)" fill="#7D7D7D" width="7.2" height="1.4"/>
	
		<rect x="-472.6" y="144.5" transform="matrix(-0.3226 -0.9465 0.9465 -0.3226 -757.7131 -251.9014)" fill="#686969" width="7.2" height="1.4"/>
</g>
<g>
	<polygon fill="#F4F4F4" points="-83.5,68.8 -64,42.9 -50.1,62.3 -56.7,68.8 -22.7,72.8 -28.3,84.9 -36.4,100.5 -53.1,112.7 
		-62.5,108.1 -76.2,112.7 -93.2,100.5 -86.6,91.7 -93.2,78.5 	"/>
	<path fill="#E8E8E8" d="M-50,69.9l-3.5,15.7l-12.6,5.1l0.9,18.3l12.2,3.7c0,0,16.1-11.1,16.6-12.2c0.5-1,14.5-27.6,13.8-27.7
		C-23.4,72.7-50,69.9-50,69.9z"/>
	<path fill="#E9EDED" d="M-81.3,85.6l13-7.6L-74.8,67l19.5,8.1c0,0,0,10.6-4.5,9.7s-15,8.2-15,8.2L-81.3,85.6z"/>
	<polygon fill="#E0E0E0" points="-50,76.2 -48.8,82.1 -43.9,86.5 -43.9,95.1 -37,90.4 -40.9,83.9 -45.4,82.5 	"/>
	<path fill="#E9EDED" d="M-85.1,73.7c-0.5,0.6-6.8,5.6-6.2,5.6s6.2,1.5,6.2,1.5s3,4.7,3,4.8s-3.2-7.8-3.2-7.8h-2.1L-85.1,73.7z"/>
	<path fill="#E9EDED" d="M-55.3,61.5l-6.9-11.4l-1.7,5.7l4.3,4.8c0,0,1.7,9.7,1.7,9.3S-55.3,61.5-55.3,61.5z"/>
	<path fill="#E0E0E0" d="M-33.5,73.8c0,0-8.5-0.2-7.9,0c0.6,0.2,2.4,4.7,2.4,4.7l4.4,2.9l2,6.4L-33.5,73.8z"/>
	<path fill="#E0E0E0" d="M-59.6,87.4c0.4,0.6-4.3,6.5-4.3,6.5s2.9,5.9,2.9,6.5c0,0.6,0.6,4.3,0.8,3.8s1.1-5.9,0.7-6.2
		c-0.4-0.3-2.5-2.9-2.1-3.7S-59.6,87.4-59.6,87.4z"/>
</g>
<g>
	<g>
		<path fill="#0E263A" d="M243.7,249.1h185.7c0.8-1.7,1.2-3.6,1.2-5.6V16.2c0-7.7-6.5-14-14.5-14H66.8c-8,0-14.5,6.3-14.5,14v227.3
			c0,2,0.4,3.9,1.2,5.6h187.7H243.7z"/>
		<rect x="71.5" y="20.1" width="341.8" height="205.6"/>
		<path fill="#929496" d="M245.2,13c0-1.5-1.2-2.7-2.8-2.7c-1.5,0-2.8,1.2-2.8,2.7c0,1.5,1.3,2.7,2.8,2.7
			C243.9,15.7,245.2,14.5,245.2,13z"/>
	</g>
	<polygon fill="#BFC6C9" points="423.8,274.6 52.6,274.6 21.9,269.5 456.4,269.5 	"/>
	<polygon fill="#E9EDED" points="427.6,248.8 475.9,267 7,266.4 54.4,248.8 	"/>
	<rect x="7.7" y="266.4" fill="#D0D2D3" width="464.5" height="4.3"/>
</g>
<text transform="matrix(1 0 0 1 85.5084 42.685)"><tspan x="0" y="0" fill="#FFFFFF" font-family="'MyriadPro-Regular'" font-size="8">&lt;div id=</tspan><tspan x="27.8" y="0" fill="#FFCE00" font-family="'MyriadPro-Regular'" font-size="8">»midlevel»</tspan><tspan x="63.2" y="0" fill="#FFFFFF" font-family="'MyriadPro-Regular'" font-size="8">&gt;&lt;h1&gt;kevin is the </tspan><tspan x="0" y="9.6" fill="#FF2A00" font-family="'MyriadPro-Regular'" font-size="8">&lt;strong&gt; </tspan><tspan x="33" y="9.6" fill="#FFFFFF" font-family="'MyriadPro-Regular'" font-size="8">best</tspan><tspan x="47.3" y="9.6" fill="#FF3C00" font-family="'MyriadPro-Regular'" font-size="8">&lt;/strong&gt;</tspan></text>
<text transform="matrix(1 0 0 1 88.1751 65.0183)"><tspan x="0" y="0" fill="#B066FF" font-family="'MyriadPro-Regular'" font-size="8">&lt;section&gt;</tspan><tspan x="33.6" y="0" fill="#FFFFFF" font-family="'MyriadPro-Regular'" font-size="8">&lt;h1&gt;kevin is the </tspan><tspan x="0" y="9.6" fill="#FF2A00" font-family="'MyriadPro-Regular'" font-size="8">&lt;strong&gt; </tspan><tspan x="33" y="9.6" fill="#FFFFFF" font-family="'MyriadPro-Regular'" font-size="8">best</tspan><tspan x="47.3" y="9.6" fill="#FF3C00" font-family="'MyriadPro-Regular'" font-size="8">&lt;/strong&gt;</tspan><tspan x="0" y="19.2" fill="#A764FF" font-family="'MyriadPro-Regular'" font-size="8">&lt;/section&gt;</tspan></text>
<text transform="matrix(1 0 0 1 88.5425 95.1135)"><tspan x="0" y="0" fill="#FFFFFF" font-family="'MyriadPro-Regular'" font-size="8">because word colorless is so poor and sad</tspan><tspan x="0" y="9.6" fill="#FFFFFF" font-family="'MyriadPro-Regular'" font-size="8">&lt;div id=</tspan><tspan x="27.8" y="9.6" fill="#FFEC55" font-family="'MyriadPro-Regular'" font-size="8"> ‘close’</tspan><tspan x="49.9" y="9.6" fill="#FFFFFF" font-family="'MyriadPro-Regular'" font-size="8">&gt;close it now &lt;/div&gt;</tspan></text>
</svg>
