<?xml version="1.0" encoding="utf-8"?>
<!-- Generator: Adobe Illustrator 17.1.0, SVG Export Plug-In . SVG Version: 6.00 Build 0)  -->
<!DOCTYPE svg PUBLIC "-//W3C//DTD SVG 1.1//EN" "http://www.w3.org/Graphics/SVG/1.1/DTD/svg11.dtd">
<svg version="1.1" id="Calque_1" xmlns="http://www.w3.org/2000/svg" xmlns:xlink="http://www.w3.org/1999/xlink" x="0px" y="0px"
	 viewBox="0 0 285 103" enable-background="new 0 0 285 103" xml:space="preserve">
<g>
	<polygon fill="#F4F4F4" points="277.9,191.2 268.8,163.2 251.1,175.8 254.8,183.3 224.3,176.7 225.6,188.8 228,204.7 238.7,220.1 
		248.3,218.9 258.7,226.9 277,221.4 273.8,211.8 283.5,202.5 	"/>
	<path fill="#E8E8E8" d="M248.8,182.3l-1.6,14.6l9.4,8.2l-6.2,15.5l-11.6-0.4c0,0-10.6-14.4-10.8-15.4s-4.3-28.1-3.7-28
		C224.9,176.8,248.8,182.3,248.8,182.3z"/>
	<path fill="#E9EDED" d="M271,205l-9-10.3l8.9-7.6l-19.2,1.2c0,0-3.1,9.1,1,9.7s10.5,11.5,10.5,11.5L271,205z"/>
	<polygon fill="#E0E0E0" points="246.9,187.7 244.1,192.4 238.6,194.8 236.1,202.2 231.5,196.1 236.8,191.6 241,191.7 	"/>
	<path fill="#E9EDED" d="M277.8,195.9c0.2,0.7,4.2,6.9,3.7,6.7s-5.8-0.5-5.8-0.5s-4,3.1-4,3.2c0,0.1,5.1-5.8,5.1-5.8l1.8,0.6
		L277.8,195.9z"/>
	<path fill="#E9EDED" d="M255.8,176.6l9.4-7.8l-0.2,5.4l-5.1,2.9c0,0-4.3,7.9-4.2,7.5S255.8,176.6,255.8,176.6z"/>
	<path fill="#E0E0E0" d="M233.4,180.7c0,0,7.4,2.4,6.8,2.3c-0.6,0-3.5,3.4-3.5,3.4l-4.7,1.2l-3.6,4.9L233.4,180.7z"/>
	<path fill="#E0E0E0" d="M251.9,200.2c-0.5,0.4,1.8,6.9,1.8,6.9s-4.2,4.3-4.4,4.8s-1.8,3.5-1.8,3.1c0-0.4,0.8-5.4,1.3-5.6
		c0.4-0.2,3-1.8,2.9-2.5C251.5,206.1,251.9,200.2,251.9,200.2z"/>
</g>
<path opacity="0.46" fill="#D3C9B6" d="M11.5,48.9c5.2,0,36.7,52.5,36.7,52.5s69.6-23.6,77.4-26.2s17.1,0,40.7-3.9
	c23.6-3.9,126-2.6,114.2-5.2S163.7,20,163.7,20L11.5,48.9z"/>
<g>
	<path fill="#FFFFFF" d="M4.5,36.2L53,91.3c0,0,73.5-34.1,81.4-35.4c7.9-1.3,149.6,3.9,148.3,0c-1.3-3.9-112.9-52.5-112.9-52.5
		L72.7,13.9L4.5,36.2z"/>
	<path fill="none" stroke="#808285" stroke-miterlimit="10" d="M150.4,18.3c7.1-2.6,15.8,0.4,19.8,6.7c2.2,3.5,3.1,7.6,5.2,11.1
		c2.1,3.5,6.3,6.4,10.2,5"/>
	<path fill="none" stroke="#808285" stroke-miterlimit="10" d="M146,35.1c-9.1-6.9-19.1-12.5-29.8-16.6"/>
	<path fill="none" stroke="#808285" stroke-miterlimit="10" d="M77.8,40.9c-4.1,1.3-8.5-2.6-8.7-6.8c-1.5-30.5,58,0.8,66,8.7
		c-4.3,1.9-8.9,3.1-13.5,4.5c-1.4-3.7-2.8-7.4-4.2-11.2c1.8,0.2,3.7-0.2,5.2-1.3"/>
	<path fill="none" stroke="#808285" stroke-miterlimit="10" d="M161.6,39c-8.4-6.7-16.8-13.5-25.2-20.2c2.9-1.2,5.7-2.4,8.6-3.7"/>
	<path fill="none" stroke="#808285" stroke-miterlimit="10" d="M110.6,39.4c1.1-4.8-1.5-10.8-6.3-11.7c-4.8-0.9-9,3.4-13.9,4.3
		c-1.3,0.2-2.7,0.2-3.9,0.8c-3,1.4-3.4,5.7-2.1,8.8c2.2,5.4,8.1,9,13.9,8.6C104.2,49.7,109.4,45.2,110.6,39.4z"/>
	<path fill="none" stroke="#808285" stroke-miterlimit="10" d="M50.9,29.1c6.7,0.1,13.5,2.9,17.5,8.2c4,5.3,4.7,13.3,0.7,18.6
		c1-0.1,1.6,1.5,0.8,2.1c-10.6,3-22.9-2.1-28.2-11.7c-2.6-4.7-3.3-11.4,0.8-14.9C44.8,29.5,47.9,29,50.9,29.1z"/>
	<path fill="none" stroke="#808285" stroke-miterlimit="10" d="M77.4,65.5c0.5,0.6-1.3,0.5-0.9-0.3c0.4-0.8,1.4-0.7,2.3-0.7
		c5.2-0.2,9.2-8.6,13.5-5.8c0.9,1-0.3,2.7-1.6,2.6s-2.2-1.5-2.2-2.8c5.7,0,11.4,0,17.1,0"/>
	<path fill="none" stroke="#808285" stroke-miterlimit="10" d="M171.1,15.2c13.6,3.9,26.6,9.9,38.5,17.7"/>
</g>
<g>
	<path fill="#EE8185" d="M-16.6,219.5c-1.6,0.5-2.5,2.3-1.9,3.9l0.3,1c0.5,1.6,2.3,2.5,3.9,1.9l5.7-1.9c1.6-0.5,2.5-2.3,1.9-3.9
		l-0.3-1c-0.5-1.6-2.3-2.5-3.9-1.9L-16.6,219.5z"/>
	
		<rect x="43.2" y="147.2" transform="matrix(-0.3225 -0.9466 0.9466 -0.3225 -133.0282 309.8584)" fill="#FBB02A" width="2.4" height="110.7"/>
	
		<rect x="42.4" y="144.9" transform="matrix(-0.3227 -0.9465 0.9465 -0.3227 -131.8851 306.1665)" fill="#F9A11B" width="2.4" height="110.7"/>
	
		<rect x="44" y="149.4" transform="matrix(-0.3226 -0.9465 0.9465 -0.3226 -134.1405 313.6002)" fill="#F8D506" width="2.4" height="110.7"/>
	<polygon fill="#FCF0CC" points="95.6,181.3 110.5,180 97.9,188.1 	"/>
	<path fill="#603813" d="M105.3,183.3l5.2-3.3l-6.1,0.5c0,0.5,0.1,1,0.3,1.5C104.8,182.5,105,182.9,105.3,183.3z"/>
	
		<rect x="-12.3" y="219.9" transform="matrix(-0.3226 -0.9465 0.9465 -0.3226 -220.3062 283.5821)" fill="#686969" width="7.2" height="1.4"/>
	
		<rect x="-13.6" y="220.4" transform="matrix(-0.3226 -0.9465 0.9465 -0.3226 -222.4958 282.905)" fill="#7D7D7D" width="7.2" height="1.4"/>
	
		<rect x="-14.9" y="220.8" transform="matrix(-0.3226 -0.9465 0.9465 -0.3226 -224.6801 282.2465)" fill="#686969" width="7.2" height="1.4"/>
</g>
<g>
	<polygon fill="#F4F4F4" points="374.2,145.1 393.6,119.3 407.5,138.6 401,145.1 435,149.1 429.3,161.2 421.2,176.9 404.6,189 
		395.1,184.4 381.5,189 364.4,176.9 371.1,168 364.4,154.8 	"/>
	<path fill="#E8E8E8" d="M407.6,146.2l-3.5,15.7l-12.6,5.1l0.9,18.3l12.2,3.7c0,0,16.1-11.1,16.6-12.2c0.5-1,14.5-27.6,13.8-27.7
		C434.3,149.1,407.6,146.2,407.6,146.2z"/>
	<path fill="#E9EDED" d="M376.4,161.9l13-7.6l-6.5-11.1l19.5,8.1c0,0,0,10.6-4.5,9.7s-15,8.2-15,8.2L376.4,161.9z"/>
	<polygon fill="#E0E0E0" points="407.6,152.5 408.9,158.4 413.7,162.9 413.7,171.4 420.6,166.7 416.8,160.2 412.3,158.8 	"/>
	<path fill="#E9EDED" d="M372.6,150c-0.5,0.6-6.8,5.6-6.2,5.6s6.2,1.5,6.2,1.5s3,4.7,3,4.8s-3.2-7.8-3.2-7.8h-2.1L372.6,150z"/>
	<path fill="#E9EDED" d="M402.4,137.9l-6.9-11.4l-1.7,5.7l4.3,4.8c0,0,1.7,9.7,1.7,9.3C399.7,145.8,402.4,137.9,402.4,137.9z"/>
	<path fill="#E0E0E0" d="M424.1,150.1c0,0-8.5-0.2-7.9,0s2.4,4.7,2.4,4.7l4.4,2.9l2,6.4L424.1,150.1z"/>
	<path fill="#E0E0E0" d="M398.1,163.7c0.4,0.6-4.3,6.5-4.3,6.5s2.9,5.9,2.9,6.5s0.6,4.3,0.8,3.8c0.2-0.5,1.1-5.9,0.7-6.2
		c-0.4-0.3-2.5-2.9-2.1-3.7C396.3,170,398.1,163.7,398.1,163.7z"/>
</g>
</svg>
