<?xml version="1.0" encoding="utf-8"?>
<!-- Generator: Adobe Illustrator 17.1.0, SVG Export Plug-In . SVG Version: 6.00 Build 0)  -->
<!DOCTYPE svg PUBLIC "-//W3C//DTD SVG 1.1//EN" "http://www.w3.org/Graphics/SVG/1.1/DTD/svg11.dtd">
<svg version="1.1" id="Calque_1" xmlns="http://www.w3.org/2000/svg" xmlns:xlink="http://www.w3.org/1999/xlink" x="0px" y="0px"
	 viewBox="0 0 133 52" enable-background="new 0 0 133 52" xml:space="preserve">
<g>
	<polygon fill="#F4F4F4" points="298.5,14.7 289.3,-13.4 271.7,-0.8 275.4,6.8 244.8,0.1 246.2,12.2 248.5,28.1 259.3,43.5 
		268.8,42.3 279.2,50.3 297.5,44.9 294.4,35.3 304,25.9 	"/>
	<path fill="#E8E8E8" d="M269.3,5.7l-1.6,14.6l9.4,8.2L270.9,44l-11.6-0.4c0,0-10.6-14.4-10.8-15.4c-0.2-1-4.3-28.1-3.7-28
		S269.3,5.7,269.3,5.7z"/>
	<path fill="#E9EDED" d="M291.6,28.5l-9-10.3l8.9-7.6l-19.2,1.2c0,0-3.1,9.1,1,9.7c4.1,0.6,10.5,11.5,10.5,11.5L291.6,28.5z"/>
	<polygon fill="#E0E0E0" points="267.4,11.1 264.7,15.8 259.1,18.3 256.6,25.6 252.1,19.5 257.3,15.1 261.6,15.2 	"/>
	<path fill="#E9EDED" d="M298.4,19.3c0.2,0.7,4.2,6.9,3.7,6.7s-5.8-0.5-5.8-0.5s-4,3.1-4,3.2c0,0.1,5.1-5.8,5.1-5.8l1.8,0.6
		L298.4,19.3z"/>
	<path fill="#E9EDED" d="M276.3,0.1l9.4-7.8l-0.2,5.4l-5.1,2.9c0,0-4.3,7.9-4.2,7.5C276.3,7.7,276.3,0.1,276.3,0.1z"/>
	<path fill="#E0E0E0" d="M253.9,4.2c0,0,7.4,2.4,6.8,2.3c-0.6,0-3.5,3.4-3.5,3.4l-4.7,1.2L249,16L253.9,4.2z"/>
	<path fill="#E0E0E0" d="M272.4,23.6c-0.5,0.4,1.8,6.9,1.8,6.9s-4.2,4.3-4.4,4.8c-0.2,0.5-1.8,3.5-1.8,3.1c0-0.4,0.8-5.4,1.3-5.6
		c0.4-0.2,3-1.8,2.9-2.5S272.4,23.6,272.4,23.6z"/>
</g>
<path opacity="0.46" fill="#D3C9B6" d="M32-127.7c5.2,0,36.7,52.5,36.7,52.5s69.6-23.6,77.4-26.2c7.9-2.6,17.1,0,40.7-3.9
	c23.6-3.9,126-2.6,114.2-5.2c-11.8-2.6-116.8-45.9-116.8-45.9L32-127.7z"/>
<g>
	<path fill="#FFFFFF" d="M25-140.4l48.6,55.1c0,0,73.5-34.1,81.4-35.4c7.9-1.3,149.6,3.9,148.3,0c-1.3-3.9-112.9-52.5-112.9-52.5
		l-97.1,10.5L25-140.4z"/>
	<path fill="none" stroke="#808285" stroke-miterlimit="10" d="M170.9-158.2c7.1-2.6,15.8,0.4,19.8,6.7c2.2,3.5,3.1,7.6,5.2,11.1
		s6.3,6.4,10.2,5"/>
	<path fill="none" stroke="#808285" stroke-miterlimit="10" d="M166.6-141.4c-9.1-6.9-19.1-12.5-29.8-16.6"/>
	<path fill="none" stroke="#808285" stroke-miterlimit="10" d="M98.4-135.6c-4.1,1.3-8.5-2.6-8.7-6.8c-1.5-30.5,58,0.8,66,8.7
		c-4.3,1.9-8.9,3.1-13.5,4.5c-1.4-3.7-2.8-7.4-4.2-11.2c1.8,0.2,3.7-0.2,5.2-1.3"/>
	<path fill="none" stroke="#808285" stroke-miterlimit="10" d="M182.1-137.5c-8.4-6.7-16.8-13.5-25.2-20.2c2.9-1.2,5.7-2.4,8.6-3.7"
		/>
	<path fill="none" stroke="#808285" stroke-miterlimit="10" d="M131.2-137.1c1.1-4.8-1.5-10.8-6.3-11.7c-4.8-0.9-9,3.4-13.9,4.3
		c-1.3,0.2-2.7,0.2-3.9,0.8c-3,1.4-3.4,5.7-2.1,8.8c2.2,5.4,8.1,9,13.9,8.6S129.9-131.4,131.2-137.1z"/>
	<path fill="none" stroke="#808285" stroke-miterlimit="10" d="M71.4-147.5c6.7,0.1,13.5,2.9,17.5,8.2c4,5.3,4.7,13.3,0.7,18.6
		c1-0.1,1.6,1.5,0.8,2.1c-10.6,3-22.9-2.1-28.2-11.7c-2.6-4.7-3.3-11.4,0.8-14.9C65.3-147.1,68.4-147.6,71.4-147.5z"/>
	<path fill="none" stroke="#808285" stroke-miterlimit="10" d="M97.9-111c0.5,0.6-1.3,0.5-0.9-0.3c0.4-0.8,1.4-0.7,2.3-0.7
		c5.2-0.2,9.2-8.6,13.5-5.8c0.9,1-0.3,2.7-1.6,2.6s-2.2-1.5-2.2-2.8c5.7,0,11.4,0,17.1,0"/>
	<path fill="none" stroke="#808285" stroke-miterlimit="10" d="M191.7-161.3c13.6,3.9,26.6,9.9,38.5,17.7"/>
</g>
<g>
	<path fill="#EE8185" d="M3.9,43c-1.6,0.5-2.5,2.3-1.9,3.9l0.3,1c0.5,1.6,2.3,2.5,3.9,1.9l5.7-1.9c1.6-0.5,2.5-2.3,1.9-3.9l-0.3-1
		c-0.5-1.6-2.3-2.5-3.9-1.9L3.9,43z"/>
	
		<rect x="63.7" y="-29.4" transform="matrix(-0.3225 -0.9466 0.9466 -0.3225 61.2692 95.7973)" fill="#FBB02A" width="2.4" height="110.7"/>
	
		<rect x="63" y="-31.6" transform="matrix(-0.3227 -0.9465 0.9465 -0.3227 62.4052 92.0729)" fill="#F9A11B" width="2.4" height="110.7"/>
	
		<rect x="64.5" y="-27.1" transform="matrix(-0.3226 -0.9465 0.9465 -0.3226 60.1533 99.5228)" fill="#F8D506" width="2.4" height="110.7"/>
	<polygon fill="#FCF0CC" points="116.2,4.7 131,3.4 118.5,11.5 	"/>
	<path fill="#603813" d="M125.8,6.8l5.2-3.3L124.9,4c0,0.5,0.1,1,0.3,1.5C125.3,5.9,125.5,6.4,125.8,6.8z"/>
	
		<rect x="8.3" y="43.4" transform="matrix(-0.3226 -0.9465 0.9465 -0.3226 -26.0147 69.4939)" fill="#686969" width="7.2" height="1.4"/>
	
		<rect x="6.9" y="43.8" transform="matrix(-0.3226 -0.9465 0.9465 -0.3226 -28.2008 68.833)" fill="#7D7D7D" width="7.2" height="1.4"/>
	
		<rect x="5.6" y="44.3" transform="matrix(-0.3226 -0.9465 0.9465 -0.3226 -30.3851 68.1745)" fill="#686969" width="7.2" height="1.4"/>
</g>
<g>
	<polygon fill="#F4F4F4" points="394.7,-31.4 414.2,-57.3 428.1,-37.9 421.5,-31.4 455.5,-27.4 449.9,-15.3 441.8,0.3 425.1,12.5 
		415.7,7.9 402,12.5 385,0.3 391.6,-8.6 385,-21.7 	"/>
	<path fill="#E8E8E8" d="M428.2-30.3l-3.5,15.7L412-9.5l0.9,18.3l12.2,3.7c0,0,16.1-11.1,16.6-12.2c0.5-1,14.5-27.6,13.8-27.7
		C454.8-27.5,428.2-30.3,428.2-30.3z"/>
	<path fill="#E9EDED" d="M397-14.6l13-7.6l-6.5-11.1l19.5,8.1c0,0,0,10.6-4.5,9.7c-4.5-0.8-15,8.2-15,8.2L397-14.6z"/>
	<polygon fill="#E0E0E0" points="428.2,-24 429.4,-18.2 434.3,-13.7 434.3,-5.2 441.2,-9.8 437.3,-16.3 432.9,-17.8 	"/>
	<path fill="#E9EDED" d="M393.1-26.5c-0.5,0.6-6.8,5.6-6.2,5.6s6.2,1.5,6.2,1.5s3,4.7,3,4.8c0,0.1-3.2-7.8-3.2-7.8h-2.1L393.1-26.5z
		"/>
	<path fill="#E9EDED" d="M422.9-38.7L416-50.1l-1.7,5.7l4.3,4.8c0,0,1.7,9.7,1.7,9.3S422.9-38.7,422.9-38.7z"/>
	<path fill="#E0E0E0" d="M444.7-26.5c0,0-8.5-0.2-7.9,0c0.6,0.2,2.4,4.7,2.4,4.7l4.4,2.9l2,6.4L444.7-26.5z"/>
	<path fill="#E0E0E0" d="M418.6-12.8c0.4,0.6-4.3,6.5-4.3,6.5s2.9,5.9,2.9,6.5s0.6,4.3,0.8,3.8c0.2-0.5,1.1-5.9,0.7-6.2
		c-0.4-0.3-2.5-2.9-2.1-3.7C416.9-6.6,418.6-12.8,418.6-12.8z"/>
</g>
</svg>
