<?xml version="1.0" encoding="utf-8"?>
<!-- Generator: Adobe Illustrator 17.1.0, SVG Export Plug-In . SVG Version: 6.00 Build 0)  -->
<!DOCTYPE svg PUBLIC "-//W3C//DTD SVG 1.1//EN" "http://www.w3.org/Graphics/SVG/1.1/DTD/svg11.dtd">
<svg version="1.1" id="Calque_1" xmlns="http://www.w3.org/2000/svg" xmlns:xlink="http://www.w3.org/1999/xlink" x="0px" y="0px"
	 viewBox="0 0 74 73" enable-background="new 0 0 74 73" xml:space="preserve">
<g>
	<g>
		<g>
			<path fill="#0E263A" d="M-197.3,266.6c0,4.4-3.6,7.9-8,7.9h-621.3c-4.4,0-8-3.6-8-7.9v-417.2c0-4.4,3.6-7.9,8-7.9h621.3
				c4.4,0,8,3.6,8,7.9V266.6z"/>
			<g>
				<defs>
					<path id="SVGID_1_" d="M-196.8,272c0,4.4-3.6,8-8,8h-620.8c-4.4,0-8-3.6-8-8v-28c0-4.4,632.4-3.1,636.8-3.1V272z"/>
				</defs>
				<use xlink:href="#SVGID_1_"  overflow="visible" fill="#BFC6C9"/>
				<clipPath id="SVGID_2_">
					<use xlink:href="#SVGID_1_"  overflow="visible"/>
				</clipPath>
				<rect x="-852.4" y="224.5" clip-path="url(#SVGID_2_)" fill="#BFC6C9" width="719.4" height="60.1"/>
			</g>
			<g>
				<defs>
					<path id="SVGID_3_" d="M-196.8,265.3c0,4.4-3.7,11-9,11h-620.8c-4.4,0-8-3.6-8-8v-418c0-4.4,3.6-7.9,8-7.9h620.8
						c4.4,0,8,3.6,8,7.9L-196.8,265.3z"/>
				</defs>
				<clipPath id="SVGID_4_">
					<use xlink:href="#SVGID_3_"  overflow="visible"/>
				</clipPath>
				<rect x="-853.4" y="220.9" clip-path="url(#SVGID_4_)" fill="#E9EDED" width="719.4" height="60.1"/>
			</g>
			<rect x="-810.2" y="-135.3" fill="#5C5F61" width="588.5" height="335.2"/>
			<g>
				<path fill="#BFC6C9" d="M-421.9,362.2c-2.8-1.9-21.1-10.2-23.3-16.9c-1.7-5.1-6.9-67.7-6.9-67.7l-63.6,0.2l-63.6-0.2
					c0,0-5.2,62.5-6.9,67.7c-2.2,6.7-20.5,15-23.3,16.9c-1.2,0.8-0.4,2.3,0.6,3.5h186.4C-421.5,364.6-420.7,363-421.9,362.2z"/>
			</g>
			<rect x="-608.9" y="362.2" fill="#E9EDED" width="187" height="3.5"/>
			<polygon fill="#E9EDED" points="-579.6,281.5 -451.6,281.5 -445.2,345.4 -586.2,345.4 			"/>
		</g>
		<path fill="#0E263A" d="M-503.2,252.4c-0.5,0.2-1,0.3-1.7,0.4c-0.6,0.1-1.2,0.2-1.8,0.2c-1.2,0-2-0.3-2.4-1
			c-0.4-0.7-0.6-1.5-0.6-2.6v-6.6h6.4v-4.4h-6.4h0v-4.7l-5.3,2.4l0,0v9.3c-0.5-0.6-1.1-1.2-1.6-1.8c-0.6-0.6-1.1-1.2-1.6-1.8
			c-0.5-0.6-1-1.2-1.5-1.7c-0.4-0.5-0.8-1-1.1-1.3l-4.5,2.1c0.6,0.7,1.2,1.3,1.8,2c1.2,1.3,2.5,2.7,3.9,4.1
			c-0.7,0.6-1.4,1.4-2.2,2.3c-0.8,0.9-1.5,1.8-2.2,2.8c-0.7,0.9-1.4,1.9-2,2.8c-0.6,0.9-1.1,1.8-1.5,2.6h6.1c0.4-0.6,0.8-1.3,1.3-2
			c0.5-0.7,1-1.5,1.5-2.2c0.5-0.7,1.1-1.5,1.7-2.2c0.6-0.7,1.2-1.3,1.8-1.7v0.2c0,0,0,0,0,0c0,1.2,0.1,2.3,0.3,3.3
			c0.2,1,0.6,1.8,1.2,2.5c0.6,0.7,1.3,1.2,2.3,1.6c0.4,0.2,0.9,0.3,1.5,0.4c0.6,0.1,1.3,0.2,2.1,0.2c1.1,0,2.1-0.1,2.9-0.3
			c0.8-0.2,1.5-0.4,2.1-0.7L-503.2,252.4z"/>
	</g>
	<rect x="-810.2" y="-140.2" fill="#35383A" width="588.5" height="21"/>
	<rect x="-778.7" y="-132.2" fill="#BABEBF" width="25.5" height="5"/>
	<rect x="-746.8" y="-132.2" opacity="0.55" fill="#BABEBF" width="25.5" height="5"/>
	<rect x="-645.2" y="-132.2" fill="#BABEBF" width="17.3" height="5"/>
	<rect x="-620" y="-132.2" fill="#BABEBF" width="17.3" height="5"/>
	<rect x="-595.1" y="-132.2" fill="#BABEBF" width="17.3" height="5"/>
	<rect x="-571" y="-132.2" fill="#BABEBF" width="17.3" height="5"/>
	<rect x="-255.4" y="-133.9" fill="#BABEBF" width="28.7" height="2.7"/>
	<rect x="-808.2" y="-110.8" fill="#35383A" width="14.4" height="157"/>
	<rect x="-237.2" y="-117.2" fill="#35383A" width="14.4" height="157"/>
	<rect x="-298.9" y="-45.5" fill="#35383A" width="61.6" height="13.3"/>
	<rect x="-237.2" y="-117.2" fill="#262728" width="14.4" height="3.7"/>
	<text transform="matrix(1 0 0 1 -804.4504 -61.1252)" opacity="0.39" fill="#FFFFFF" font-family="'Georgia'" font-size="11.2028">T</text>
	
		<line opacity="0.5" fill="#FFFFFF" stroke="#FFFFFF" stroke-width="0.25" stroke-miterlimit="10" x1="-804.6" y1="-42.9" x2="-797.4" y2="-50.2"/>
	<rect x="-802.8" y="25" fill="none" stroke="#FFFFFF" stroke-width="0.25" stroke-miterlimit="10" width="5.2" height="5.2"/>
	<rect x="-806.1" y="20.3" fill="#76CAC8" width="6.6" height="6.6"/>
	<rect x="-806.1" y="36.4" fill="#76CAC8" width="3.3" height="3.3"/>
	<rect x="-802.7" y="36.4" opacity="0.5" fill="#FFFFFF" width="3.3" height="3.3"/>
	<rect x="-799.2" y="36.4" fill="#FFFFFF" width="3.3" height="3.3"/>
	<g>
		<circle opacity="0.5" fill="none" stroke="#FFFFFF" stroke-width="0.12" stroke-miterlimit="10" cx="-798.9" cy="-11.3" r="2.5"/>
		<circle opacity="0.5" fill="none" stroke="#FFFFFF" stroke-width="0.12" stroke-miterlimit="10" cx="-803" cy="-11.3" r="2.5"/>
	</g>
	<polygon opacity="0.5" fill="none" stroke="#FFFFFF" stroke-width="0.12" stroke-miterlimit="10" points="-801,2.8 -799.9,5.1 
		-797.3,5.5 -799.2,7.2 -798.7,9.7 -801,8.6 -803.2,9.7 -802.8,7.2 -804.6,5.5 -802.1,5.1 	"/>
	
		<rect x="-804" y="-84.8" opacity="0.46" fill="none" stroke="#FFFFFF" stroke-width="0.12" stroke-miterlimit="10" width="6.1" height="6"/>
	
		<rect x="-233.1" y="21.1" opacity="0.46" fill="none" stroke="#FFFFFF" stroke-width="0.12" stroke-miterlimit="10" width="6.1" height="6"/>
	
		<rect x="-231" y="24.8" opacity="0.46" fill="none" stroke="#FFFFFF" stroke-width="0.12" stroke-miterlimit="10" width="6.1" height="6"/>
	<g>
		
			<rect x="-803.6" y="-31.9" opacity="0.46" fill="none" stroke="#FFFFFF" stroke-width="0.12" stroke-miterlimit="10" width="3.1" height="6"/>
		
			<rect x="-799.9" y="-31.9" opacity="0.46" fill="none" stroke="#FFFFFF" stroke-width="0.12" stroke-miterlimit="10" width="1.6" height="3"/>
	</g>
	<polygon opacity="0.46" fill="none" stroke="#FFFFFF" stroke-width="0.12" stroke-miterlimit="10" points="-803.9,-103.5 -802,-97 
		-801.6,-98.3 -799.8,-95.3 -798,-96.5 -800,-99.4 -798.4,-99.8 	"/>
	<linearGradient id="SVGID_5_" gradientUnits="userSpaceOnUse" x1="-294.468" y1="-38.7576" x2="-243.0127" y2="-38.7576">
		<stop  offset="0" style="stop-color:#EF5B34"/>
		<stop  offset="0.1687" style="stop-color:#E2E238"/>
		<stop  offset="0.3214" style="stop-color:#6BBB4D"/>
		<stop  offset="0.5091" style="stop-color:#00B7E9"/>
		<stop  offset="0.6759" style="stop-color:#4C56A2"/>
		<stop  offset="0.7958" style="stop-color:#C64E9A"/>
		<stop  offset="1" style="stop-color:#EB212E"/>
	</linearGradient>
	<rect x="-294.5" y="-41" fill="url(#SVGID_5_)" width="51.5" height="4.4"/>
	<g opacity="0.5">
		<rect x="-233.1" y="7.5" fill="none" stroke="#FFFFFF" stroke-width="0.12" stroke-miterlimit="10" width="6" height="0.6"/>
		<rect x="-233.1" y="3.6" fill="none" stroke="#FFFFFF" stroke-width="0.12" stroke-miterlimit="10" width="6" height="0.6"/>
		<rect x="-233.1" y="5.5" fill="none" stroke="#FFFFFF" stroke-width="0.12" stroke-miterlimit="10" width="6" height="0.6"/>
	</g>
	<g>
		<g>
			<circle opacity="0.5" fill="none" stroke="#FFFFFF" stroke-width="0.12" stroke-miterlimit="10" cx="-228" cy="-9.3" r="2.5"/>
			<circle opacity="0.5" fill="none" stroke="#FFFFFF" stroke-width="0.12" stroke-miterlimit="10" cx="-232.1" cy="-9.3" r="2.5"/>
		</g>
		<path opacity="0.5" fill="none" stroke="#FFFFFF" stroke-width="0.12" stroke-miterlimit="10" d="M-232.6-11.8
			c0-1.4,1.1-2.5,2.5-2.5c1.4,0,2.5,1.1,2.5,2.5"/>
	</g>
	<g opacity="0.6">
		<rect x="-231.6" y="-32" fill="#FFFFFF" width="4.2" height="5.8"/>
		<rect x="-229.9" y="-36" fill="#FFFFFF" width="0.6" height="5.8"/>
		
			<rect x="-231.2" y="-34.5" transform="matrix(0.9607 -0.2774 0.2774 0.9607 -0.1681 -65.2453)" fill="#FFFFFF" width="1.1" height="4.9"/>
		
			<rect x="-228.5" y="-35.9" transform="matrix(0.985 0.1727 -0.1727 0.985 -9.0789 38.9186)" fill="#FFFFFF" width="0.6" height="6.3"/>
	</g>
	<g>
		<polygon opacity="0.46" fill="none" stroke="#FFFFFF" stroke-width="0.12" stroke-miterlimit="10" points="-233,-50.2 -233,-56.3 
			-229.7,-58.9 -229.7,-52.8 		"/>
		
			<rect x="-228.2" y="-60.6" opacity="0.5" fill="none" stroke="#FFFFFF" stroke-width="0.12" stroke-miterlimit="10" width="1.2" height="10.3"/>
	</g>
	<path opacity="0.46" fill="#FFFFFF" d="M-233.7-70.1h6.4h1.1c0,0,0.7-1.1-0.5-3.9c-1.2-2.8-4.7-3.9-4.7-3.9L-233.7-70.1l6.1-3.9
		c0,0,0,0.9,0.3,1.7C-227.1-71.5-233.7-70.1-233.7-70.1z"/>
	
		<text transform="matrix(1 0 0 1 -234.1872 -86.258)" opacity="0.5" fill="#FFFFFF" font-family="'Georgia-Italic'" font-size="11.2028">O</text>
	<g>
		
			<text transform="matrix(1 0 0 1 -234.1872 -101.7853)" opacity="0.5" fill="#FFFFFF" font-family="'Georgia'" font-size="11.2028">A</text>
		<g>
			<rect x="-228.9" y="-110.4" fill="#717273" width="1.8" height="8.6"/>
			<rect x="-228.9" y="-110.4" fill="#717273" width="3.8" height="0.8"/>
		</g>
		
			<line opacity="0.5" fill="none" stroke="#FFFFFF" stroke-width="0.12" stroke-miterlimit="10" x1="-226.1" y1="-108.8" x2="-226.1" y2="-101.8"/>
	</g>
</g>
<g>
	<path fill="#FF9E2C" d="M-655.8-34.1l8.1-5l15.6,1.3l-5.3-15.1l16.9,4.9l-11.1-19.6l24.6,9.1l-3.7-7.7l30.3,15.3l10.3,7.7l0.7-11.1
		l11.6,2.7l-5.3-12.6l23,4.3l-0.3-11.8l18.6,10.8l20,5.7l16.7,9.3l48.3,86l40,11.3l-1.3,13.3c0,0,10.4,3.9,9,5.8
		s-26.7,24.5-26.7,24.5l4.7,10l-22.3,13l-13.3,6.3l-22.3,1.7c0,0,0.4,5.8-1,6.1c-1.3,0.3-12.3-4.1-12.3-4.1s-3.6,10.2-4.1,9
		s-14.7-0.9-14.7-0.9l-4.9,12.9l-16.6,0.7l-5.6,5.5l-11.7-13.9c0,0-8.3-0.3-8.3-1.7c0-1.3-2.7-12.5-2.7-12.5l10.7,0.8l-2.3-11
		c0,0-42-42.3-42.3-41.3c-0.3,1-9.3-68.7-9.3-68.7l-1.3,8c0,0-11.3-9-11.3-8s-2.8,2.6-2.8,2.6l-8.9-13l-11.3-2l-2.7-14.7l-7.7,3
		l-2.3-10L-655.8-34.1z"/>
	<rect x="-602.2" y="-51.3" opacity="0.75" fill="#FF9E2C" width="169.7" height="169.2"/>
	<path fill="#E28414" d="M-414.8,96.9c-1.6-1.7,28.3-26.8,28.3-26.8l-60.4-33.4l-15,4.6l34.5,40.6L-414.8,96.9z"/>
	<path fill="#E28414" d="M-445.5,124.2c-0.5-2-73.5-82.5-73.5-82.5l49.8,84.5L-445.5,124.2z"/>
	<polygon fill="#FFB425" points="-501.3,136.3 -533.5,53.2 -482.5,128.2 -486.6,137.2 	"/>
	<polygon fill="#FFB425" points="-432.5,117.9 -499,62.8 -445.5,124.2 	"/>
	<linearGradient id="SVGID_6_" gradientUnits="userSpaceOnUse" x1="-503.4429" y1="143.0135" x2="-517.4429" y2="29.6802">
		<stop  offset="8.544922e-04" style="stop-color:#F59331"/>
		<stop  offset="5.932689e-02" style="stop-color:#E2862B"/>
		<stop  offset="0.2122" style="stop-color:#B8691E"/>
		<stop  offset="0.3676" style="stop-color:#945013"/>
		<stop  offset="0.5235" style="stop-color:#783D0B"/>
		<stop  offset="0.6803" style="stop-color:#653005"/>
		<stop  offset="0.8384" style="stop-color:#592801"/>
		<stop  offset="1" style="stop-color:#552500"/>
	</linearGradient>
	<rect x="-593.8" y="-43.4" fill="url(#SVGID_6_)" width="153.3" height="150.7"/>
	
		<text transform="matrix(1 0 0 1 -575.5007 -3.8671)" fill="#FF9E2C" font-family="'Klavika-Medium'" font-size="24.4652" letter-spacing="-1">Ai</text>
	<polyline fill="#FFB425" points="-589.5,-15.4 -632.2,-37.7 -635.5,-51.4 -586.2,-30.8 	"/>
	<polygon fill="#FFB425" points="-644,-37.8 -590.5,-3.2 -598.5,6.8 	"/>
	<path fill="#FFC61E" d="M-644-37.8c4.4,1.5,53.5,34.5,53.5,34.5l1-12.2l-42.7-22.3L-644-37.8z"/>
	<path fill="#E28414" d="M-631-65.8c2.2,0.8,13.5,22,13.5,22l30,13.5l11-10.5l-37.7-18.5L-631-65.8z"/>
	<line fill="none" stroke="#FF9E2C" stroke-miterlimit="10" x1="-577" y1="6.8" x2="-454" y2="6.8"/>
	<line fill="none" stroke="#FF9E2C" stroke-miterlimit="10" x1="-577" y1="-32.8" x2="-454" y2="-32.8"/>
	<rect x="-577" y="-32.8" fill="#FF9E2C" width="24.5" height="5"/>
	<text transform="matrix(1 0 0 1 -577 23.25)" fill="#FF9E2C" font-family="'Helvetica-Bold'" font-size="6">Adobe  Illustrator  CS6</text>
	<text transform="matrix(1 0 0 1 -574.0001 58.1093)" fill="#FF9E2C" font-family="'Helvetica'" font-size="5.2535">Lorem ipsum</text>
	<text transform="matrix(1 0 0 1 -574 69.0225)"><tspan x="0" y="0" fill="#FF9E2C" font-family="'Helvetica'" font-size="4.5694">Lorem ipsum dolore et admin dominus rosaae cyrus</tspan><tspan x="0" y="7" fill="#FF9E2C" font-family="'Helvetica'" font-size="4.5694">if not just let him go mdf rosarum sinequae carpe. </tspan><tspan x="0" y="13.9" fill="#FF9E2C" font-family="'Helvetica'" font-size="4.5694">diem ad nominus numerum humerus cumulus ingrata</tspan></text>
</g>
<polygon fill="#E28414" points="-522.8,149.9 -539,107.1 -533.3,107.1 -506.2,149.2 "/>
<polygon fill="#FF9E2C" points="-573.2,-50.6 -577.7,-40.4 -560.2,-38.1 -573.2,-50.6 "/>
<path fill="#FFB425" d="M-584.7-44.2c0-0.7,1.7-12.7,1.7-12.7l9.8,6.3l-4.5,10.2L-584.7-44.2z"/>
<polygon fill="#070606" points="13.6,3.5 0.8,63 72.2,63 67.7,3.5 "/>
<polygon fill="#313841" points="17.3,6.8 8.7,54 66.5,54.2 63.5,6.9 "/>
<path fill="#070606" d="M72.2,64.2c0,2-1.6,3.5-3.6,3.5H4.2c-2,0-3.6-1.6-3.6-3.5l0,0c0-2,1.6-3.5,3.6-3.5h64.5
	C70.7,60.7,72.2,62.3,72.2,64.2L72.2,64.2z"/>
<path fill="#FFFFFF" d="M47.8,23.6c-0.3,0.1-0.7,0.1-1.1,0.1c-0.4,0-0.8,0-1.2,0c-0.8,0-1.3-0.1-1.5-0.4c-0.3-0.2-0.4-0.6-0.4-1
	l0-2.5l4.2,0.1l0-1.6l-4.2-0.1l0,0l0-1.8l-3.5,0.9l0,0l-0.1,3.5c-0.3-0.2-0.7-0.4-1-0.7c-0.4-0.2-0.7-0.5-1-0.7
	c-0.3-0.2-0.7-0.4-1-0.7c-0.3-0.2-0.5-0.4-0.7-0.5L33.5,19c0.4,0.3,0.8,0.5,1.2,0.8c0.8,0.5,1.6,1,2.6,1.6c-0.5,0.2-1,0.5-1.5,0.8
	c-0.5,0.3-1,0.7-1.5,1c-0.5,0.3-0.9,0.7-1.3,1c-0.4,0.3-0.7,0.7-1,1l4,0.1c0.3-0.2,0.5-0.5,0.9-0.8c0.3-0.3,0.7-0.5,1-0.8
	c0.4-0.3,0.7-0.5,1.1-0.8c0.4-0.3,0.8-0.5,1.2-0.6l0,0.1c0,0,0,0,0,0c0,0.4,0.1,0.8,0.2,1.2c0.1,0.4,0.4,0.7,0.8,1
	c0.4,0.3,0.9,0.5,1.5,0.6c0.3,0.1,0.6,0.1,1,0.2c0.4,0,0.9,0.1,1.4,0.1c0.7,0,1.4,0,1.9-0.1c0.5-0.1,1-0.1,1.4-0.2L47.8,23.6z"/>
</svg>
