<?xml version="1.0" encoding="utf-8"?>
<!-- Generator: Adobe Illustrator 17.1.0, SVG Export Plug-In . SVG Version: 6.00 Build 0)  -->
<!DOCTYPE svg PUBLIC "-//W3C//DTD SVG 1.1//EN" "http://www.w3.org/Graphics/SVG/1.1/DTD/svg11.dtd">
<svg version="1.1" id="Calque_1" xmlns="http://www.w3.org/2000/svg" xmlns:xlink="http://www.w3.org/1999/xlink" x="0px" y="0px"
	 viewBox="0 0 42 46" enable-background="new 0 0 42 46" xml:space="preserve">
<path fill-rule="evenodd" clip-rule="evenodd" fill="#1C2328" d="M32,37.3c0,1.5-1.3,2.8-2.8,2.8H12.1c-1.5,0-2.8-1.2-2.8-2.8L7.4,9
	h8c0,0,2.5,2.6,5.3,2.8c3,0.2,5.4-2.8,5.4-2.8h8L32,37.3z"/>
<g>
	<path fill-rule="evenodd" clip-rule="evenodd" d="M-146,65.7h0.2v-85.1h-1.7v-7c0-2.4-1.6-4.3-3.5-4.3h-0.3c-1.9,0-3.5,1.9-3.5,4.3
		v7h-1.7v85.1h0.2l-1.5,2.3l1.5,2.3l3.9,10h2.9l3.6-10l1.5-2.3L-146,65.7z"/>
	<rect x="-156.7" y="64.3" fill-rule="evenodd" clip-rule="evenodd" fill="#FF0000" width="10.9" height="1.3"/>
</g>
</svg>
