<?xml version="1.0" encoding="utf-8"?>
<!-- Generator: Adobe Illustrator 17.1.0, SVG Export Plug-In . SVG Version: 6.00 Build 0)  -->
<!DOCTYPE svg PUBLIC "-//W3C//DTD SVG 1.1//EN" "http://www.w3.org/Graphics/SVG/1.1/DTD/svg11.dtd">
<svg version="1.1" id="Calque_1" xmlns="http://www.w3.org/2000/svg" xmlns:xlink="http://www.w3.org/1999/xlink" x="0px" y="0px"
	 viewBox="0 0 317 317" enable-background="new 0 0 317 317" xml:space="preserve">
<g>
	<g>
		<path opacity="0.1" fill="#122546" d="M75.9,203l125.8,113.4h114.6V190.8L224.8,107l-42.1,5.1v12.6l11.8,10.1l-11.8,3
			c0,0-29-33-42.5-35.1c-11.6-1.8-64.3,5.7-64.3,5.7V203z"/>
	</g>
	<g>
		<path fill="#FFFFFF" d="M142.3,147.5c0,0,15.6-1.2,15.6-19.4c0-18.3-12.7-27.2-28.9-27.2H99.3h-0.9H75.9v102h22.5h0.9H129
			c0,0,32.4,1,32.4-30.1C161.4,172.8,162.8,147.5,142.3,147.5z M125.2,119.1h3.8c0,0,7.2,0,7.2,10.6c0,10.6-4.2,12.1-9.1,12.1H99.3
			v-22.8H125.2z M127.5,184.8H99.3v-27.3H129c0,0,10.8-0.1,10.8,14C139.8,183.5,131.7,184.7,127.5,184.8z"/>
		<path fill="#FFFFFF" d="M204.6,126.9c-39.2,0-39.2,39.2-39.2,39.2s-2.7,39,39.2,39c0,0,34.9,2,34.9-27.1h-17.9c0,0,0.6,11-16.4,11
			c0,0-18,1.2-18-17.8h52.9C240.1,171.2,245.9,126.9,204.6,126.9z M187.1,157.6c0,0,2.2-15.7,18-15.7c15.8,0,15.6,15.7,15.6,15.7
			H187.1z"/>
		<rect x="182.7" y="107" fill="#FFFFFF" width="42.1" height="12.6"/>
	</g>
</g>
</svg>
