<?xml version="1.0" encoding="utf-8"?>
<!-- Generator: Adobe Illustrator 17.1.0, SVG Export Plug-In . SVG Version: 6.00 Build 0)  -->
<!DOCTYPE svg PUBLIC "-//W3C//DTD SVG 1.1//EN" "http://www.w3.org/Graphics/SVG/1.1/DTD/svg11.dtd">
<svg version="1.1" id="Calque_1" xmlns="http://www.w3.org/2000/svg" xmlns:xlink="http://www.w3.org/1999/xlink" x="0px" y="0px"
	 viewBox="0 0 317 317" enable-background="new 0 0 317 317" xml:space="preserve">
<g>
	<path opacity="0.2" fill="#122546" d="M316.2,216.3L212.4,125c-10.4-2.1,11.8,10-24.2,5.7c-1.9-0.2-5.7-3.2-7.8-3.6
		c-1.6-0.3-1.8,7.2-3.3,7.6c-16.8,4.4-25.5,10.1-25.5,10.1l-13.2-10.3l40.6-1.7l-60.7-49.8l-15.5,26.3l18.7,14.9l-21.2,4.8
		c0,4-4.3,79.2-4.3,79.2l118.8,108h101.7L316.2,216.3z"/>
	<g>
		<path fill="#FFFFFF" d="M95.9,122.6h26.7v85.8H95.9V122.6z M109.3,79.9c8.5,0,15.5,6.9,15.5,15.5c0,8.5-6.9,15.5-15.5,15.5
			c-8.6,0-15.5-6.9-15.5-15.5C93.8,86.8,100.7,79.9,109.3,79.9"/>
		<path fill="#FFFFFF" d="M139.4,122.6h25.6v11.7h0.4c3.6-6.8,12.3-13.9,25.2-13.9c27,0,32,17.8,32,40.9v47.1h-26.7v-41.7
			c0-10-0.2-22.8-13.9-22.8c-13.9,0-16,10.8-16,22v42.4h-26.6V122.6z"/>
	</g>
</g>
</svg>
