<?xml version="1.0" encoding="utf-8"?>
<!-- Generator: Adobe Illustrator 17.1.0, SVG Export Plug-In . SVG Version: 6.00 Build 0)  -->
<!DOCTYPE svg PUBLIC "-//W3C//DTD SVG 1.1//EN" "http://www.w3.org/Graphics/SVG/1.1/DTD/svg11.dtd">
<svg version="1.1" id="Calque_1" xmlns="http://www.w3.org/2000/svg" xmlns:xlink="http://www.w3.org/1999/xlink" x="0px" y="0px"
	 viewBox="0 0 317 317" enable-background="new 0 0 317 317" xml:space="preserve">
<g>
	<path opacity="0.1" fill="#112F44" d="M91.5,199l131.7,117.7h93.6v-138l-84-76.6c-1.1-0.1-35.1,47.1-74.3,50.9
		c-15.1,1.5-6-3.6-9,5.4C129,218.4,91.5,199,91.5,199z"/>
	<path fill="#FFFFFF" d="M232.8,102.1c-5.5,2.4-11.3,4.1-17.5,4.8c6.3-3.8,11.1-9.7,13.4-16.9c-5.9,3.5-12.4,6-19.4,7.4
		c-5.6-5.9-13.5-9.6-22.3-9.6c-16.8,0-30.5,13.7-30.5,30.5c0,2.4,0.3,4.7,0.8,6.9c-25.3-1.3-47.8-13.4-62.8-31.9
		c-2.6,4.5-4.1,9.7-4.1,15.3c0,10.6,5.4,19.9,13.6,25.4c-5-0.2-9.7-1.5-13.8-3.8v0.4c0,14.8,10.5,27.1,24.4,29.9
		c-2.6,0.7-5.3,1.1-8,1.1c-2,0-3.9-0.2-5.7-0.6c3.9,12.1,15.1,20.9,28.5,21.2c-10.4,8.2-23.6,13-37.9,13c-2.5,0-4.9-0.2-7.3-0.4
		c13.5,8.6,29.5,13.7,46.7,13.7c56.1,0,86.7-46.4,86.7-86.7c0-1.3,0-2.6-0.1-3.9C223.6,113.6,228.7,108.2,232.8,102.1z"/>
</g>
</svg>
