<?xml version="1.0" encoding="utf-8"?>
<!-- Generator: Adobe Illustrator 17.1.0, SVG Export Plug-In . SVG Version: 6.00 Build 0)  -->
<!DOCTYPE svg PUBLIC "-//W3C//DTD SVG 1.1//EN" "http://www.w3.org/Graphics/SVG/1.1/DTD/svg11.dtd">
<svg version="1.1" id="Calque_1" xmlns="http://www.w3.org/2000/svg" xmlns:xlink="http://www.w3.org/1999/xlink" x="0px" y="0px"
	 viewBox="0 0 324 102" enable-background="new 0 0 324 102" xml:space="preserve">
<g>
	<polygon fill="#F4F4F4" points="173.5,-213.8 164.4,-241.9 146.7,-229.3 150.4,-221.7 119.9,-228.3 121.2,-216.2 123.6,-200.4 
		134.3,-184.9 143.8,-186.1 154.2,-178.1 172.5,-183.6 169.4,-193.2 179,-202.6 	"/>
	<path fill="#E8E8E8" d="M144.3-222.7l-1.6,14.6l9.4,8.2l-6.2,15.5l-11.6-0.4c0,0-10.6-14.4-10.8-15.4c-0.2-1-4.3-28.1-3.7-28
		C120.5-228.2,144.3-222.7,144.3-222.7z"/>
	<path fill="#E9EDED" d="M166.6-200l-9-10.3l8.9-7.6l-19.2,1.2c0,0-3.1,9.1,1,9.7s10.5,11.5,10.5,11.5L166.6-200z"/>
	<polygon fill="#E0E0E0" points="142.5,-217.3 139.7,-212.6 134.2,-210.2 131.6,-202.9 127.1,-208.9 132.3,-213.4 136.6,-213.3 	"/>
	<path fill="#E9EDED" d="M173.4-209.1c0.2,0.7,4.2,6.9,3.7,6.7s-5.8-0.5-5.8-0.5s-4,3.1-4,3.2c0,0.1,5.1-5.8,5.1-5.8l1.8,0.6
		L173.4-209.1z"/>
	<path fill="#E9EDED" d="M151.3-228.4l9.4-7.8l-0.2,5.4l-5.1,2.9c0,0-4.3,7.9-4.2,7.5C151.3-220.8,151.3-228.4,151.3-228.4z"/>
	<path fill="#E0E0E0" d="M129-224.3c0,0,7.4,2.4,6.8,2.3c-0.6,0-3.5,3.4-3.5,3.4l-4.7,1.2l-3.6,4.9L129-224.3z"/>
	<path fill="#E0E0E0" d="M147.4-204.8c-0.5,0.4,1.8,6.9,1.8,6.9s-4.2,4.3-4.4,4.8s-1.8,3.5-1.8,3.1c0-0.4,0.8-5.4,1.3-5.6
		s3-1.8,2.9-2.5C147.1-198.9,147.4-204.8,147.4-204.8z"/>
</g>
<path opacity="0.46" fill="#D3C9B6" d="M-93-356.2c5.2,0,36.7,52.5,36.7,52.5s69.6-23.6,77.4-26.2s17.1,0,40.7-3.9
	c23.6-3.9,126-2.6,114.2-5.2C164.3-341.7,59.3-385,59.3-385L-93-356.2z"/>
<g>
	<path fill="#FFFFFF" d="M-100-368.9l48.6,55.1c0,0,73.5-34.1,81.4-35.4c7.9-1.3,149.6,3.9,148.3,0c-1.3-3.9-112.9-52.5-112.9-52.5
		l-97.1,10.5L-100-368.9z"/>
	<path fill="none" stroke="#808285" stroke-miterlimit="10" d="M45.9-386.7c7.1-2.6,15.8,0.4,19.8,6.7c2.2,3.5,3.1,7.6,5.2,11.1
		c2.1,3.5,6.3,6.4,10.2,5"/>
	<path fill="none" stroke="#808285" stroke-miterlimit="10" d="M41.6-369.9c-9.1-6.9-19.1-12.5-29.8-16.6"/>
	<path fill="none" stroke="#808285" stroke-miterlimit="10" d="M-26.6-364.1c-4.1,1.3-8.5-2.6-8.7-6.8c-1.5-30.5,58,0.8,66,8.7
		c-4.3,1.9-8.9,3.1-13.5,4.5c-1.4-3.7-2.8-7.4-4.2-11.2c1.8,0.2,3.7-0.2,5.2-1.3"/>
	<path fill="none" stroke="#808285" stroke-miterlimit="10" d="M57.1-366c-8.4-6.7-16.8-13.5-25.2-20.2c2.9-1.2,5.7-2.4,8.6-3.7"/>
	<path fill="none" stroke="#808285" stroke-miterlimit="10" d="M6.2-365.6c1.1-4.8-1.5-10.8-6.3-11.7c-4.8-0.9-9,3.4-13.9,4.3
		c-1.3,0.2-2.7,0.2-3.9,0.8c-3,1.4-3.4,5.7-2.1,8.8c2.2,5.4,8.1,9,13.9,8.6S5-359.9,6.2-365.6z"/>
	<path fill="none" stroke="#808285" stroke-miterlimit="10" d="M-53.6-376c6.7,0.1,13.5,2.9,17.5,8.2s4.7,13.3,0.7,18.6
		c1-0.1,1.6,1.5,0.8,2.1c-10.6,3-22.9-2.1-28.2-11.7c-2.6-4.7-3.3-11.4,0.8-14.9C-59.7-375.5-56.5-376-53.6-376z"/>
	<path fill="none" stroke="#808285" stroke-miterlimit="10" d="M-27.1-339.5c0.5,0.6-1.3,0.5-0.9-0.3c0.4-0.8,1.4-0.7,2.3-0.7
		c5.2-0.2,9.2-8.6,13.5-5.8c0.9,1-0.3,2.7-1.6,2.6s-2.2-1.5-2.2-2.8c5.7,0,11.4,0,17.1,0"/>
	<path fill="none" stroke="#808285" stroke-miterlimit="10" d="M66.7-389.8c13.6,3.9,26.6,9.9,38.5,17.7"/>
</g>
<g>
	<path fill="#EE8185" d="M-121.1-185.5c-1.6,0.5-2.5,2.3-1.9,3.9l0.3,1c0.5,1.6,2.3,2.5,3.9,1.9l5.7-1.9c1.6-0.5,2.5-2.3,1.9-3.9
		l-0.3-1c-0.5-1.6-2.3-2.5-3.9-1.9L-121.1-185.5z"/>
	
		<rect x="-61.3" y="-257.8" transform="matrix(-0.3225 -0.9466 0.9466 -0.3225 112.2352 -324.6391)" fill="#FBB02A" width="2.4" height="110.7"/>
	
		<rect x="-62" y="-260.1" transform="matrix(-0.3227 -0.9465 0.9465 -0.3227 113.3353 -328.3965)" fill="#F9A11B" width="2.4" height="110.7"/>
	
		<rect x="-60.5" y="-255.6" transform="matrix(-0.3226 -0.9465 0.9465 -0.3226 111.1014 -320.9301)" fill="#F8D506" width="2.4" height="110.7"/>
	<polygon fill="#FCF0CC" points="-8.8,-223.7 6,-225 -6.5,-216.9 	"/>
	<path fill="#603813" d="M0.9-221.7L6-225l-6.1,0.5c0,0.5,0.1,1,0.3,1.5C0.3-222.5,0.6-222.1,0.9-221.7z"/>
	
		<rect x="-116.7" y="-185.1" transform="matrix(-0.3226 -0.9465 0.9465 -0.3226 24.9214 -350.97)" fill="#686969" width="7.2" height="1.4"/>
	
		<rect x="-118" y="-184.7" transform="matrix(-0.3226 -0.9465 0.9465 -0.3226 22.7533 -351.6144)" fill="#7D7D7D" width="7.2" height="1.4"/>
	
		<rect x="-119.4" y="-184.2" transform="matrix(-0.3226 -0.9465 0.9465 -0.3226 20.569 -352.2729)" fill="#686969" width="7.2" height="1.4"/>
</g>
<g>
	<polygon fill="#F4F4F4" points="269.7,-259.9 289.2,-285.8 303.1,-266.4 296.5,-259.9 330.6,-255.9 324.9,-243.8 316.8,-228.2 
		300.2,-216 290.7,-220.6 277,-216 260,-228.2 266.7,-237 260,-250.2 	"/>
	<path fill="#E8E8E8" d="M303.2-258.8l-3.5,15.7L287-238l0.9,18.3l12.2,3.7c0,0,16.1-11.1,16.6-12.2c0.5-1,14.5-27.6,13.8-27.7
		S303.2-258.8,303.2-258.8z"/>
	<path fill="#E9EDED" d="M272-243.1l13-7.6l-6.5-11.1l19.5,8.1c0,0,0,10.6-4.5,9.7s-15,8.2-15,8.2L272-243.1z"/>
	<polygon fill="#E0E0E0" points="303.2,-252.5 304.4,-246.6 309.3,-242.2 309.3,-233.6 316.2,-238.3 312.3,-244.8 307.9,-246.2 	"/>
	<path fill="#E9EDED" d="M268.2-255c-0.5,0.6-6.8,5.6-6.2,5.6c0.6,0,6.2,1.5,6.2,1.5s3,4.7,3,4.8s-3.2-7.8-3.2-7.8h-2.1L268.2-255z"
		/>
	<path fill="#E9EDED" d="M297.9-267.2l-6.9-11.4l-1.7,5.7l4.3,4.8c0,0,1.7,9.7,1.7,9.3C295.2-259.2,297.9-267.2,297.9-267.2z"/>
	<path fill="#E0E0E0" d="M319.7-254.9c0,0-8.5-0.2-7.9,0s2.4,4.7,2.4,4.7l4.4,2.9l2,6.4L319.7-254.9z"/>
	<path fill="#E0E0E0" d="M293.6-241.3c0.4,0.6-4.3,6.5-4.3,6.5s2.9,5.9,2.9,6.5s0.6,4.3,0.8,3.8c0.2-0.5,1.1-5.9,0.7-6.2
		c-0.4-0.3-2.5-2.9-2.1-3.7S293.6-241.3,293.6-241.3z"/>
</g>
<g>
	<g>
		<path fill="#0E263A" d="M596.9-79.6h185.7c0.8-1.7,1.2-3.6,1.2-5.6v-227.3c0-7.7-6.5-14-14.5-14H420.1c-8,0-14.5,6.3-14.5,14
			v227.3c0,2,0.4,3.9,1.2,5.6h187.7H596.9z"/>
		<rect x="424.7" y="-308.6" width="341.8" height="205.6"/>
		<path fill="#929496" d="M598.4-315.7c0-1.5-1.2-2.7-2.8-2.7c-1.5,0-2.8,1.2-2.8,2.7c0,1.5,1.3,2.7,2.8,2.7
			C597.2-313,598.4-314.2,598.4-315.7z"/>
	</g>
	<polygon fill="#BFC6C9" points="777.1,-54.1 405.8,-54.1 375.1,-59.2 809.6,-59.2 	"/>
	<polygon fill="#E9EDED" points="780.8,-79.9 829.1,-61.7 360.3,-62.3 407.6,-79.9 	"/>
	<rect x="360.9" y="-62.3" fill="#D0D2D3" width="464.5" height="4.3"/>
</g>
<text transform="matrix(1 0 0 1 438.7318 -286.0065)"><tspan x="0" y="0" fill="#FFFFFF" font-family="'MyriadPro-Regular'" font-size="8">&lt;div id=</tspan><tspan x="27.8" y="0" fill="#FFCE00" font-family="'MyriadPro-Regular'" font-size="8">»midlevel»</tspan><tspan x="63.2" y="0" fill="#FFFFFF" font-family="'MyriadPro-Regular'" font-size="8">&gt;&lt;h1&gt;kevin is the </tspan><tspan x="0" y="9.6" fill="#FF2A00" font-family="'MyriadPro-Regular'" font-size="8">&lt;strong&gt; </tspan><tspan x="33" y="9.6" fill="#FFFFFF" font-family="'MyriadPro-Regular'" font-size="8">best</tspan><tspan x="47.3" y="9.6" fill="#FF3C00" font-family="'MyriadPro-Regular'" font-size="8">&lt;/strong&gt;</tspan></text>
<text transform="matrix(1 0 0 1 441.3985 -263.6732)"><tspan x="0" y="0" fill="#B066FF" font-family="'MyriadPro-Regular'" font-size="8">&lt;section&gt;</tspan><tspan x="33.6" y="0" fill="#FFFFFF" font-family="'MyriadPro-Regular'" font-size="8">&lt;h1&gt;kevin is the </tspan><tspan x="0" y="9.6" fill="#FF2A00" font-family="'MyriadPro-Regular'" font-size="8">&lt;strong&gt; </tspan><tspan x="33" y="9.6" fill="#FFFFFF" font-family="'MyriadPro-Regular'" font-size="8">best</tspan><tspan x="47.3" y="9.6" fill="#FF3C00" font-family="'MyriadPro-Regular'" font-size="8">&lt;/strong&gt;</tspan><tspan x="0" y="19.2" fill="#A764FF" font-family="'MyriadPro-Regular'" font-size="8">&lt;/section&gt;</tspan></text>
<text transform="matrix(1 0 0 1 441.7659 -233.578)"><tspan x="0" y="0" fill="#FFFFFF" font-family="'MyriadPro-Regular'" font-size="8">because word colorless is so poor and sad</tspan><tspan x="0" y="9.6" fill="#FFFFFF" font-family="'MyriadPro-Regular'" font-size="8">&lt;div id=</tspan><tspan x="27.8" y="9.6" fill="#FFEC55" font-family="'MyriadPro-Regular'" font-size="8"> ‘close’</tspan><tspan x="49.9" y="9.6" fill="#FFFFFF" font-family="'MyriadPro-Regular'" font-size="8">&gt;close it now &lt;/div&gt;</tspan></text>
<g>
	<path fill="#E9EDED" d="M323.7,83.7c0.2,5.1-7.8,7.3-15.1,7.6L79.4,100c-7.3,0.3-18.5-4.9-22.7-8.4L2.6,24
		c-0.2-5.1,5.6-9.5,12.9-9.8l216.3-8.3c9.5-0.9,12.6-0.6,21.5,8.4L323.7,83.7z"/>
	<path d="M323.6,80.8c0.2,5.1-7.8,7.3-15.1,7.6L79.3,97.2c-7.3,0.3-18.5-4.9-22.7-8.4L2.5,21.2c-0.2-5.1,5.6-9.5,12.9-9.8l216.3-8.3
		c9.5-0.9,12.6-0.6,21.5,8.4L323.6,80.8z"/>
	<polygon fill="#313841" points="31.1,18 85.2,83.9 290.8,75.7 225.2,10.6 	"/>
</g>
</svg>
